<svg xmlns="http://www.w3.org/2000/svg" width="16" height="16" fill="currentColor" class="bi bi-4mf" viewBox="0 0 16 16">
  <path fill-rule="evenodd" d="M.006 3.95C.01 6.307.029 7.77.054 7.581c.023-.175.061-.505.087-.734.052-.467.133-.863.203-.99a.4.4 0 0 0 .047-.171c0-.047.031-.143.067-.213s.094-.241.128-.38c.033-.138.078-.251.099-.251.023 0 .055-.066.073-.147s.05-.147.072-.147.054-.055.07-.121c.047-.187.449-.833.807-1.297.367-.477.82-.938 1.277-1.307.174-.139.352-.284.393-.321.242-.208 1.397-.826 1.674-.893.074-.018.147-.053.161-.077.015-.023.064-.044.11-.044a.6.6 0 0 0 .213-.067 1.3 1.3 0 0 1 .342-.104.9.9 0 0 0 .266-.078c.028-.023.326-.066.659-.096.334-.03.684-.073.779-.093C7.674.028 6.007.008 3.876.005L0 0zM8.436.051c.135.022.485.063.778.092s.557.072.587.097.158.06.286.078c.129.02.246.055.26.078.015.025.064.044.11.044a.6.6 0 0 1 .222.074c.078.04.164.073.192.073.106 0 1.16.542 1.483.762q1.198.818 1.944 1.83c.149.202.294.393.322.425.029.034.052.081.052.108 0 .025.027.077.062.112.033.036.115.176.182.31.068.134.137.254.155.268a.4.4 0 0 1 .067.159c.019.074.051.134.071.134.021 0 .067.105.103.233.034.128.093.286.127.354.035.068.064.16.064.205 0 .046.02.094.044.11.023.014.059.131.078.259s.052.255.074.281c.127.16.253 1.698.196 2.398-.053.644-.142 1.253-.196 1.319a1 1 0 0 0-.073.261 1.4 1.4 0 0 1-.102.343.6.6 0 0 0-.069.213c0 .045-.022.096-.049.113s-.05.066-.05.111c0 .161-.736 1.555-.899 1.698-.029.027-.12.147-.2.269-.2.296-1.166 1.245-1.546 1.516-.601.43-1.688 1.027-1.871 1.028a.6.6 0 0 0-.188.069 1.3 1.3 0 0 1-.293.1 1.6 1.6 0 0 0-.26.075c-.247.109-.966.234-1.418.247a3 3 0 0 0-.489.046c-.08.021 1.641.041 3.825.044 2.836.003 3.979-.009 4.003-.048.018-.03.017-3.628-.004-7.996L15.98 0l-3.894.006c-2.15.003-3.785.023-3.65.045M4.061 2.557c-.239.333-.767 1.049-1.878 2.549-.395.534-.714 1.007-.705 1.051.013.069.137.08.962.092l.947.014-.023.268c-.026.316-.066.368-.317.409-.137.023-.185.054-.185.121 0 .085.06.09.994.09q.995 0 1.049-.055c.069-.069.001-.138-.16-.159-.152-.021-.244-.197-.244-.47l-.002-.207h.64l-.014-.428-.014-.427-.306-.016-.306-.014V2.249l-.109.003c-.078 0-.174.089-.329.305m-.749 1.368a14 14 0 0 1-.519.722c-.272.363-.494.676-.494.696 0 .021.242.036.537.036h.538v-.757c0-.418-.009-.758-.019-.758s-.031.027-.043.061m3.746.357a.6.6 0 0 0-.185.118c-.052.083-.124.057-.124-.044 0-.089-.032-.093-.647-.069a8 8 0 0 0-.713.045c-.085.027-.026.114.11.166.08.031.121.097.142.23.039.229.041 1.958.004 2.097-.015.055-.096.127-.181.159-.118.045-.14.071-.096.115.039.04.298.06.792.063.77.003.871-.026.683-.196-.087-.079-.094-.16-.094-1.132V4.788l.13-.12c.315-.291.368-.106.35 1.197-.014.95-.023 1.045-.107 1.106-.05.037-.081.096-.068.13.019.049.197.062.752.058.63-.005.73-.017.744-.086.009-.043-.006-.079-.033-.079s-.083-.034-.127-.077c-.064-.065-.076-.231-.076-1.049 0-1.039.025-1.173.232-1.268.101-.046.14-.04.215.027.083.077.091.17.091 1.175 0 1.04-.005 1.096-.097 1.154-.096.06-.136.181-.062.188.021.001.367.006.77.009.63.005.735-.005.748-.071.01-.047-.031-.088-.103-.106a.22.22 0 0 1-.149-.14c-.016-.062-.03-.544-.03-1.071 0-1.003-.035-1.204-.229-1.368-.273-.227-.719-.256-1.115-.068-.144.068-.275.159-.292.202-.024.064-.047.055-.13-.052-.202-.256-.747-.353-1.105-.197m2.919.09c0 .037.055.103.124.148.124.082.169.167.732 1.422.343.766.537 1.194.646 1.431.095.205.016.423-.202.556-.21.128-.263.115-.125-.032a.414.414 0 0 0-.024-.596c-.099-.084-.189-.111-.379-.111-.699 0-.804.746-.13.932.271.074.536.065.749-.024.253-.105.273-.151 1.009-2.344.321-.958.377-1.088.529-1.225.21-.191.142-.225-.434-.225-.45 0-.539.013-.539.074 0 .041.053.095.118.119.306.116.347.469.136 1.151l-.136.438-.302-.714a19 19 0 0 1-.316-.778c-.007-.038.046-.077.133-.092.085-.017.153-.063.163-.112.014-.08-.054-.086-.868-.086-.72 0-.884.013-.884.068m2.759 1.912a.7.7 0 0 0-.2.132c-.092.116-.119.34-.062.514.092.278.49.39.851.239.194-.082.271-.204.271-.431 0-.208-.115-.372-.323-.459a.6.6 0 0 0-.537.005M4.231 7.612c-.551.14-.85.496-.926 1.103-.032.255-.046.279-.166.293-.078.009-.137.05-.147.101-.013.066.018.086.134.086h.151v2.435l-.151.053c-.087.03-.143.079-.13.115.031.094 1.822.089 1.822-.005 0-.037-.077-.092-.17-.123-.275-.089-.294-.174-.294-1.385L4.352 9.2l.282-.016c.211-.01.281-.033.281-.088s-.07-.077-.281-.087l-.282-.015.007-.426c.004-.323.014-.381.041-.242q.067.352.374.408c.661.124.913-.658.326-1.007-.184-.109-.652-.172-.869-.115m.247.259c-.138.152-.065.188.079.04.073-.074.104-.134.069-.134s-.101.042-.148.094M.056 12.19l-.007 3.803 3.925-.005c2.158-.003 3.869-.023 3.803-.045a2.4 2.4 0 0 0-.466-.047 5 5 0 0 1-.587-.051c-.447-.077-.781-.149-.879-.188a12 12 0 0 0-.44-.154 8 8 0 0 1-.696-.276 4 4 0 0 0-.377-.164c-.058 0-.809-.478-1.105-.7-.697-.53-1.525-1.432-1.96-2.139l-.227-.367a1.4 1.4 0 0 1-.112-.218 7 7 0 0 0-.189-.391 2.4 2.4 0 0 1-.175-.431 1.4 1.4 0 0 0-.104-.293.7.7 0 0 1-.069-.239c0-.059-.02-.119-.044-.134-.025-.015-.061-.142-.08-.283a1.4 1.4 0 0 0-.078-.329c-.024-.041-.062-.318-.085-.613-.027-.355-.044.753-.048 3.264m5.736-3.211c-.496.109-.754.336-.754.658 0 .128.038.233.126.336.112.133.156.151.383.151.218 0 .275-.022.392-.143a.496.496 0 0 0 .001-.691c-.126-.131-.126-.136-.029-.167.12-.038.279.038.348.167.063.117.066.713.005.826-.043.08-.222.173-.738.379-.464.185-.635.389-.635.753 0 .435.235.637.743.636.239 0 .353-.027.502-.118l.194-.116.14.117c.12.101.19.118.507.118.24 0 .428-.028.537-.081.182-.085.195-.192.023-.185-.143.006-.148-.032-.163-1.187-.013-.914-.021-.996-.117-1.124a1 1 0 0 0-.259-.23c-.201-.117-.875-.174-1.206-.099m3.832-.009c-.153.033-.322.098-.374.145-.094.085-.098.083-.113-.027-.01-.071-.047-.112-.101-.109-.047.002-.35.007-.673.011-.552.009-.586.014-.586.106 0 .056.032.099.075.099.166 0 .217.298.217 1.267 0 .965-.033 1.17-.195 1.213-.055.014-.097.067-.097.118 0 .089.039.093.79.08.576-.01.796-.029.81-.074.012-.033-.035-.083-.106-.109l-.125-.048v-1.068c0-.778.017-1.089.06-1.148.095-.123.303-.155.396-.06.071.069.081.22.081 1.107 0 1.026-.027 1.216-.173 1.216-.039 0-.071.044-.071.099 0 .096.025.098.795.085.607-.01.794-.028.794-.076 0-.035-.055-.09-.121-.123l-.123-.062-.029-1.123a47 47 0 0 0-.038-1.133c-.138-.202-.337-.36-.487-.384l-.253-.046c-.041-.009-.199.012-.353.044m2.358.001c-.322.068-.419.119-.607.316-.113.119-.147.207-.165.418-.03.353.108.589.597 1.034.387.353.55.619.498.821-.058.235-.429.224-.634-.019a1.5 1.5 0 0 1-.204-.425c-.169-.551-.253-.477-.275.242-.017.51-.014.527.088.527.058 0 .118-.033.133-.074.031-.08.205-.1.248-.03.037.062.486.201.644.201.126 0 .292-.042.618-.159.193-.069.458-.384.497-.59a.93.93 0 0 0-.2-.72 6 6 0 0 0-.531-.489c-.226-.189-.423-.396-.45-.473-.096-.273.078-.447.38-.381.222.049.308.187.469.75.01.035.058.057.105.048.073-.014.087-.086.1-.518.011-.441.003-.5-.069-.5a.2.2 0 0 0-.136.073c-.047.063-.084.064-.275.007-.354-.105-.545-.119-.831-.059m-5.838 1.594a1 1 0 0 0-.172.317c-.081.296.062.573.257.498.066-.026.08-.11.08-.496 0-.257-.009-.467-.021-.467a.8.8 0 0 0-.144.148"/>
</svg>