<svg xmlns="http://www.w3.org/2000/svg" width="16" height="16" fill="currentColor" class="bi bi-a4a" viewBox="0 0 16 16">
  <path fill-rule="evenodd" d="M0 4.393c0 2.415.013 4.39.03 4.388s.129-.115.249-.254c.242-.276 1.042-1.161 1.757-1.941l.782-.858c.177-.197.885-.978 1.572-1.735l2.193-2.416A145 145 0 0 1 7.697.356c.095-.101.199-.222.233-.27L7.99 0H0zm10.701.718v5.11h5.27V0h-5.27zm-3.178-.829c-.367.386-.693.737-1.952 2.107-.395.428-.827.895-.961 1.038-.135.142-.718.771-1.296 1.397l-1.173 1.268-.12.129h5.845V7.107c0-1.713-.014-3.114-.034-3.114-.018 0-.157.13-.309.289M0 14.114v1.857h7.866v-3.713H0zm10.701 0v1.857h5.27v-3.713h-5.27z"/>
</svg>