<svg xmlns="http://www.w3.org/2000/svg" width="16" height="16" fill="currentColor" class="bi bi-bbrt-mobile" viewBox="0 0 16 16">
  <path fill-rule="evenodd" d="M13.984 2.888c-.137.021-.495.1-.795.178-.302.077-.816.192-1.145.254-.328.063-.775.154-.995.2-.217.047-.688.135-1.043.197-.356.061-.825.161-1.044.221-.614.17-1.656.179-3.183.028a62 62 0 0 0-2.792-.201c-1.173-.054-1.464-.037-1.789.099-.534.223-1.006.792-1.083 1.303-.066.438.089 1.64.249 1.94.051.097.095.278.095.401s.041.36.091.528c.114.384.315 1.237.355 1.499.027.189.127.611.386 1.638.078.301.266.605.588.944l.475.501.867-.007c.478-.003 1.159-.078 1.514-.167.356-.088.915-.211 1.243-.275.328-.063.785-.156 1.014-.205.541-.12 3.119-.113 4.697.008.878.07 1.342.065 1.605-.014.381-.115.888-.485.888-.649 0-.052.056-.149.125-.219.067-.066.126-.154.129-.193.013-.159.457-2.089.566-2.456.067-.219.113-.461.105-.537-.007-.078.034-.257.092-.397.058-.143.143-.449.19-.682l.171-.845a5 5 0 0 1 .209-.721c.066-.165.128-.611.138-.996.015-.685.01-.699-.372-1.068-.341-.327-.444-.37-.846-.359a7 7 0 0 0-.705.052m.588.77c-.023.023-.848.204-1.831.406l-3.226.658c-1.368.28-1.491.29-2.635.196-.66-.055-1.894-.147-2.742-.207A62 62 0 0 1 2.2 4.556c-.427-.052-.766.083-.597.239.055.05 1.531.189 3.282.311l3.181.219 2.949-.601c3.606-.735 3.415-.685 3.623-.915.14-.155.08-.292-.066-.151m-2.776 2.115c-.565.089-.687.141-.746.327-.1.318.116.586.523.655.624.106.72.152.72.344 0 .245-.153.332-.697.394-.307.037-.446.1-.446.203 0 .114.127.148.563.147.681-.003.977-.213.977-.694 0-.4-.228-.606-.77-.695-.453-.074-.58-.251-.18-.251.406 0 .755-.174.689-.343-.058-.151-.147-.164-.633-.087m-1.939.125c-.439.042-.597.097-.597.205 0 .088.108.163.258.18.245.029.261.069.348.846.068.617.127.815.239.815.123 0 .146-.15.133-.821-.014-.728.004-.819.161-.819.258 0 .43-.233.28-.381-.064-.064-.141-.109-.171-.101s-.323.043-.651.076m-2.37.173c-.084.084-.086.958-.004 1.561.05.361.103.461.249.461.159 0 .185-.08.185-.553 0-.528.012-.551.224-.486.249.075.571.331.571.452 0 .26.208.578.346.525.204-.078.192-.315-.037-.764-.154-.303-.169-.425-.081-.659.17-.452-.023-.603-.771-.603-.338 0-.647.03-.682.066m-1.782.102c-.147.039-.172.157-.162.758.006.394.039.848.076 1.013.063.293.076.297.609.265.69-.043.994-.227.994-.603 0-.156-.069-.341-.153-.41-.139-.116-.135-.237.023-.657.086-.23-.273-.436-.747-.424a4 4 0 0 0-.64.058m-1.716.117c-.287.061-.299.087-.326.661a4.8 4.8 0 0 0 .055.993l.085.399.585-.029c.661-.031.945-.212.945-.601a.73.73 0 0 0-.154-.421c-.125-.137-.131-.214-.033-.428.1-.222.09-.293-.062-.46-.184-.205-.51-.237-1.095-.114m3.83.213c0 .053.088.106.198.114.109.007.25.019.314.024s.137-.045.159-.114c.027-.084-.075-.124-.315-.124-.197 0-.356.045-.356.1m-1.841.098c-.034.055-.003.1.069.101s.231.029.354.062c.165.043.224.018.224-.102 0-.181-.54-.232-.647-.061m-1.715.072c-.355.067-.261.227.132.227.232 0 .343-.041.318-.118-.047-.142-.15-.166-.45-.109m1.702.75c.033.123.061.256.062.298.001.04.159.074.353.074q.35 0 .412-.163c.082-.214-.219-.434-.595-.434-.254 0-.284.029-.232.225m-1.873.198c.039.178.076.329.083.335.007.01.163-.008.345-.037.625-.094.448-.621-.209-.621-.272 0-.284.016-.219.323m6.778.935c-.036.036-.207.061-.381.057l-.313-.011.06.706c.061.728.161.95.37.821.079-.048.1-.217.061-.498-.041-.307-.018-.458.086-.545.217-.18.445-.042.447.272.003.469.112.737.285.702.126-.023.162-.152.162-.576 0-.487.023-.549.219-.576.231-.034.291.093.35.727.017.19.09.308.202.329.146.028.173-.043.172-.446-.002-.671-.173-.969-.579-1.009-.18-.017-.382.014-.448.069-.077.063-.177.066-.268.008-.172-.109-.336-.12-.425-.03m-2.198.44c-.285.338-.314.498-.141.82.417.783 1.475.529 1.475-.355 0-.73-.859-1.029-1.334-.465m-1.366-.137c-.55.084-.772.669-.444 1.17.184.281.473.382.967.333.516-.049.444-.318-.1-.38-.739-.084-.841-.611-.144-.741.481-.092.535-.126.467-.306-.055-.143-.209-.159-.746-.076m1.731.294c-.177.071-.156.483.032.637.31.258.699-.241.436-.558-.123-.147-.247-.169-.468-.079M6.072 10.29c-.037.059-.019.155.04.215.124.123.447-.089.357-.236-.077-.122-.317-.109-.397.021"/>
</svg>