<svg xmlns="http://www.w3.org/2000/svg" width="16" height="16" fill="currentColor" class="bi bi-bbrt" viewBox="0 0 16 16">
  <path d="M15.347 3.422c-.013.013-.508.093-1.1.18-.593.085-1.334.195-1.647.245a667 667 0 0 1-3.769.565l-.783.117-1.082-.1c-.596-.053-1.178-.108-1.296-.118-.549-.052-1.815-.167-2.167-.2-.38-.033-1.184-.108-1.795-.165C.79 3.86.363 4.02.136 4.534c-.16.361-.153.416.298 2.422.158.693.304 1.37.325 1.5l.041.24.32-.018c.178-.01.39-.025.47-.034.15-.016.15-.014.175.116.012.073.059.314.103.536.066.333.073.405.032.421-.028.011-.043.05-.034.095.01.042.043.255.077.476l.058.4.246-.132c.796-.43 1.147-.949 1.142-1.686l-.002-.308.11.006.112.005.011.275c.012.324.007.322.31.11.225-.156.235-.17.214-.278-.025-.135.167-.21.252-.102.038.047.056.047.143.002.076-.039.335-.057 1.06-.076.528-.013 1.056-.03 1.173-.038s.533-.02.924-.033.839-.029.995-.038.62-.024 1.03-.035a95 95 0 0 0 1.013-.036c.148-.007.603-.023 1.013-.035s.826-.029.924-.036c.39-.028 1.937-.06 1.937-.04 0 .01-.087.085-.192.165-.153.115-.188.161-.174.224s.009.067-.022.024c-.05-.069-.055.08-.007.173q.035.059-.032.245c-.035.103-.057.187-.046.187s.004.02-.016.044-.048.126-.06.227c-.015.1-.071.276-.13.391a1 1 0 0 0-.103.261c-.002.048-.005.048-.036 0-.046-.072-.044-.012.002.077.032.058.027.074-.032.089-.04.012-.064.039-.053.067.01.027-.03.096-.089.153s-.1.112-.09.12c.008.011-.061.022-.153.026-.095.003-.238.009-.318.014-.082.003-.143-.005-.132-.02.009-.014-.085-.028-.208-.03-.517-.007-.703-.018-.703-.037 0-.013-.084-.021-.187-.021q-.237 0-.968-.057a.4.4 0 0 1-.15-.036c-.023-.014-.051-.009-.064.01-.024.042-.334.03-.406-.015-.027-.016-.057-.01-.073.016-.022.034-.03.034-.041 0-.014-.043-.315-.064-1.06-.071a3 3 0 0 1-.509-.04c-.146-.038-1.114-.05-1.286-.014-.06.011-.235.036-.391.052-.347.039-.51.066-.555.092-.017.011-.032.004-.032-.016q0-.037-.09-.003c-.11.042-.219.062-.656.122a3 3 0 0 0-.4.073q-.061.025-.062-.023-.002-.05-.027-.007c-.014.023-.1.046-.186.052a.5.5 0 0 0-.212.048q-.058.046-.02-.016c.039-.062.022-.047-.019-.015-.028.02-.174.036-.323.036-.15-.002-.265.009-.256.023s-.003.028-.03.03c-.025.002-.1.01-.165.014-.068.006-.132.025-.142.043-.013.018-.118.032-.231.03-.114 0-.215.01-.224.025-.011.016-.032.02-.048.009s-.041-.002-.054.018-.033.03-.048.021a.5.5 0 0 0-.172.013q-.151.027-.167-.013-.014-.034-.018.009c-.003.043-.012.043-.064 0-.035-.028-.05-.03-.033-.005.032.053-.647.039-.683-.015a.6.6 0 0 0-.137-.1c-.062-.036-.106-.077-.096-.091.01-.016-.007-.041-.033-.057-.05-.029-.146-.189-.116-.189.01 0-.005-.064-.032-.144-.028-.078-.039-.135-.023-.126s.025-.018.02-.06a.2.2 0 0 0-.015-.078 1 1 0 0 1-.056-.222c-.013-.063-.032-.109-.045-.102-.012.01-.026-.058-.032-.145-.003-.09-.025-.183-.046-.208s-.034-.068-.03-.094a.3.3 0 0 0-.02-.109.3.3 0 0 1-.01-.15c.009-.05.003-.09-.015-.09-.06 0-.028-.07.032-.073.116-.005-.067-.064-.206-.067-.069 0-.145-.021-.169-.044-.095-.096-.08.05.098.85.222 1 .272 1.13.507 1.342.437.393.65.391 3.404-.014 1.086-.16 2.141-.313 2.345-.343.409-.059.471-.055 3.074.144.626.048 1.402.105 1.724.124s.739.054.927.075c.803.09.874.005 1.349-1.638.177-.617.588-2.015.913-3.11.62-2.095.673-2.297.636-2.445-.03-.119-.19-.307-.297-.348-.144-.053-.243-.073-.266-.048m.11.523c.002-.025.021-.045.04-.045.022 0 .03.016.017.036s-.005.035.016.035c.02 0 .034.04.028.089-.003.048-.021.089-.039.089-.016 0-.021.023-.01.05.01.028-.013.133-.052.234-.037.1-.06.197-.048.215q.014.032-.021.034c-.035.002-.032.025-.02.055q.015.05-.014.034c-.021-.013-.037.028-.04.096-.013.273-.182.845-.251.845-.015 0-.018.024-.008.05s.004.06-.017.073c-.02.012-.029.043-.018.07s-.007.072-.037.102c-.034.034-.04.06-.016.068.026.009.026.039.001.101-.065.165-.087.23-.083.252.003.015-.023.11-.059.214-.035.105-.058.21-.05.234s-.003.045-.026.045c-.025 0-.034.023-.023.053.012.032.002.053-.027.053-.027 0-.057.032-.067.071s-.004.071.014.071.032.016.032.036-.023.035-.052.035c-.032 0-.044.022-.032.054.011.028.002.053-.02.053s-.033.037-.024.089c.009.048 0 .089-.02.089-.021 0-.03.021-.02.05.011.026.003.065-.02.088q-.044.042.01.04.051-.001-.016.047c-.037.027-.055.066-.04.087.028.047-.058.054-.802.057-.297.002-.512.018-.501.036s-.021.021-.075.009c-.051-.014-.094-.013-.094.003 0 .022-.341.029-.595.013-.116-.01.082-.173.405-.336.187-.094.423-.393.434-.546.014-.204-.17-.508-.306-.508-.04 0-.03-.03.035-.115.048-.064.12-.18.16-.256l.071-.142-.199-.062c-.266-.084-.312-.08-.383.026-.166.253-.349.226-.343-.05.007-.456.433-.792.53-.412.028.112.058.103.356-.117.244-.178.247-.187.109-.39-.17-.25-.596-.353-.876-.21-.066.031-.15.058-.185.058s-.066.023-.066.053-.03.054-.066.054c-.138 0-.394.67-.396 1.032 0 .17-.014.21-.094.28-.098.086-.108.534-.012.566.02.005.025.028.012.05q-.02.032.016.012c.021-.012.071.007.11.046a.5.5 0 0 0 .237.094c.13.02.154.034.108.059-.032.018-.05.048-.037.066.01.02-.032.035-.098.037-.185.004-.235.02-.357.117-.183.146-.24.208-.24.258 0 .027-.016.048-.036.048s-.035.028-.035.064c0 .034-.023.096-.052.137s-.04.087-.026.101c.014.016-.011.02-.055.009q-.082-.021-.08.03c0 .037-.052.05-.214.044-.13-.001-.213-.02-.213-.044 0-.021-.016-.016-.034.013-.026.042-.04.042-.09.001-.045-.037-.064-.039-.085-.005-.015.023-.075.039-.132.035a.3.3 0 0 0-.15.018c-.022.016-.042.01-.042-.009 0-.039-.213-.03-.28.013-.024.014-.063.01-.086-.007-.055-.041-.348-.025-.508.028-.11.036-.132.032-.176-.025-.039-.051-.05-.055-.05-.012-.001.064-.428.082-.472.02q-.025-.035-.027-.002c-.002.033-.174.037-.442.04-.242.004-.459.016-.48.029-.02.012-.037.01-.037-.005 0-.034-.246-.054-.32-.024-.043.016-.04.027.017.05.068.027.068.029-.008.032-.045 0-.082-.018-.084-.042-.002-.036-.005-.036-.02 0-.01.024-.042.044-.07.044s-.043-.016-.03-.036c.031-.051-.138-.044-.19.01-.036.035-.05.033-.074-.004q-.03-.054-.055-.007c-.014.021-.092.037-.174.032-.242-.011-.82.078-1.086.167-.11.037.036-.082.178-.146l.148-.066-.023-.284-.025-.286.085.08c.046.044.12.154.167.247.044.092.087.176.094.183.005.007.08-.048.164-.125s.195-.174.248-.215c.054-.042.098-.09.098-.106 0-.043-.24-.402-.345-.514l-.085-.092.105-.21c.377-.757.224-1.364-.345-1.364-.282 0-.894.202-.991.328-.05.066.1.71.16.686.033-.012.044.064.046.329 0 .314.028.732.09 1.313l.024.222h-.253l-.142-.453c-.178-.57-.217-.712-.394-1.409a9 9 0 0 0-.158-.58 2 2 0 0 0-.327.106l-.317.117-.021.265c-.012.147-.02.634-.016 1.083.005.844.004.855-.146.935-.067.036-.08.029-.119-.062a.8.8 0 0 0-.163-.224l-.123-.123.059-.227c.163-.634-.07-1.24-.475-1.24-.273 0-.849.296-1.206.62l-.17.154.118.35c.182.532.182.535.219.475.044-.071.059-.045.087.153.023.167.023.17-.05.131a.8.8 0 0 0-.26-.042c-.13-.002-.164-.011-.115-.03.06-.026.063-.03.01-.033-.034 0-.063-.026-.063-.055S1.157 8.2 1.136 8.2q-.042.001.004-.053c.024-.03.028-.054.008-.054s-.035-.042-.035-.092c0-.052-.02-.105-.044-.12-.034-.022-.034-.033 0-.054.026-.016.03-.036.008-.048-.053-.036-.09-.183-.046-.183.023 0 .018-.032-.016-.084-.028-.044-.042-.094-.028-.108s.007-.037-.018-.052c-.023-.016-.046-.106-.05-.202-.003-.098-.023-.188-.044-.203C.85 6.93.86 6.901.903 6.87c.06-.046.059-.05-.035-.064l-.102-.012.09-.041c.067-.03.072-.041.024-.043-.035 0-.055-.016-.044-.035.01-.018.003-.043-.02-.057C.788 6.6.79 6.586.822 6.566c.03-.02.024-.033-.024-.05-.055-.015-.065-.051-.062-.18.004-.1-.01-.16-.035-.16-.023 0-.018-.017.012-.034.043-.029.036-.041-.035-.07-.07-.026-.075-.035-.023-.037s.058-.012.028-.05c-.023-.026-.03-.057-.018-.069s.002-.05-.025-.082a.3.3 0 0 1-.055-.15c-.01-.175-.014-.187-.05-.166C.515 5.53.5 5.523.5 5.502c0-.02.02-.037.044-.037q.048-.001-.005-.032c-.027-.018-.037-.048-.025-.07.014-.02.009-.07-.012-.108-.027-.05-.025-.073.007-.087.034-.014.034-.025-.004-.052q-.048-.031-.01-.056c.02-.013.03-.055.023-.095-.02-.097.016-.18.062-.152q.035.02.018-.03c-.025-.065.025-.153.087-.155a.037.037 0 0 0 .037-.046c-.023-.107.284-.237.524-.22.03.001.146.003.258.003q.204.002.23.051c.031.054.187.036.187-.02 0-.054.054-.036.135.04.045.04.098.062.121.046.059-.035.535-.043.581-.007.022.016.17.032.329.037s.291.023.291.04.016.019.036.007.037-.002.039.024c.002.036.005.036.02.002.01-.025.035-.035.055-.023s.05.002.067-.025c.027-.042.037-.04.066.004.023.034.103.057.222.062.675.03.796.051.75.128-.014.023.003.018.039-.01.05-.042.067-.042.09-.006.022.034.032.032.05-.01.01-.033.038-.058.057-.058s.027.023.014.054c-.016.044.03.051.313.04.354-.012.434-.001.398.056q-.017.033.048-.002.068-.037.222-.002c.084.02.183.025.219.013.04-.013.067-.004.067.02 0 .033.013.033.048.003.053-.045.379-.045.379 0 0 .016.028.028.062.028.19.004.28.014.334.043q.058.03.103-.023.045-.056.082-.018c.037.038.051.023.083-.004.036-.03.046-.025.046.023 0 .045.016.054.063.034.033-.016.334-.032.666-.035.378-.004.664-.024.764-.052.318-.094.687-.13 1.467-.14.056-.002.091-.016.08-.034-.023-.037.205-.075.496-.08a.7.7 0 0 0 .258-.037c.044-.038.414-.047.469-.011.018.01.048-.009.067-.043.036-.062.075-.069.468-.078.14-.002.213-.016.183-.034-.066-.042.119-.076.305-.055.08.01.155.002.167-.017.011-.018.075-.027.14-.02q.12.014.164-.037c.05-.059.125-.075.089-.018-.012.02.012.035.053.035s.066-.016.054-.035.007-.037.042-.04l.197-.017c.073-.005.134.004.134.023 0 .018.017.034.037.034.021 0 .028-.016.016-.036s.007-.037.043-.04c.097-.006.184-.022.463-.077.14-.028.25-.037.239-.021-.011.018.005.032.035.032s.055-.018.055-.04.025-.03.053-.019c.03.013.054.005.054-.012s.044-.032.097-.03c.205.007.452-.034.466-.077.01-.034.02-.034.043.002s.044.035.11-.009c.078-.052.085-.052.106.02.013.042.025.056.027.032m-2.585.987c.137.038.378.272.327.317l-.162.119-.13.096-.106-.107c-.093-.092-.13-.107-.267-.098-.087.006-.153.016-.144.025.01.007-.025.055-.073.107-.422.442-.158 1.249.27.82.14-.138.343-.172.407-.067.127.205-.773.645-.984.482-.641-.496.078-1.912.862-1.694M6.143 5.7c.283.18.057 1.327-.261 1.327-.089 0-.057.052.092.142.078.05.206.17.283.267l.138.178-.149.131c-.185.164-.17.165-.258-.014-.065-.137-.428-.482-.465-.444-.009.009 0 .085.02.172.019.085.042.252.053.37l.02.216-.16.077-.159.076-.003-.087c-.004-.05-.01-.101-.013-.115s-.02-.283-.033-.596a22 22 0 0 0-.04-.657 6 6 0 0 1-.014-.315c-.003-.191-.01-.22-.053-.184-.064.053-.084.02-.112-.2l-.023-.177.18-.078c.408-.176.767-.21.957-.089m-1.898.661c.075.355.345 1.324.464 1.661l.085.245-.158.09-.16.088-.033-.089a.6.6 0 0 1-.034-.138c0-.093-.078-.098-.245-.02l-.167.078.012.219c.014.22.013.22-.117.302-.183.117-.174.169-.188-1.253L3.69 6.256l.226-.092c.124-.052.234-.093.247-.094.01-.002.048.13.081.291m7.486.137c.08.302.4.412.757.263.204-.086.336-.07.453.057q.299.32-.44.707c-.217.113-.335.199-.383.279-.127.211-.47.314-.602.183-.135-.135.084-.382.368-.416.348-.04.894-.316.965-.485.097-.231-.055-.307-.404-.2-.4.125-.746-.003-.805-.296a2 2 0 0 0-.04-.176q-.017-.06.037-.062c.034 0 .07.055.094.146m-8.973.252c.269.123.34.78.128 1.208-.066.132-.048.206.052.206.07 0 .257.239.296.38.123.441-.083 1.099-.444 1.427-.167.151-.684.487-.709.46-.048-.046-.085-.579-.042-.602.039-.021.035-.081-.016-.34a97 97 0 0 1-.194-.987c-.142-.75-.137-.732-.208-.638-.04.057-.053.06-.067.016-.194-.599-.219-.51.213-.801.492-.329.78-.425.991-.329"/>
  <path d="M10.502 4.886c-.217.508-.63 2.214-.535 2.212.021-.001.15-.03.286-.065l.249-.063.037-.158c.046-.19.23-.264.23-.092 0 .186.015.194.301.131.336-.07.315-.016.252-.641-.03-.299-.055-.748-.055-1v-.457h-.709zm.629.258c-.008.254.035.93.085 1.35l.023.196-.164.037c-.191.044-.199.04-.199-.114 0-.245-.392-.165-.447.09-.03.15-.04.159-.201.2-.092.023-.169.035-.169.025 0-.06.306-1.207.42-1.57l.138-.445.21-.021c.328-.032.31-.048.304.252"/>
  <path d="M10.722 5.345a.5.5 0 0 0-.025.168c0 .08-.037.258-.085.395-.1.295-.1.295.094.268l.153-.02-.015-.248a10 10 0 0 0-.02-.338l-.013-.168c-.006-.079-.043-.104-.09-.057m-1.8-.484c-.422.086-.603.164-.603.26.002.28.05.556.098.556.042 0 .048.04.032.222a8 8 0 0 0-.029.47c-.002.155-.023.27-.055.306-.028.036-.059.183-.071.37l-.021.313.18-.023c1.01-.135 1.612-.79 1.266-1.376l-.075-.124.082-.128c.245-.389.13-.865-.218-.89-.048-.002-.132-.009-.187-.012a3 3 0 0 0-.4.056m.679.158c.238.125.133.674-.15.772-.108.037-.136.1-.044.1.336 0 .338.662.002.946-.19.162-.94.423-1.01.352-.031-.032.042-.375.08-.375.031 0 .05-.131.067-.453.014-.249.033-.565.046-.702.021-.23.02-.245-.036-.199-.078.064-.085.053-.1-.156l-.01-.176.32-.078c.38-.094.69-.105.835-.03"/>
  <path d="M8.86 5.348c-.178.016-.194.059-.041.112.078.027.103.055.09.1-.092.337-.067.373.176.263.17-.077.263-.194.263-.324 0-.172-.058-.19-.488-.15m.336.173c.014.043-.082.155-.134.155-.039 0-.046-.155-.009-.19.036-.036.127-.013.143.035m-.294.65c-.062.026-.076.066-.081.239a2 2 0 0 1-.027.27c-.037.126.27.039.437-.123.265-.256.03-.53-.329-.385m.285.14c.035.057-.022.147-.126.2l-.103.054v-.119c0-.156.158-.249.229-.135m-1.89-1.198-.65.182v.216c.002.308.036.49.091.471.034-.014.05.105.068.485.023.517.087 1.276.11 1.301.007.007.162-.052.343-.132.181-.078.416-.172.52-.207.214-.073.244-.121.233-.363-.003-.09-.009-.224-.01-.295l-.004-.131-.275.085c-.151.048-.28.087-.285.087s-.009-.032-.009-.073c0-.08.136-.15.365-.193.147-.029.149-.036.133-.551-.007-.24.002-.237-.453-.093-.059.02-.08.013-.08-.028 0-.071.144-.144.4-.2.112-.026.206-.063.208-.084.05-.633.05-.661-.004-.66-.028.002-.345.084-.702.183m.606.18c-.025.22-.01.208-.343.291l-.265.066-.016.217c-.023.279-.012.286.242.181.299-.123.3-.123.3.126 0 .14-.016.219-.044.226l-.267.076-.222.062v.244c0 .133.006.243.013.243.005 0 .105-.037.222-.085.4-.16.375-.165.362.087l-.01.22-.196.06a5 5 0 0 0-.432.171l-.234.107-.021-.156a17 17 0 0 1-.047-.903c-.023-.702-.026-.744-.088-.725-.057.018-.066-.002-.072-.142l-.008-.203c-.001-.023.184-.092.422-.156.235-.066.468-.133.516-.153.188-.076.211-.058.188.146m5.773-.254c-.135.327-.32 1.1-.398 1.658l-.02.15h.116c.064 0 .197-.01.297-.023l.183-.02.044-.2.046-.2.046.106a.6.6 0 0 1 .048.185c.002.119.055.13.333.062.383-.092.392-.139.149-.68l-.084-.185.372-.365c.202-.199.357-.374.343-.387a2.3 2.3 0 0 0-.5-.176c-.032 0-.133.075-.225.165l-.167.166.037-.15c.046-.184.062-.174-.28-.202l-.29-.025zm.497.048c.018.014-.143.398-.19.45-.053.058-.069.209-.023.209.016 0 .17-.144.347-.32s.344-.32.376-.32c.086 0 .286.077.274.105-.03.071-.617.57-.672.57-.094 0-.11.054-.035.121.067.06.234.405.288.59.028.098.023.103-.137.14-.231.056-.233.056-.263-.076-.07-.295-.315-.668-.284-.433.003.037-.016.18-.047.32l-.055.254-.163.02a.6.6 0 0 1-.18.01c-.026-.027.162-.905.28-1.304l.108-.377.185.018c.1.009.186.02.191.023m-8.537.979a.7.7 0 0 1-.204.034c-.162.001-.173.051-.024.104l.11.038-.012.357c-.014.41-.014.41.215.186.354-.34.29-.877-.085-.72m.153.186c.065.065.051.186-.038.298l-.08.101-.02-.193q-.04-.381.138-.206m-1.832.497c-.03.037-.034.085-.01.169.019.064.031.298.026.522-.004.222.003.404.018.404.053 0 .277-.121.277-.15 0-.016-.046-.192-.103-.392s-.118-.42-.134-.485c-.026-.102-.037-.112-.074-.068m-2.232.519c-.058.051-.089.083-.066.067.025-.016.055-.01.068.011q.024.04.071-.025c.027-.035.066-.066.085-.07.086-.008.09-.013.04-.047-.073-.046-.075-.046-.198.064m.434.206c-.094.05-.206.098-.245.105-.153.03-.146.083.017.124l.162.041.023.261c.014.144.016.28.002.299-.068.112.103.01.256-.151.444-.47.291-.95-.215-.679m.325.192c.009.083-.157.39-.21.39-.066 0-.073-.404-.009-.452.1-.071.206-.041.219.062m.02.545c-.022.027-.086.08-.143.123-.096.073-.097.076-.021.076.044.002.08-.016.08-.035 0-.021.016-.029.035-.016s.06-.002.09-.03.07-.059.093-.066c.052-.018.008-.1-.051-.098-.023 0-.06.022-.084.046m-.069.471c-.096.05-.18.098-.186.103a2.4 2.4 0 0 0 .048.325c.033.173.063.354.07.404.027.217.484-.165.537-.45.068-.364-.156-.547-.469-.382m.363.245c.033.137-.247.514-.326.438-.048-.05-.058-.477-.01-.514.128-.105.3-.066.336.076m-.056.606c-.087.086-.149.164-.14.174.023.022.316-.262.316-.305s-.001-.043-.176.131m10.985-.648c-.096.103-.102.165-.006.078.04-.036.082-.053.096-.04.034.033-.169.235-.236.234-.046 0-.044-.007.007-.038.062-.035.057-.184-.009-.257-.021-.022-.211.048-.275.101a1 1 0 0 0 .03.185c.04.172.04.185-.07.34-.133.193-.136.223-.035.278.082.043.087.04.196-.133.037-.06.042-.059.078.03.037.094.04.096.172.05.156-.054.156-.055.068-.28l-.068-.172.148-.15c.165-.17.172-.192.085-.258-.084-.064-.09-.062-.181.032m-.231.135c-.047.064-.047.089-.002.197.051.12.05.124-.082.277-.163.187-.197.18-.07-.014.102-.153.12-.28.056-.4-.04-.076.002-.133.103-.135.037 0 .036.016-.005.075m-.654-.146c-.265.03-.256.021-.261.197a4 4 0 0 1-.059.434c-.068.353-.085.332.233.282.243-.039.263-.048.28-.138.027-.133.011-.151-.122-.14-.066.007-.116-.006-.116-.027s.057-.04.127-.04c.11 0 .126-.012.145-.106.03-.15.023-.16-.094-.147-.059.005-.107-.007-.107-.027 0-.021.054-.04.121-.04.134 0 .182-.042.219-.186.026-.11.037-.108-.366-.062m.199.11c-.027.018-.096.032-.157.032s-.127.02-.15.043q-.043.045-.08.005c-.06-.058.035-.112.214-.126q.275-.018.173.046m-.35.418-.06.227c-.01.036-.029.055-.045.046-.03-.02.05-.456.096-.529.046-.076.053.087.009.256m.284-.139c0 .052-.07.082-.133.057-.052-.02-.053-.028-.007-.057.067-.042.14-.042.14 0m-.035.32c0 .046-.134.084-.183.052q-.045-.027.024-.054c.098-.037.159-.037.159.002m-.8-.66c-.24.108-.291.266-.211.648.02.1.012.112-.096.142-.144.04-.21.37-.075.37.38 0 .611-.365.489-.768-.02-.062-.006-.078.08-.096.092-.018.186-.181.186-.322 0-.04-.263-.021-.373.027m.231.051c0 .016-.064.056-.142.086-.158.062-.235.197-.196.346.08.31-.012.498-.247.498-.069 0 0-.107.087-.137.143-.05.162-.114.105-.347-.042-.18-.04-.2.027-.291.105-.142.366-.252.366-.155m-1.93 0a2 2 0 0 0-.131.208c-.096.174-.126.17-.16-.025-.012-.078-.04-.15-.059-.163-.044-.027-.286.158-.26.2.012.019-.013.19-.054.377-.084.39-.085.38.085.349.112-.022.128-.038.128-.126 0-.057.016-.104.036-.104s.035.03.035.07c0 .1.06.122.107.039.05-.094.105-.094.081-.002-.016.057-.001.071.066.071.142-.002.173-.048.249-.377.04-.174.098-.36.124-.414s.045-.097.04-.097-.061-.014-.123-.032c-.089-.027-.123-.02-.164.026m.112.068c-.096.211-.218.394-.293.433a.27.27 0 0 0-.114.118c-.012.042-.033.057-.055.035-.04-.04.027-.234.071-.208.018.011.1-.076.182-.191.12-.175.257-.295.21-.187m-.53.142-.089.311c-.084.313-.092.33-.114.27-.025-.066.102-.618.15-.652q.102-.074.053.071m.392.393a.3.3 0 0 1-.051.133c-.059.078-.082-.018-.034-.14.03-.077.085-.071.085.007m.676-.636c-.262.03-.288.051-.28.229.004.08-.02.272-.056.425a1.6 1.6 0 0 0-.05.29c.01.012.519-.052.55-.067a1 1 0 0 0 .031-.133l.025-.131-.151.021c-.108.014-.144.009-.126-.021.014-.023.073-.041.131-.041.082 0 .114-.022.14-.094.054-.139.024-.182-.11-.162-.08.01-.106.003-.09-.023.014-.023.082-.041.15-.041.113 0 .227-.133.227-.265 0-.023-.112-.018-.391.013m.202.097a.6.6 0 0 1-.156.048 1.3 1.3 0 0 0-.197.054c-.045.017-.063.009-.063-.03 0-.06.073-.086.285-.104.135-.01.165-.003.131.032m-.357.407a1.4 1.4 0 0 0-.059.23.1.1 0 0 1-.04.072c-.03.018-.034-.017-.016-.131.046-.295.094-.435.136-.393.027.027.022.089-.02.222m.296-.112c0 .045-.132.084-.181.054q-.043-.025.008-.055c.064-.041.173-.041.173.001m-.08.33c-.018.054-.169.083-.169.033 0-.038.059-.07.137-.073.025-.002.04.016.032.04m-2.308-.621c-.201.012-.205.014-.24.144-.055.195-.05.21.07.192.104-.014.106-.013.069.085-.047.123-.14.562-.14.656 0 .051.019.065.08.053.044-.007.111-.016.152-.018.062-.002.082-.048.137-.33.09-.45.108-.489.216-.489.09 0 .109-.027.176-.24.027-.087.023-.089-.52-.053m.398.076c0 .043-.132.073-.322.075-.089 0-.183.02-.208.044-.037.036-.044.03-.033-.026.016-.086.563-.176.563-.093m-.334.297c-.013.044-.054.197-.09.341-.077.292-.11.352-.11.197.003-.106.093-.53.129-.586.039-.066.092-.03.07.048m.566-.355a11 11 0 0 0-.178.766l-.025.152.102-.023c.055-.012.119-.026.142-.034.021-.007.057-.115.08-.241.02-.125.064-.306.092-.402.075-.247.071-.263-.073-.263-.067 0-.131.02-.14.045m.083.23a9 9 0 0 0-.105.365c-.055.215-.083.119-.033-.116.074-.346.11-.453.156-.453.036 0 .032.047-.018.205m-3.042-.16c-.273.035-.334.092-.277.268.01.037-.01.2-.05.364-.085.356-.106.329.22.28.228-.034.273-.052.29-.116.041-.153.027-.17-.112-.16-.076.007-.13-.004-.124-.023.004-.02.062-.041.13-.046.089-.01.126-.032.142-.09.037-.14.025-.166-.085-.166-.059 0-.107-.016-.107-.036s.062-.035.139-.035c.124 0 .142-.013.177-.112.068-.196.093-.187-.343-.128m.23.083c-.013.013-.091.036-.175.052s-.183.04-.22.055q-.07.028-.05-.023c.01-.027.056-.06.102-.073.112-.032.371-.04.343-.01m-.379.4a.4.4 0 0 0-.037.154c-.002.092-.057.197-.089.165-.023-.023.073-.476.116-.54.042-.066.053.144.01.222m.274-.094c-.018.053-.169.081-.169.032 0-.032.059-.059.155-.073.016-.002.023.016.014.04m-.036.32c-.018.054-.204.082-.204.032 0-.033.07-.063.172-.072.025-.002.041.016.032.04m.553-.71c-.073.112-.391.899-.372.92.054.053.247-.014.287-.1.04-.09.11-.083.11.013 0 .043.025.05.113.032.14-.028.123.032.146-.474l.021-.436h-.138c-.077 0-.151.02-.167.045m.178.05c.012.012-.015.05-.06.085s-.11.133-.145.218l-.119.288c-.067.164-.135.219-.1.082.088-.352.342-.755.424-.673m-.011.419c0 .144-.075.218-.167.167-.06-.034-.06-.037-.004-.06.034-.013.073-.077.086-.144.026-.148.085-.125.085.037m.416-.487c-.095.16-.203.917-.132.91.348-.04.395-.055.428-.142.059-.153.043-.196-.064-.183-.117.012-.117-.064-.005-.39a3 3 0 0 0 .068-.21c0-.024-.281-.01-.295.015m.04.384c-.095.41-.108.444-.127.357-.018-.073.083-.53.14-.638.066-.124.062-.034-.013.28m-2.375-.307c-.126.022-.21.26-.112.32.021.013-.009.17-.076.402-.06.21-.103.389-.095.396.048.046.3-.037.311-.101.025-.151.04-.17.096-.125.03.025.054.075.054.11 0 .073.056.084.245.045.13-.025.135-.057.039-.243l-.071-.14.103-.107c.393-.416.165-.674-.494-.557m.522.095c.007.024-.062.037-.193.035-.112 0-.25.01-.302.025-.12.034-.135-.032-.018-.08.105-.043.497-.028.513.02m-.504.431c-.073.29-.162.507-.185.448-.016-.046.115-.552.174-.663.066-.124.071-.026.01.215m.328-.215q.021.061-.064.128c-.1.082-.139.018-.07-.113.048-.09.103-.095.134-.015m.152-.02c0 .129-.31.42-.392.37-.06-.039-.036-.074.092-.135a.5.5 0 0 0 .187-.167c.06-.108.113-.138.113-.067"/>
</svg>