<svg xmlns="http://www.w3.org/2000/svg" width="16" height="16" fill="currentColor" class="bi bi-bbrt-alt" viewBox="0 0 16 16">
  <path d="M15.166 3.195a8 8 0 0 1-.617.105c-.107.016-.26.041-.336.056-.075.014-.163.025-.191.025s-.117.01-.192.025a9 9 0 0 1-.533.082c-.136.016-.288.04-.53.08-.477.081-.691.115-.856.135-.064.009-.172.023-.241.035-.263.043-.437.072-.626.099l-.286.045a3 3 0 0 1-.18.026 4 4 0 0 0-.232.036c-.157.027-.377.061-.474.073a11 11 0 0 0-.527.081c-.05.009-.15.025-.224.034s-.179.023-.232.034a8 8 0 0 1-.492.073 2 2 0 0 0-.213.036c-.091.025-.088.025-.977-.063l-.58-.053a24 24 0 0 1-.54-.054 4 4 0 0 0-.312-.027c-.054 0-.193-.01-.311-.025s-.36-.04-.537-.055-.399-.038-.492-.048l-.366-.033a11 11 0 0 1-.376-.032 18 18 0 0 0-.787-.075 9 9 0 0 1-.384-.036 9 9 0 0 0-1.172-.078c-.374-.002-.436.003-.486.03a.3.3 0 0 1-.086.03 1 1 0 0 0-.147.058c-.173.085-.306.225-.413.44a.95.95 0 0 0-.11.61c.022.185.065.436.097.582l.054.25a27 27 0 0 0 .215 1.002c.03.147.06.283.105.48.03.132.07.311.108.495l.055.268.054.25c.014.065.028.155.034.2s.026.12.048.17c.02.048.045.139.054.203.017.136.057.35.084.465l.048.224c.016.079.041.184.055.234s.025.106.025.123.013.074.027.124.043.163.065.252c.062.252.077.295.14.427.092.19.303.387.525.492.116.054.138.058.384.066.331.013.81-.021 1.265-.09.09-.015.257-.038.376-.054s.282-.042.366-.056.175-.025.202-.025.108-.01.18-.025c.07-.012.224-.037.343-.054s.287-.04.375-.055l.349-.054.349-.053.375-.054c.118-.016.26-.038.313-.046.054-.011.16-.026.234-.034a2 2 0 0 0 .215-.04c.057-.018.21-.023.58-.021.472 0 .753.016 1.547.087.162.016.343.027.402.027.06 0 .206.013.322.027.118.014.272.027.34.027.07 0 .198.009.286.02.09.008.274.025.411.034.138.007.356.023.483.033.129.011.422.03.653.047s.526.041.655.057c.13.015.323.023.429.02.311-.01.415-.079.574-.386a.6.6 0 0 0 .059-.145.1.1 0 0 1 .02-.05c.02-.02.103-.261.17-.489a3 3 0 0 1 .053-.157c.015-.032.025-.073.025-.093s.011-.066.025-.102c.013-.038.038-.116.054-.175l.055-.197.083-.295a10 10 0 0 1 .078-.277l.05-.17c.045-.167.088-.31.111-.385.013-.04.036-.123.054-.188.016-.064.041-.148.054-.187s.035-.124.053-.188.041-.149.054-.188.036-.118.052-.175c.014-.056.04-.145.055-.197l.056-.2c.016-.06.039-.134.053-.167s.025-.078.025-.101.011-.07.025-.102a2 2 0 0 0 .052-.158c.016-.053.041-.143.058-.197s.04-.143.055-.196c.016-.054.036-.124.046-.152.01-.03.025-.086.033-.127a1 1 0 0 1 .034-.117c.009-.023.03-.09.046-.15l.057-.197c.013-.05.038-.132.052-.182l.056-.197.052-.184c.013-.044.035-.132.051-.197l.054-.205c.1-.363.082-.498-.091-.676-.15-.158-.324-.202-.562-.145m.247.465c.104.05.141.155.084.232-.014.018-.027.065-.027.102s-.02.127-.04.197a3 3 0 0 0-.062.2c-.01.04-.035.117-.055.17s-.045.16-.056.233a2.3 2.3 0 0 1-.186.654.7.7 0 0 0-.084.261.1.1 0 0 1-.026.068q-.027.023-.027.12c0 .054-.011.118-.024.145s-.039.113-.055.191c-.018.08-.043.169-.055.199s-.03.095-.038.143a.5.5 0 0 1-.114.267c-.038.033-.049.123-.018.143.028.017.021.04-.015.051q-.032.011-.064.124l-.046.166a.3.3 0 0 0-.018.093c0 .02-.01.043-.018.048q-.017.012-.002.04c.01.02 0 .052-.036.105l-.052.075-.148.011c-.08.006-.358.013-.615.018a4 4 0 0 0-.492.023c-.03.018-.118.024-.47.029-.283.004-.287.004-.292-.036-.007-.046.06-.1.318-.252.204-.122.378-.292.462-.452.064-.13.068-.169.032-.31-.043-.16-.132-.293-.225-.333-.068-.028-.068-.07 0-.17a.4.4 0 0 0 .053-.089.3.3 0 0 1 .043-.068 1 1 0 0 0 .075-.127c.032-.07.032-.07-.009-.102a.15.15 0 0 0-.086-.034.3.3 0 0 1-.093-.027.7.7 0 0 0-.168-.037l-.116-.013-.068.09c-.129.163-.21.198-.284.121-.047-.044-.049-.051-.041-.22.005-.146.012-.187.055-.271a.6.6 0 0 1 .213-.244c.105-.055.172-.018.238.13.018.044.037.078.044.078.067 0 .417-.247.489-.344l.037-.048-.046-.095a.67.67 0 0 0-.317-.302c-.107-.052-.134-.057-.306-.059-.173-.002-.198.004-.325.057-.075.03-.15.057-.165.057s-.044.024-.068.054c-.021.029-.053.054-.07.054-.042 0-.11.093-.185.256-.111.24-.18.511-.197.78-.01.18-.02.203-.106.314-.055.07-.055.072-.055.286 0 .2.003.218.043.272.025.032.053.06.064.06s.047.019.077.042a.6.6 0 0 0 .161.072c.193.059.21.071.157.14q-.024.035-.155.053a.53.53 0 0 0-.354.159c-.113.097-.25.279-.254.334a.6.6 0 0 1-.057.138c-.042.077-.068.107-.095.11a.15.15 0 0 0-.077.04c-.03.03-.06.038-.165.038a.8.8 0 0 1-.198-.022c-.054-.016-.079-.016-.104 0q-.036.022-.046.002c-.011-.02-.03-.018-.267.02-.097.016-.141.016-.191-.002a.25.25 0 0 0-.126-.007 1.5 1.5 0 0 1-.255.01 2 2 0 0 0-.496.049c-.057.014-.075.013-.114-.018-.045-.036-.048-.036-.111-.005a.64.64 0 0 1-.383.021c-.053-.023-.078-.025-.125-.009a2 2 0 0 1-.399.022l-.34.002-.005-.149c-.004-.107-.01-.147-.027-.141-.04.012-.066.091-.066.195 0 .114-.009.121-.116.102-.129-.025-.238-.02-.263.016-.032.043-.202.053-.217.012-.014-.034-.082-.034-.134 0a.23.23 0 0 1-.114.027c-.256-.003-.99.088-1.129.141-.068.027-.16.025-.152-.001a.6.6 0 0 1 .15-.097q.142-.075.147-.11a2 2 0 0 0-.021-.255c-.038-.293-.022-.315.102-.146.04.057.103.16.137.232.067.136.093.152.158.097.295-.256.415-.372.415-.403 0-.06-.186-.349-.345-.536l-.067-.08.108-.226c.059-.124.107-.238.107-.254 0-.014.009-.043.02-.063.028-.053.07-.315.07-.44 0-.273-.11-.474-.305-.563-.105-.047-.368-.05-.536-.007-.306.08-.528.168-.639.254-.053.039-.059.053-.059.134 0 .164.095.517.161.595.045.054.045.056.056.483.01.431.026.646.08 1.106.016.136.025.259.018.273-.007.02-.04.027-.125.027h-.115l-.03-.086a1 1 0 0 1-.04-.137.5.5 0 0 0-.033-.111.3.3 0 0 1-.025-.084.3.3 0 0 0-.025-.086 4 4 0 0 1-.11-.354 16 16 0 0 1-.207-.77c-.01-.044-.027-.109-.034-.143a10 10 0 0 0-.134-.518 1 1 0 0 1-.03-.125q-.012-.085-.131-.029c-.032.016-.073.029-.09.029s-.051.01-.076.025a1 1 0 0 1-.13.055c-.187.072-.226.095-.24.147-.008.027-.02.508-.026 1.07-.012 1.135-.009 1.11-.136 1.178-.075.041-.096.028-.155-.091a1.3 1.3 0 0 0-.143-.193c-.11-.119-.118-.149-.086-.26.166-.56.032-1.159-.293-1.313-.169-.08-.524.02-.891.253-.038.021-.072.04-.077.04-.014 0-.236.17-.313.24l-.148.126c-.085.068-.086.073-.076.143a1 1 0 0 0 .036.127c.013.028.04.105.061.17.08.252.148.44.168.461.01.014.038.021.06.016.046-.009.046-.01.078.174.02.12.009.144-.056.121a1 1 0 0 0-.191-.03c-.129-.011-.15-.018-.165-.052a.2.2 0 0 0-.051-.072c-.027-.025-.038-.055-.038-.11 0-.043-.007-.081-.016-.086a.8.8 0 0 1-.057-.25.2.2 0 0 0-.027-.08.2.2 0 0 1-.018-.128q.01-.065-.016-.1c-.014-.018-.027-.063-.027-.099s-.01-.075-.025-.086C1 7.128.983 7.065.978 6.994a1 1 0 0 0-.034-.19c-.02-.055-.018-.07.009-.118q.051-.088-.021-.086c-.072.002-.06-.021-.025-.057.026-.03.026-.034 0-.065a.13.13 0 0 1-.03-.082.2.2 0 0 0-.044-.1C.8 6.253.79 6.217.78 6.062a.7.7 0 0 0-.034-.21.3.3 0 0 1-.025-.112.3.3 0 0 0-.03-.129C.677 5.59.655 5.52.643 5.455S.61 5.328.6 5.315s-.022-.047-.022-.072l-.016-.208c-.014-.197-.014-.175 0-.307.01-.083.025-.122.056-.15.023-.022.043-.062.043-.087s.023-.068.059-.102l.118-.13c.032-.041.073-.073.09-.073s.062-.013.096-.027c.05-.02.14-.027.382-.027.288 0 .322.004.363.036.06.046.127.044.186-.002l.049-.038.082.058.082.059.208-.02c.171-.018.236-.016.36.005.083.015.267.04.41.054l.346.038c.053.007.095.003.107-.01.029-.028.093-.024.118.006s.091.04.54.071c.254.018.342.03.38.054a.16.16 0 0 0 .087.027c.023-.004.052 0 .064.009.015.009.038.002.06-.018.033-.03.035-.03.062.007s.04.04.34.04c.257 0 .32.005.356.028a.16.16 0 0 0 .1.022c.03-.006.16.001.288.014.15.014.248.016.277.005.066-.025.261-.02.3.01.02.012.095.028.167.035a1.4 1.4 0 0 1 .21.032c.062.016.087.016.128-.003.068-.033.198-.034.223-.004.018.02.092.021.389.014.763-.023 1.015-.046 1.294-.12.131-.033.544-.071.916-.082.236-.005.386-.018.403-.03.08-.06.127-.07.386-.084.152-.007.315-.027.366-.041a1 1 0 0 1 .297-.029c.188 0 .21-.004.262-.043.05-.037.087-.045.334-.063.245-.017.28-.023.302-.055s.045-.036.233-.036c.146-.002.22-.009.252-.027a.4.4 0 0 1 .148-.026c.067 0 .12-.011.149-.03.037-.024.053-.026.08-.01q.073.047.12-.016c.041-.05.284-.071.347-.03.04.025.047.025.08-.004a.5.5 0 0 1 .18-.052c.076-.012.193-.035.26-.05a.8.8 0 0 1 .235-.02c.071.008.123.002.134-.008.03-.03.16-.067.243-.067.107-.001.369-.046.424-.071.036-.016.056-.018.072-.004s.035.011.068-.005c.057-.032.073-.032.14.002M12.85 4.706c.13.036.313.202.311.284 0 .034-.026.065-.116.131-.063.046-.127.09-.141.097-.018.005-.065-.025-.125-.083l-.097-.09h-.279l-.073.085c-.265.306-.319.728-.118.928.048.048.071.06.134.057.078 0 .123-.025.266-.144.124-.104.26-.126.342-.054.052.046.036.105-.054.198-.084.084-.288.217-.336.217-.014 0-.029.007-.034.016-.023.036-.234.095-.356.096-.109.004-.138-.003-.188-.039-.114-.08-.196-.245-.218-.438a1.1 1.1 0 0 1 .038-.44c.12-.399.38-.705.704-.817a.8.8 0 0 1 .34-.004m-6.734.753c.115.057.163.166.176.381.003.095-.002.204-.013.26l-.037.19c-.03.181-.149.421-.249.501a.12.12 0 0 1-.066.024q-.071.001-.052.059a.7.7 0 0 0 .127.11c.11.081.34.323.383.403.02.038.01.05-.11.163a1.3 1.3 0 0 1-.148.123c-.021 0-.1-.071-.1-.093s-.127-.197-.204-.279a2 2 0 0 0-.159-.141c-.113-.084-.136-.066-.104.08.022.097.072.505.074.587 0 .03-.03.054-.131.104-.073.035-.14.064-.15.064s-.023-.027-.03-.059a7 7 0 0 1-.049-.71 6 6 0 0 0-.02-.402 11 11 0 0 1-.028-.465l-.013-.304-.05-.006c-.066-.007-.093-.073-.109-.26l-.01-.137.076-.036c.354-.159.483-.193.728-.195.163-.001.2.004.268.038m-1.89.5c.016.053.041.15.057.215l.056.242c.014.068.039.16.052.21.014.05.037.135.05.189a15 15 0 0 0 .325 1.101 1 1 0 0 1 .036.117c.01.059.007.062-.118.136-.152.09-.19.096-.206.026-.045-.202-.053-.218-.132-.218a.5.5 0 0 0-.18.057l-.115.06-.006.214c-.005.238-.018.265-.155.338-.056.03-.068.032-.088.01-.04-.04-.062-.546-.073-1.609-.007-.758-.006-.964.012-.987.013-.016.068-.047.122-.068s.123-.05.152-.063a.6.6 0 0 1 .163-.06c.01-.002.032.04.048.09m7.454.251c.017.032.043.09.06.129.042.098.11.182.187.229.056.036.088.041.244.04a.9.9 0 0 0 .32-.05c.182-.062.25-.062.356.005.094.06.155.162.155.262 0 .158-.26.389-.662.59-.034.019-.13.103-.214.187-.217.22-.365.29-.524.243-.19-.054-.16-.252.06-.392.049-.03.3-.102.362-.102a.3.3 0 0 0 .091-.027c.027-.014.063-.026.077-.026s.048-.011.073-.025l.174-.085c.15-.073.311-.19.363-.26.057-.083.068-.185.025-.239-.032-.04-.048-.044-.161-.042a1 1 0 0 0-.22.035c-.145.05-.481.047-.58-.005-.143-.075-.22-.199-.26-.406-.024-.125.024-.163.074-.06m-8.953.32c.127.035.202.123.272.312.025.07.032.142.032.356-.002.274-.023.404-.093.533a.4.4 0 0 0-.028.134c-.004.079 0 .086.059.115.082.04.198.171.26.297.05.098.053.11.054.379q0 .275-.023.347a.5.5 0 0 0-.023.107.3.3 0 0 1-.027.09.2.2 0 0 0-.027.071c0 .03-.118.258-.171.33a1.6 1.6 0 0 1-.276.29 3 3 0 0 1-.35.25.3.3 0 0 0-.067.042c-.068.052-.187.104-.196.086-.052-.09-.077-.547-.032-.6q.022-.03.014-.105a5 5 0 0 0-.08-.55 1.2 1.2 0 0 1-.076-.285 10 10 0 0 0-.053-.297c-.022-.109-.047-.245-.056-.304s-.021-.12-.027-.134-.016-.071-.025-.125a1 1 0 0 0-.043-.168l-.028-.07-.043.04c-.034.032-.045.033-.063.014a2.3 2.3 0 0 1-.145-.46c0-.054.043-.123.118-.184.063-.052.397-.281.412-.281.005 0 .068-.034.137-.077.14-.082.206-.11.344-.147a.4.4 0 0 1 .25-.007m11.157 2.154c.027.025.048.06.048.078 0 .027-.05.11-.09.145l-.087.095c-.071.08-.077.093-.066.16a.4.4 0 0 0 .036.108.4.4 0 0 1 .037.125c.011.068.007.093-.018.12-.017.02-.043.036-.057.036a.2.2 0 0 0-.068.029c-.052.034-.109.01-.134-.058-.023-.06-.077-.053-.127.018-.055.083-.096.106-.141.083-.095-.05-.084-.145.036-.324.07-.106.073-.118.066-.211a1 1 0 0 0-.032-.175c-.022-.068-.02-.08.012-.115a.4.4 0 0 1 .21-.105c.067 0 .092.044.089.162 0 .06.003.106.009.106.007 0 .043-.03.08-.064.072-.067.079-.12.014-.102-.055.014-.048-.034.015-.1.062-.069.104-.07.168-.011m-.712.009c.045.016.045.02.018.07-.014.03-.027.066-.027.08s-.025.046-.055.071a.18.18 0 0 1-.134.047c-.058 0-.08.007-.08.027q.001.027.053.027c.095 0 .109.014.109.105 0 .111-.045.163-.143.163-.038 0-.075.009-.08.018-.015.023.07.055.107.043.08-.033.112.136.04.212-.048.052-.22.092-.39.093h-.115l.001-.098c.002-.116.034-.358.072-.519a1 1 0 0 0 .025-.193c0-.071.004-.078.068-.105.037-.016.147-.034.254-.041l.21-.015a.2.2 0 0 1 .067.015m-.688.078a.3.3 0 0 1-.092.226c-.037.039-.08.071-.095.071-.044 0-.051.034-.048.267.004.177-.002.232-.023.26a.13.13 0 0 0-.029.063c0 .04-.157.192-.241.233-.086.043-.227.048-.267.007-.021-.02-.025-.046-.017-.102a.3.3 0 0 1 .026-.091.1.1 0 0 0 .016-.045c0-.03.085-.109.117-.109.012 0 .035-.016.052-.034.026-.03.028-.05.012-.172q-.041-.29.009-.39c.036-.07.114-.155.143-.155.01 0 .03-.01.041-.025.025-.03.083-.047.226-.063.125-.014.17.002.17.06m-1.853.012c.037.012.071.032.077.043.003.012-.006.057-.022.1s-.037.11-.046.15a.3.3 0 0 1-.036.09c-.01.009-.016.037-.016.064s-.013.091-.029.143c-.088.297-.116.338-.234.338-.066 0-.08-.007-.095-.045-.021-.053-.043-.057-.077-.009s-.082.029-.096-.037c-.015-.077-.054-.063-.065.023a.2.2 0 0 1-.037.097c-.034.023-.186.048-.21.032-.021-.013-.02-.179.004-.263.009-.036.025-.125.034-.197.025-.182.059-.323.086-.357.028-.034.18-.138.204-.138s.085.138.085.19c0 .053.045.114.085.114.012 0 .023-.016.023-.034 0-.02.007-.04.016-.047a.3.3 0 0 0 .059-.09c.045-.092.166-.212.198-.198zm.826-.01c.03.079-.091.242-.18.242a.12.12 0 0 0-.087.046c-.021.027-.062.07-.09.098-.047.043-.05.052-.024.063q.073.026.09-.06c.012-.065.07-.085.13-.046.052.034.052.042.007.131-.027.054-.057.08-.125.11q-.09.037-.09.07c0 .031.004.031.063.006.104-.043.134-.034.134.036q0 .156-.06.197c-.044.026-.457.071-.503.051-.034-.012-.034-.107-.002-.186.029-.07.066-.322.077-.516.009-.145.046-.215.12-.215a.6.6 0 0 0 .118-.025c.114-.038.41-.038.422-.002m-2.105.106c.052.062-.063.297-.147.297-.098.001-.152.12-.213.473-.009.06-.028.14-.043.18a.5.5 0 0 0-.025.101c0 .043-.077.084-.182.097-.134.016-.15-.006-.122-.166l.034-.212a1 1 0 0 1 .034-.139.3.3 0 0 0 .022-.104c0-.03.012-.077.027-.105.025-.049.025-.054-.01-.072a.13.13 0 0 0-.076-.009q-.041.011-.066-.018c-.024-.028-.015-.077.04-.229.033-.09.122-.112.498-.118.16-.001.213.004.229.024m.374.059a.3.3 0 0 1-.022.128c-.016.029-.028.077-.028.106s-.011.093-.025.14a5 5 0 0 0-.058.23.8.8 0 0 1-.055.183c-.029.048-.14.098-.202.09-.043-.005-.045-.008-.038-.128.004-.068.014-.148.023-.179.011-.03.025-.091.034-.136.034-.19.065-.315.084-.352a.2.2 0 0 0 .022-.07q0-.1.16-.093l.1.006zm-2.263.327c-.007.506-.034.588-.195.59-.04 0-.06-.01-.075-.045-.028-.06-.057-.055-.143.027-.134.127-.275.113-.232-.023a.6.6 0 0 1 .042-.106.2.2 0 0 0 .025-.08.13.13 0 0 1 .027-.066c.015-.02.027-.054.027-.077s.013-.047.027-.052c.014-.007.027-.029.027-.05s.012-.055.027-.075c.014-.018.026-.05.026-.072s.027-.087.06-.15c.071-.138.139-.182.271-.175l.09.005zm.547-.333c.022.025.002.177-.032.238-.021.04-.073.238-.073.28 0 .044.064.101.116.101.041 0 .045.007.045.08 0 .113-.063.18-.206.215-.129.032-.23.034-.254.004-.028-.038-.027-.215.002-.326a1 1 0 0 0 .029-.179c0-.132.094-.375.159-.41.059-.033.188-.035.214-.003m-1.117.02c.028.021.032.034.014.066-.01.023-.025.06-.03.08s-.036.061-.067.086c-.044.038-.068.045-.112.038q-.058-.011-.079.013-.036.046.047.048.11.002.112.09c0 .07-.082.16-.16.176-.088.018-.08.045.017.056l.08.009.006.09c.007.133-.014.146-.365.208a.5.5 0 0 1-.155.008c-.058-.015-.08-.08-.047-.14.036-.066.073-.277.08-.47.006-.099.013-.197.017-.219.012-.057.162-.13.271-.132.047 0 .118-.007.158-.014.11-.023.175-.022.213.007m-.98.063c.075 0 .203.144.203.23 0 .054-.09.222-.18.336-.102.13-.102.138-.023.305.076.162.057.193-.14.212-.095.01-.12.006-.145-.02-.016-.015-.03-.039-.03-.051 0-.027-.086-.111-.099-.097a.2.2 0 0 0-.02.061c-.014.075-.069.127-.18.161-.086.027-.1.027-.123.004-.022-.022-.024-.043-.01-.124a2.4 2.4 0 0 1 .087-.349c.034-.064.062-.305.043-.345a.3.3 0 0 1-.02-.107c0-.06.012-.088.064-.145.061-.068.068-.07.192-.077.071-.003.177-.005.234-.002s.123.008.147.008m-2.782.744c-.021.026-.037.037-.037.026 0-.03.06-.109.068-.089.003.009-.01.038-.03.063"/>
  <path d="M10.586 4.52c-.043.01-.177.326-.213.499a1 1 0 0 1-.032.116l-.045.142c-.014.053-.04.143-.053.196a2 2 0 0 0-.038.143q-.013.07-.075.295c-.03.115-.068.285-.104.466-.102.525-.104.518.032.502.05-.007.125-.025.168-.04a.5.5 0 0 1 .113-.024.3.3 0 0 0 .098-.029c.047-.023.065-.045.08-.104a.7.7 0 0 1 .103-.22c.036-.035.129-.03.13.008.008.11.02.16.05.19.033.031.043.033.158.012.191-.033.324-.074.356-.11.037-.04.037-.302 0-.606a12 12 0 0 1-.052-1.114c-.004-.245-.009-.304-.03-.317a4 4 0 0 0-.646-.005m.506.152c.025.02.03.09.038.453.009.413.025.67.07 1.055.035.318.04.295-.094.334-.193.056-.204.05-.25-.14-.021-.09-.079-.12-.19-.103-.064.009-.093.027-.159.1-.045.05-.08.106-.08.125a.2.2 0 0 1-.13.183c-.117.043-.228.055-.228.027 0-.036.045-.235.09-.401l.107-.411c.021-.08.046-.172.053-.206s.022-.091.033-.125.032-.111.048-.17.037-.133.048-.161l.043-.143.054-.18c.014-.05.032-.11.037-.137s.022-.059.038-.071c.048-.041.427-.063.472-.029"/>
  <path d="M10.706 5.155a1 1 0 0 0-.011.13c-.002.106-.05.306-.14.562-.026.073-.026.079.006.102.04.03.238.014.275-.021.024-.022.022-.076-.009-.414-.032-.37-.035-.39-.071-.395q-.038-.006-.05.036m-1.567-.563c-.415.078-.508.102-.653.16-.138.058-.152.081-.152.26 0 .188.043.4.093.454.032.038.034.052.014.42-.017.367-.04.557-.075.6-.025.034-.068.33-.071.502l-.006.158.117-.006c.127-.003.329-.045.483-.095.134-.044.388-.17.466-.232a.3.3 0 0 1 .084-.052c.034 0 .217-.215.28-.327.125-.226.125-.437 0-.685-.067-.133-.067-.149.008-.263a.7.7 0 0 0 .111-.317c.04-.316-.064-.524-.288-.568a.95.95 0 0 0-.411-.01m.381.176c.1.03.134.06.177.157.04.088.04.226-.002.349-.036.113-.16.266-.247.3-.105.045-.094.113.017.115.096 0 .193.182.193.361 0 .19-.095.426-.222.556s-.569.324-.882.387c-.105.021-.143.012-.157-.034-.013-.04.05-.285.086-.344.04-.062.066-.212.066-.386 0-.086.012-.3.027-.477.026-.331.034-.528.018-.528a.2.2 0 0 0-.045.021c-.057.036-.074-.001-.077-.18l-.004-.167.134-.032.215-.055c.25-.066.563-.086.703-.043"/>
  <path d="M8.928 5.116c-.211.028-.238.062-.102.128.097.049.107.07.072.167a.4.4 0 0 0-.024.154l.006.078.075-.003c.257-.011.504-.347.356-.487-.052-.048-.2-.062-.383-.037m.243.164q.05.051-.023.122c-.036.034-.054.04-.077.025-.066-.041-.038-.168.038-.168.023 0 .05.009.062.021m-.2.664c-.116.035-.141.087-.152.327-.013.254-.005.283.073.266a.9.9 0 0 0 .31-.155c.066-.057.152-.191.152-.238a.3.3 0 0 0-.036-.098c-.057-.113-.186-.15-.347-.102m.2.141c.013.012.022.041.022.066 0 .057-.133.184-.186.177-.034-.005-.038-.014-.033-.093.002-.062.017-.102.043-.13.042-.045.12-.054.154-.02m4.523-1.356c-.046.072-.157.42-.236.744l-.044.18-.036.16c-.007.045-.032.165-.052.268a5 5 0 0 0-.057.365c-.022.2-.018.208.1.208.102 0 .442-.05.46-.068a.4.4 0 0 0 .032-.116c.016-.108.052-.195.078-.199.02-.002.079.177.08.24a.14.14 0 0 0 .024.068c.029.028.138.026.229-.006a.5.5 0 0 1 .114-.027c.076 0 .222-.084.254-.144.03-.056.03-.065-.001-.16a6 6 0 0 0-.13-.336l-.1-.236.344-.349c.27-.273.344-.356.338-.388-.003-.03-.036-.052-.14-.095a2 2 0 0 0-.235-.078c-.1-.025-.104-.024-.17.021a2 2 0 0 0-.165.136c-.11.104-.136.113-.118.041.005-.027.016-.077.022-.114.012-.097-.03-.115-.292-.129a2 2 0 0 1-.243-.02c-.016-.007-.04.007-.056.034m.372.117c.097.02.086.078-.073.4q-.117.235-.059.274c.012.007.134-.1.292-.256.293-.291.4-.38.45-.38.061 0 .208.06.224.094.014.027.002.048-.079.125-.243.234-.481.428-.58.469-.032.014-.058.03-.058.037s.035.068.078.14c.13.209.242.472.244.577 0 .05-.01.063-.06.084-.094.04-.27.054-.293.026a1 1 0 0 1-.059-.154c-.021-.07-.046-.134-.055-.14s-.016-.021-.016-.037c0-.05-.126-.238-.161-.238-.027 0-.034.021-.043.137a2.5 2.5 0 0 1-.083.446c-.012.03-.039.043-.13.059-.224.04-.249.023-.2-.134a.7.7 0 0 0 .026-.142c0-.053.036-.227.083-.395.014-.05.025-.105.025-.123s.01-.074.025-.124.04-.143.055-.207c.043-.172.074-.28.116-.426l.04-.129.12.002c.064.002.143.007.171.015m-6.116-.13a4 4 0 0 0-.331.087c-.045.012-.133.037-.197.053-.064.018-.148.041-.188.054s-.118.036-.175.052c-.24.066-.31.087-.347.102-.04.014-.041.023-.041.27 0 .272.014.356.07.415.05.055.07.2.09.678.012.232.024.434.028.447.003.01.016.152.026.31s.027.312.036.337c.027.068.054.065.317-.055.05-.024.098-.043.105-.043s.045-.016.086-.034c.066-.03.242-.104.431-.177a.3.3 0 0 0 .111-.074c.038-.044.04-.062.041-.363 0-.177-.007-.32-.016-.327-.009-.005-.045.002-.077.016a3 3 0 0 1-.166.056 2 2 0 0 0-.166.055c-.067.029-.122.032-.136.009-.006-.009 0-.041.014-.073.027-.067.11-.11.302-.16.168-.042.172-.051.174-.39 0-.273-.015-.35-.068-.371-.029-.011-.211.034-.303.073-.082.037-.148.032-.148-.009 0-.036.106-.127.148-.127.015 0 .05-.013.077-.027a.3.3 0 0 1 .097-.028c.025 0 .093-.02.152-.042l.107-.039.02-.204c.032-.322.03-.443-.005-.461a.13.13 0 0 0-.068-.01m-.049.332c.008.198-.018.23-.21.284-.074.02-.18.048-.233.064l-.12.034c-.029.008-.045.133-.038.3.008.17.029.196.127.15a.3.3 0 0 1 .084-.031.2.2 0 0 0 .06-.022.6.6 0 0 1 .196-.068c.049 0 .07.085.063.233-.01.16-.036.211-.122.225-.034.006-.09.022-.121.036s-.074.025-.093.025-.068.013-.108.029l-.071.028v.24c0 .182.005.24.023.24.013 0 .107-.034.21-.077.234-.097.276-.108.325-.082.036.02.036.03.027.19-.008.133-.018.178-.043.201-.018.016-.11.056-.204.086s-.249.091-.344.136c-.212.1-.25.11-.279.075-.023-.027-.053-.52-.084-1.379-.01-.311-.028-.384-.087-.384-.041 0-.063-.077-.063-.215 0-.11.004-.127.043-.152.054-.036.211-.095.306-.114l.125-.034c.03-.011.102-.033.161-.049s.134-.04.166-.055.072-.025.09-.025c.016-.002.05-.013.075-.027s.064-.025.09-.022c.042.004.044.008.05.16m-2.263.81a1.2 1.2 0 0 1-.26.043c-.08.003.018.109.1.109.058 0 .069.066.056.349-.014.291-.007.366.036.366.038 0 .225-.188.288-.286.19-.3.134-.62-.107-.606-.011 0-.061.012-.113.025m.188.236c.023.063.025.086.005.143-.029.086-.084.156-.116.143-.029-.012-.047-.093-.047-.225 0-.113.024-.149.088-.142.032.004.05.024.07.08M3.98 6.58c-.005.016-.004.11.007.209s.018.325.018.502c0 .394 0 .394.16.312.119-.063.139-.099.112-.195l-.048-.181-.056-.206-.05-.178c-.071-.26-.086-.296-.109-.296-.013 0-.029.015-.034.033m-2.152.449c-.094.067-.103.085-.059.109.03.016.047.012.092-.025a.2.2 0 0 1 .071-.047c.025 0 .013-.075-.012-.084-.011-.004-.052.018-.092.047m.523.196a2 2 0 0 0-.188.077 4 4 0 0 1-.188.082c-.127.052-.12.09.023.14a.7.7 0 0 1 .133.057c.012.013.023.136.028.299.006.168.016.277.027.277.04 0 .202-.141.283-.249a.95.95 0 0 0 .196-.4c.017-.09.015-.113-.014-.168q-.091-.187-.3-.115m.134.199c.052.052.045.098-.04.268-.076.15-.125.195-.159.14-.021-.034-.02-.333.004-.374.037-.07.141-.088.195-.034m.053.617a1 1 0 0 1-.1.084c-.071.048-.086.114-.02.093.095-.03.244-.107.267-.14.02-.03-.02-.082-.064-.082-.022 0-.06.02-.083.045m.052.43c-.105.028-.264.114-.286.153-.018.034.002.204.047.4.014.06.028.15.035.203.02.173.06.21.176.166.059-.023.227-.19.288-.286a.58.58 0 0 0 .078-.47c-.023-.078-.121-.176-.175-.176a.3.3 0 0 1-.057-.007.3.3 0 0 0-.106.016m.195.218c.056.061.05.145-.016.276-.09.18-.21.273-.263.207-.025-.028-.037-.286-.021-.397.012-.088.037-.114.125-.136.068-.016.13 0 .175.05m.022.66c-.097.093-.133.15-.091.15.02 0 .216-.21.216-.232 0-.03-.014-.022-.125.082m10.61-.545c-.042.016-.053.077-.024.148.01.03.02.022.055-.05q.065-.136-.03-.098m-.014.341a.5.5 0 0 1-.058.142c-.026.032-.03.07-.007.07a.3.3 0 0 0 .082-.076c.056-.066.065-.086.06-.155-.008-.117-.04-.108-.077.02m-.614-.355c-.071.013-.12.03-.13.05-.03.052-.015.052.248.004q.041-.01.036-.038c-.007-.04-.022-.04-.154-.016m-.152.256c-.007.005-.012.05-.012.098s-.013.106-.029.13c-.029.046-.029.18 0 .18.023 0 .066-.176.077-.31q.011-.15-.036-.098m.213.052c-.016.014-.029.036-.029.045 0 .028.065.017.095-.017.05-.055-.014-.082-.066-.028m-.038.329c-.018.02-.028.041-.021.046.014.016.104-.048.091-.066-.014-.025-.034-.02-.07.02m-.67-.583a.6.6 0 0 0-.185.195c-.02.04-.021.064-.007.116.01.036.022.14.025.229l.008.165-.099.059c-.062.039-.1.073-.1.094 0 .029.009.033.064.024.08-.013.102-.033.15-.124.035-.064.036-.096.033-.31l-.006-.239.07-.071c.04-.04.106-.09.149-.11s.073-.044.068-.053c-.02-.03-.106-.018-.17.025M10.396 9a1 1 0 0 0-.121.149.7.7 0 0 1-.1.116c-.08.073-.113.163-.06.16.027-.003.206-.183.285-.287.02-.027.116-.211.116-.224 0-.025-.043.006-.12.086m-.474.074a.6.6 0 0 0-.032.157.2.2 0 0 1-.027.098c-.032.043-.037.211-.005.2.021-.007.059-.123.084-.255a.5.5 0 0 1 .032-.107c.032-.061.036-.177.006-.183q-.027-.006-.058.09m.41.347c-.023.023-.013.13.012.13s.047-.052.047-.113c0-.03-.036-.04-.06-.017m.618-.532c-.048.03-.055.043-.04.063.02.023.092.014.147-.02a.3.3 0 0 1 .084-.023c.034-.007.065-.021.07-.034.013-.04-.191-.027-.261.014m-.057.254a.4.4 0 0 0-.036.138.6.6 0 0 1-.03.147c-.025.068-.027.09-.011.107.018.018.025.014.032-.013a1 1 0 0 1 .038-.084c.012-.028.025-.08.025-.116s.012-.09.026-.118c.03-.059.034-.11.01-.127-.011-.007-.035.023-.054.066m.134.363c-.03.022-.032.029-.01.043.031.022.1-.003.1-.035 0-.036-.049-.04-.09-.008M9.03 8.934a1 1 0 0 1-.106.022c-.205.03-.089.089.126.064.102-.013.116-.02.121-.056s-.002-.039-.064-.039c-.038 0-.074.004-.077.01m-.33.097c-.013.022.037.043.063.027a.04.04 0 0 0 .018-.028c0-.022-.066-.022-.08.001m.148.2a.15.15 0 0 0-.032.083.3.3 0 0 1-.027.095c-.027.052-.043.238-.021.26.02.019.048-.013.048-.056 0-.024.009-.065.02-.093a1 1 0 0 0 .036-.14l.028-.14q.013-.088-.052-.008m-.127.518c-.012.045 0 .074.025.06.022-.015.022-.099 0-.099-.009 0-.02.018-.025.04m.805-.78c-.007.007-.012.034-.012.06a.2.2 0 0 1-.027.083c-.032.043-.038.229-.006.218.013-.005.029-.043.038-.088a.6.6 0 0 1 .03-.114c.04-.086.022-.204-.023-.16m-.107.467c-.013.067.014.095.03.03.007-.026.006-.055-.003-.064q-.018-.013-.027.034m-2.223-.304a1 1 0 0 0-.124.185.6.6 0 0 0-.055.125.4.4 0 0 1-.056.118c-.034.028-.03.15.004.15.014 0 .027-.012.027-.029s.01-.05.025-.075l.052-.11c.071-.169.15-.317.195-.365.05-.056.064-.1.032-.1a.5.5 0 0 0-.1.101m.059.267a.3.3 0 0 1-.058.123c-.044.061-.044.061-.008.08.084.045.162-.082.134-.216-.016-.071-.056-.064-.068.013m.497-.16a.6.6 0 0 1-.038.128c-.028.066-.034.236-.007.236.01 0 .022-.03.027-.068a1 1 0 0 1 .038-.138c.028-.082.034-.198.009-.215-.011-.005-.024.02-.03.058m-1.144-.193c-.01.01-.06.02-.114.023-.057.003-.1.014-.106.027-.012.04.13.026.224-.022q.085-.043.05-.045c-.022 0-.045.008-.054.017m-.248.25a.2.2 0 0 0-.015.068c-.001.027-.014.066-.026.086s-.024.07-.024.112-.009.093-.02.113c-.028.056-.01.075.035.034.032-.03.039-.057.039-.14a.3.3 0 0 1 .027-.135c.03-.04.036-.154.01-.154a.03.03 0 0 0-.026.016m.19.059c-.024.023-.03.068-.008.068.023 0 .093-.054.093-.073 0-.024-.06-.02-.086.005m-.062.313c-.029.027-.01.043.044.037.074-.007.09-.05.02-.05-.03 0-.059.006-.064.013M5.46 9.109q-.164.061.163.052c.118-.002.218-.009.222-.012q.006-.01-.015-.036c-.027-.034-.28-.036-.37-.004m.224.211c-.045.025-.061.135-.025.176.026.028.023.034-.052.082-.08.05-.102.091-.056.109.054.02.276-.166.328-.275.034-.074.021-.092-.033-.042-.055.052-.08.047-.093-.016-.012-.057-.021-.062-.07-.034m-.234.027c-.007.007-.012.032-.012.056 0 .021-.007.04-.016.04-.02 0-.091.219-.091.28a.2.2 0 0 1-.03.098c-.028.057-.028.125.003.125.01 0 .037-.059.06-.13.022-.072.049-.147.058-.167a.3.3 0 0 0 .02-.116.3.3 0 0 1 .028-.121c.025-.04.009-.092-.02-.065"/>
</svg>