<svg xmlns="http://www.w3.org/2000/svg" width="16" height="16" fill="currentColor" class="bi bi-belami" viewBox="0 0 16 16">
  <path d="M15.077 6.195v.348h.818l-.017-.336-.017-.332-.389-.016-.395-.018zM.061 7.987v2.092H.92c.469 0 .956-.028 1.084-.064.614-.173.95-.962.69-1.617-.099-.238-.344-.463-.511-.463-.064 0-.006-.087.163-.25.191-.185.26-.302.296-.493.086-.516-.099-.963-.471-1.148-.191-.093-.382-.11-1.165-.127l-.945-.024zM1.65 6.664c.127.098.151.169.151.394 0 .36-.157.517-.569.569l-.302.035V6.543h.285c.197 0 .324.034.435.121m.075 1.699c.139.121.163.18.163.465 0 .44-.129.567-.61.602l-.348.023V8.224h.314c.255 0 .354.029.481.139m4.308-.37v2.086h.811V5.905h-.811zm1.635-.042a96 96 0 0 0-.533 2.082c0 .03.191.046.423.046h.429l.07-.33c.127-.585.064-.539.672-.539s.545-.046.673.533l.069.336H9.9c.232 0 .424-.022.424-.058 0-.029-.197-.805-.441-1.722a89 89 0 0 1-.533-2.034l-.094-.36H8.208zm1.264-.394c.092.442.173.841.173.881 0 .052-.103.076-.376.076-.272 0-.377-.024-.377-.076 0-.04.081-.435.174-.869.098-.441.174-.811.174-.835 0-.151.081.133.232.823m-5.16-.556c-.233.121-.436.395-.522.696-.075.272-.075 1.426.006 1.704.08.296.365.604.621.678.37.099.828.07 1.112-.074.29-.146.441-.36.499-.726l.04-.248-.364.016c-.354.018-.372.024-.412.186-.105.383-.418.498-.626.232-.094-.116-.122-.237-.122-.493V8.63h1.582l-.034-.481c-.046-.679-.203-.986-.603-1.194-.209-.105-.945-.082-1.177.046m.835.487c.098.075.225.545.173.632-.016.029-.197.046-.406.046h-.37V7.94c0-.406.33-.655.603-.452m7.137-.527a1.5 1.5 0 0 0-.244.179l-.133.115v-.149c0-.157-.005-.157-.377-.157h-.377v3.13h.811V8.92c0-1.16 0-1.166.147-1.305.155-.161.3-.179.468-.064.105.076.111.175.128 1.305l.018 1.223h.806V8.897c0-1.003.012-1.2.092-1.276.145-.151.36-.179.487-.064.111.099.117.186.117 1.317v1.205h.811V8.775c0-1.403-.035-1.606-.296-1.792-.093-.064-.255-.092-.504-.092-.347 0-.383.012-.58.209-.151.15-.215.185-.249.127a.3.3 0 0 1-.053-.117c0-.179-.817-.295-1.072-.149m3.333 1.553v1.565h.812v-3.13h-.812z"/>
</svg>