<svg xmlns="http://www.w3.org/2000/svg" width="16" height="16" fill="currentColor" class="bi bi-falcon" viewBox="0 0 16 16">
  <path fill-rule="evenodd" d="m6.74.228-.394.07-.331.086-.332.088-.377.136-.378.135-.421.21-.421.21-.367.239-.368.236-.367.303-.368.303-.293.307-.293.306-.212.264-.213.262-.236.367-.237.369-.22.438-.22.439-.177.534-.177.532-.095.447-.097.446V9.11l.097.447.095.447.177.532.177.533.22.44.22.438.237.368.236.367.213.262.212.264.293.306.293.308.368.303.367.303.368.237.367.237.439.22.439.219.534.179.534.177.446.096.446.094h2.154l.446-.094.447-.096.533-.177.534-.179.439-.219.439-.22.367-.237.368-.237.367-.303.368-.303.293-.308.293-.306.212-.264.213-.262.237-.367.236-.368.22-.438.22-.44.177-.533.177-.532.083-.406.083-.406v-.26l.052-.032.053-.033V7.081l-.053.032-.052.032v-.272l-.083-.405-.083-.406-.177-.532-.177-.534-.22-.439-.22-.438-.236-.369-.237-.367-.213-.262-.212-.264-.293-.306-.293-.307-.368-.303-.367-.303-.368-.236-.367-.239-.439-.22-.439-.219-.534-.177L9.971.37 9.576.282 9.183.195 8.158.176 7.134.157zm.735 1.062-.236.021-.439.08-.441.08-.427.135-.426.133-.46.228-.458.226-.381.252-.383.253-.578.58-.579.579-.253.381-.253.383-.226.457-.227.459-.134.428-.134.426-.078.44-.077.44-.028.341-.029.343.075-.107.078-.103 1.301-1.888 1.3-1.888.148-.11.149-.109.456-.032.455-.033 2.115-.008 2.118-.009.223.1.225.099.193.169.193.17.194.271.194.273.212.222.211.221.24.077.239.077.788.035.788.035.216.093.214.092.114.161.115.161.058.286.057.287-.164.649-.164.65-.173.547-.171.546-.67.387-.67.385h-.102V8.9l-1.562.015-1.563.015-.147.058-.145.057-.105.132-.103.13v.216l.002.216.053.196.054.194.136.108.138.108h5.812l.107-.341.105-.343.089-.46.088-.459V7.323l-.09-.466-.09-.466-.134-.426-.134-.428-.227-.463-.23-.462-.249-.378-.248-.377-.581-.579-.581-.58-.383-.253-.381-.252-.458-.226-.46-.228-.424-.133-.424-.132-.416-.08-.417-.079-.551-.024-.552-.023zm-2.06 3.482-.617.03-.152.158-.152.157L2.99 7.421 1.486 9.723v.13l.129.378.128.377.212.422.21.42.251.38.251.38.579.581.578.58.379.249.378.248.462.23.463.229.426.133.427.134.467.091.465.089h1.42l.465-.089.468-.091.426-.134.426-.133.46-.226.458-.229.378-.253.38-.254.463-.44.464-.44.261-.348.261-.349.001-.091v-.091l-.103-.106-.107-.105H8.478l-.302-.112-.304-.115-.267-.253-.268-.253-.148-.303-.15-.303-.025-.35-.024-.35.111-.369.114-.369.263-.288.265-.29.247-.121.248-.123 1.961-.025 1.961-.026.121-.14.119-.139.09-.388.089-.385.024-.118.023-.118H6.53V6.34l.248-.528.248-.528 1.105.032 1.105.03.137-.028.138-.028-.056-.186-.058-.187-.159-.096-.16-.098-1.523.009-1.523.009zM.142 8.033v.919l.017-.459.018-.46-.018-.46-.017-.46z"/>
</svg>