<svg xmlns="http://www.w3.org/2000/svg" width="16" height="16" fill="currentColor" class="bi bi-fansly" viewBox="0 0 16 16">
  <path d="M4 1.696q.382.006.541.034c.088.015.231.045.317.067.087.022.238.067.334.1a4.4 4.4 0 0 1 .851.422c.096.063.246.176.333.25.087.073.39.364 1.183 1.161v.151L6.35 5.088l-.149-.001-.551-.547q-.552-.548-.666-.623a2.1 2.1 0 0 0-.559-.253 2.4 2.4 0 0 0-.325-.056 2 2 0 0 0-.325-.001c-.087.008-.223.03-.3.05a2 2 0 0 0-.285.096 2 2 0 0 0-.291.158 2 2 0 0 0-.293.242c-.08.078-.188.211-.241.293a2 2 0 0 0-.159.291 2 2 0 0 0-.097.284 2 2 0 0 0-.048.625c.008.091.032.237.056.325a2 2 0 0 0 .253.558c.054.082.297.339 1.563 1.608l2.751-2.746c1.513-1.512 2.815-2.798 2.893-2.86s.214-.159.3-.218c.087-.058.23-.143.317-.189s.241-.117.342-.159c.1-.042.273-.1.382-.132.111-.031.299-.076.417-.096.19-.035.271-.039.642-.039.373 0 .453.004.643.039.119.02.307.064.417.096s.282.09.382.132c.102.042.256.114.344.16.086.047.221.127.298.178.079.052.213.149.301.22.088.069.242.212.343.317.1.105.229.25.285.323s.14.194.189.267a4.4 4.4 0 0 1 .399.832c.036.111.085.287.107.393a3.7 3.7 0 0 1 .079 1.124 5 5 0 0 1-.053.409 3.8 3.8 0 0 1-.953 1.883c-.088.096-.353.367-1.022 1.032h-.166l-.581-.578c-.332-.33-.592-.602-.605-.634-.013-.03-.018-.074-.013-.099q.011-.047.539-.58c.345-.348.557-.577.612-.658.047-.069.112-.177.144-.242.032-.063.077-.178.103-.254a2 2 0 0 0 .092-.566c0-.077-.008-.195-.017-.267a3 3 0 0 0-.06-.271 2 2 0 0 0-.1-.266 2 2 0 0 0-.147-.259 2 2 0 0 0-.203-.25 2 2 0 0 0-.231-.205 2 2 0 0 0-.274-.169 2 2 0 0 0-.301-.122 3 3 0 0 0-.25-.062 2.3 2.3 0 0 0-.642.008c-.074.014-.19.044-.259.067a3 3 0 0 0-.233.096 4 4 0 0 0-.234.137c-.092.061-.317.273-1.601 1.55l1.976 1.975c1.813 1.811 1.976 1.979 1.976 2.029a.24.24 0 0 1-.024.099c-.012.026-1.103 1.123-2.421 2.438-1.811 1.807-2.418 2.403-2.481 2.437a.9.9 0 0 1-.384.095 1 1 0 0 1-.175-.018 1 1 0 0 1-.167-.061c-.08-.035-.501-.45-3.274-3.218C2.586 9.508 1.093 8.008 1.02 7.921a4 4 0 0 1-.238-.317 4 4 0 0 1-.316-.567 3.7 3.7 0 0 1-.218-.633 4 4 0 0 1-.067-.317 4 4 0 0 1-.036-.508 3 3 0 0 1 .019-.558 3.8 3.8 0 0 1 .522-1.516c.042-.069.14-.211.219-.316s.233-.283.342-.393a4.3 4.3 0 0 1 .71-.562 4 4 0 0 1 .734-.342c.105-.037.277-.086.383-.11.105-.023.271-.053.367-.068.127-.017.281-.022.558-.018zm3.335 6.026a2.2 2.2 0 0 0-.565.319 2 2 0 0 0-.271.27q-.124.151-.224.351a1.65 1.65 0 0 0-.195.775 1.6 1.6 0 0 0 .08.633 2 2 0 0 0 .279.541c.053.074.156.187.226.254a2 2 0 0 0 .486.338c.055.026.147.062.204.082.058.019.16.045.226.06a2 2 0 0 0 .605.025c.081-.01.213-.039.29-.061.079-.023.202-.07.276-.104a2 2 0 0 0 .267-.153c.073-.05.194-.15.267-.223s.174-.194.223-.268c.051-.073.12-.193.154-.267.034-.072.081-.196.103-.274a1.9 1.9 0 0 0 .073-.625 2 2 0 0 0-.035-.266 3 3 0 0 0-.06-.226 2.4 2.4 0 0 0-.281-.533 2.1 2.1 0 0 0-.66-.554 3 3 0 0 0-.235-.095 2 2 0 0 0-.291-.077 2 2 0 0 0-.342-.023 1.8 1.8 0 0 0-.6.1zm.658.572c.078.004.182.017.23.03.068.016.085.027.076.046l-.032.084a.4.4 0 0 0-.022.129.5.5 0 0 0 .032.158.6.6 0 0 0 .08.146c.028.031.089.08.138.109.077.042.108.048.215.048.11 0 .136-.006.317-.107l.035.079c.019.044.05.14.069.212a.9.9 0 0 1 .024.333 1.05 1.05 0 0 1-.13.51 1.5 1.5 0 0 1-.128.191 1.5 1.5 0 0 1-.179.18 1.4 1.4 0 0 1-.484.238c-.088.02-.165.025-.323.019a1 1 0 0 1-.344-.052 1.5 1.5 0 0 1-.249-.118 1.5 1.5 0 0 1-.242-.203 1 1 0 0 1-.195-.273 1.6 1.6 0 0 1-.097-.249 2 2 0 0 1-.036-.243 1 1 0 0 1 .017-.266 1.4 1.4 0 0 1 .165-.441 1.4 1.4 0 0 1 .38-.379 1.4 1.4 0 0 1 .425-.165c.067-.013.179-.019.258-.015z"/>
</svg>