<svg xmlns="http://www.w3.org/2000/svg" width="16" height="16" fill="currentColor" class="bi bi-gayromeo" viewBox="0 0 16 16">
  <path fill-rule="evenodd" d="M.006 4.348C.01 6.74.034 8.61.06 8.504c.47-1.929 3.347-1.572 3.341.414-.006 1.9-2.66 2.361-3.278.571-.118-.341-.119-.325-.121 3.107L0 16.046h3.337v-2.503h.338c6.514-.001 12.069-5.987 10.305-11.104-.258-.747-.269-.698.237-.972.571-.31.532-.317.848.153 3.608 5.358-2.456 13.557-10.636 14.383-.124.013 2.461.02 5.744.017l5.97-.006.015-8.007L16.174 0l-3.739.008C10.217.012 8.84.037 9.05.069c6.562.977 3.562 10.754-3.496 11.394l-.483.044V9.316l.369-.041c3.112-.348 5.469-3.193 4.869-5.878-.787-3.529-6.304-2.88-7.94.933l-.166.388-.363.019c-.439.023-.445-.003-.171-.607C2.638 1.992 4.841.433 7.445.042 7.534.028 5.895.014 3.803.008L0 0zm.024.017c0 2.382.008 3.357.018 2.165.01-1.191.01-3.141 0-4.332S.03 1.982.03 4.365m5.949-1.861c-1.673.35-2.875 2.384-2.181 3.69.978 1.843 4.011.928 4.546-1.371.339-1.453-.864-2.633-2.365-2.319M.03 12.612c0 1.906.008 2.677.018 1.713.01-.965.01-2.524 0-3.466S.03 10.706.03 12.612"/>
</svg>