<svg xmlns="http://www.w3.org/2000/svg" width="16" height="16" fill="currentColor" class="bi bi-grindr-wordmark-color" viewBox="0 0 16 16">
  <path d="M3.706 6.245a2 2 0 0 0-.232-.201.13.13 0 0 0-.098-.025q-.72.12-1.452.129a9.6 9.6 0 0 1-1.453-.135.13.13 0 0 0-.099.023q-.123.098-.234.209a.13.13 0 0 0-.043.079v.283s0 .2.007.316a7.7 7.7 0 0 0 .457 2.32q.012.031.036.053c.369.32.942.586 1.329.586s.957-.264 1.329-.586a.13.13 0 0 0 .034-.053c.27-.744.424-1.528.455-2.32 0-.116.007-.219.007-.315v-.283a.13.13 0 0 0-.043-.08M1.648 8.432l-.006.011c-.146.259-.38.29-.645.186-.262-.105-.482-.321-.39-.622.087-.272.511-.162.707-.117.275.069.485.233.339.528.005-.007.008-.009-.005.014m1.593-.188c-.068.275-.343.419-.614.447-.249.027-.471-.215-.479-.464v-.018c.008-.294.44-.348.658-.368.288-.027.515.071.435.403m5.815-.974a.136.136 0 0 0-.14-.158 2 2 0 0 0-.374.059 1.3 1.3 0 0 0-.438.204 1.3 1.3 0 0 0-.349.391q-.085.15-.135.315V7.99a1.7 1.7 0 0 0-.094-.542l-.091-.245a.097.097 0 0 0-.127-.059l-1.393.508a.1.1 0 0 0-.059.128l.205.555a.1.1 0 0 0 .128.058l.62-.225a.793.793 0 1 1-.499-.928.1.1 0 0 0 .127-.059l.205-.558a.1.1 0 0 0-.061-.128A1.6 1.6 0 0 0 6.04 6.4c-1.224-.003-1.993 1.319-1.383 2.38a1.589 1.589 0 0 0 2.867-.234l-.151.872a.137.137 0 0 0 .135.158h.56c.066 0 .123-.05.134-.116l.195-1.125a.47.47 0 0 1 .129-.285.4.4 0 0 1 .274-.083h.022a.136.136 0 0 0 .133-.117zm.978.252.043-.232a.1.1 0 0 0-.021-.082.1.1 0 0 0-.073-.036h-.564a.1.1 0 0 0-.096.082l-.327 1.92-.045.286a.1.1 0 0 0 .021.081.1.1 0 0 0 .075.036h.56a.1.1 0 0 0 .096-.082l.326-1.916a.4.4 0 0 0 .005-.057m5.939-.365a.13.13 0 0 0-.107-.045 2 2 0 0 0-.375.059 1.28 1.28 0 0 0-.78.595q-.083.146-.132.305l.256-1.493a.133.133 0 0 0-.133-.157h-.562a.135.135 0 0 0-.134.115l-.124.73a1.1 1.1 0 0 0-.449-.096 1.3 1.3 0 0 0-1.199.886c.036-.348-.039-.594-.223-.727a1.13 1.13 0 0 0-.671-.208 1.5 1.5 0 0 0-.708.219c-.232.143-.39.418-.464.821L9.947 9.45a.1.1 0 0 0 .021.081.1.1 0 0 0 .074.036h.561a.1.1 0 0 0 .096-.083l.239-1.403a.32.32 0 0 1 .117-.225.36.36 0 0 1 .217-.073.26.26 0 0 1 .181.066c.015.014.06.055.034.197l-.191 1.125v.047l-.042.247a.1.1 0 0 0 .02.082.1.1 0 0 0 .075.034h.561a.1.1 0 0 0 .095-.082l.161-.948a1.067 1.067 0 0 0 1.072 1.025 1.31 1.31 0 0 0 1.25-1.114l-.164.961a.134.134 0 0 0 .133.157h.562a.136.136 0 0 0 .133-.116l.194-1.129a.5.5 0 0 1 .13-.285.4.4 0 0 1 .276-.083h.021a.14.14 0 0 0 .135-.116l.1-.58a.14.14 0 0 0-.035-.114m-2.174 1.215a.526.526 0 0 1-.506.481.43.43 0 0 1-.43-.481.525.525 0 0 1 .506-.483.432.432 0 0 1 .43.483"/>
</svg>