<svg xmlns="http://www.w3.org/2000/svg" width="16" height="16" fill="currentColor" class="bi bi-grindr-color" viewBox="0 0 16 16">
  <path d="M15.26 1.076a10 10 0 0 0-.944-.822.52.52 0 0 0-.397-.094 39.5 39.5 0 0 1-5.904.519A39 39 0 0 1 2.102.136a.5.5 0 0 0-.401.095 10 10 0 0 0-.959.85.5.5 0 0 0-.17.316V2.55s0 .812.028 1.284a31.3 31.3 0 0 0 1.861 9.446q.045.121.142.208c1.502 1.308 3.835 2.39 5.412 2.39 1.578 0 3.892-1.077 5.403-2.39a.5.5 0 0 0 .142-.208 31.3 31.3 0 0 0 1.851-9.446c0-.472.029-.888.029-1.275V1.402a.5.5 0 0 0-.175-.321zM6.901 9.974l-.029.047c-.59 1.049-1.544 1.181-2.616.756S2.282 9.474 2.65 8.246c.359-1.106 2.078-.662 2.881-.473 1.124.284 1.984.945 1.379 2.144.024-.028.033-.037-.019.057zm6.48-.765c-.274 1.119-1.394 1.7-2.504 1.823-1.01.104-1.908-.878-1.945-1.889v-.076c.033-1.195 1.794-1.417 2.682-1.497 1.172-.113 2.092.284 1.767 1.639"/>
</svg>