<svg xmlns="http://www.w3.org/2000/svg" width="16" height="16" fill="currentColor" class="bi bi-helix-studios" viewBox="0 0 16 16">
  <path d="m1.935 6.05.005 1.512h1.022l.006-.491c.003-.43.006-.498.033-.525.026-.031.058-.032.356-.029l.327.006.01.519.008.52h1.022l.005-1.512.003-1.509H3.694l-.004.515-.006.515-.317.006c-.174.002-.335 0-.356-.006l-.04-.009V4.541H1.932zm3.224.027.005 1.537 1.027.007 1.026.003-.005-.409-.004-.41-.476-.009-.476-.009V6.47l.428-.005a3 3 0 0 0 .428-.018 7 7 0 0 0-.001-.734l-.016-.045-.419-.003-.42-.006-.005-.111c-.004-.067.003-.122.016-.137.016-.02.102-.025.458-.025h.438v-.845H5.155zm2.46-.017c-.004.836-.002 1.53.001 1.541.003.017.219.023.997.023.937 0 .991-.002 1.018-.032.027-.028.031-.088.031-.474 0-.388-.004-.444-.029-.452a5 5 0 0 0-.449-.011c-.372 0-.425-.004-.457-.03-.034-.03-.034-.052-.034-1.058V4.541H7.622zm2.451-.008c0 1.443.002 1.515.032 1.542.028.027.092.03.527.03.454 0 .495-.002.522-.032s.03-.162.03-1.542V4.541H10.07zm1.551-1.472a.24.24 0 0 0 .053.102c.03.033.052.069.052.079 0 .012.02.039.044.061.026.024.044.051.044.064a.24.24 0 0 0 .053.083c.03.033.053.07.053.08 0 .012.035.056.079.096.046.046.079.094.079.114 0 .022.007.039.017.039.014 0 .229.317.253.378a.3.3 0 0 0 .057.074c.024.022.044.056.044.073 0 .018.024.051.052.074.031.023.053.051.053.063a.45.45 0 0 1-.1.186.4.4 0 0 0-.064.102.6.6 0 0 1-.086.139.3.3 0 0 0-.049.076c0 .01-.02.042-.045.073-.024.027-.043.061-.043.073 0 .013-.019.04-.045.063-.024.023-.044.051-.044.063s-.022.052-.052.083a.3.3 0 0 0-.053.078c0 .009-.023.041-.053.068-.028.029-.053.068-.053.087-.002.02-.024.055-.053.079-.03.024-.052.053-.052.068a.2.2 0 0 1-.039.073 1 1 0 0 0-.076.108l-.075.127c-.075.122-.093.118.574.118.546 0 .599-.002.623-.032.014-.016.06-.106.102-.198.042-.091.096-.186.117-.211a1 1 0 0 0 .147-.308c0-.048.042-.087.08-.072.016.005.026.031.026.068 0 .034.012.071.027.083a.08.08 0 0 1 .026.051c.002.016.025.047.053.073.03.025.053.059.053.082s.007.041.018.041c.008 0 .02.017.026.04.006.021.049.115.095.207l.085.166.604.007c.338.001.613-.005.622-.013.017-.018-.058-.176-.1-.212-.017-.014-.029-.033-.029-.046 0-.01-.023-.044-.053-.072-.028-.028-.053-.063-.053-.079 0-.015-.022-.049-.053-.078-.027-.028-.052-.062-.052-.079 0-.016-.023-.051-.053-.08-.028-.027-.053-.064-.053-.08 0-.018-.011-.039-.025-.046a.4.4 0 0 1-.069-.088.4.4 0 0 0-.065-.084.06.06 0 0 1-.017-.039c0-.016-.035-.067-.079-.113a.3.3 0 0 1-.079-.109c0-.013-.021-.042-.045-.065-.025-.023-.044-.052-.044-.064s-.021-.05-.047-.08c-.106-.126-.136-.219-.085-.261a.1.1 0 0 0 .026-.051c0-.019.025-.054.054-.082s.052-.063.052-.079c0-.017.016-.044.038-.064a.4.4 0 0 0 .063-.082.4.4 0 0 1 .06-.084c.017-.019.033-.044.033-.057s.019-.043.043-.065c.026-.023.045-.054.045-.071s.025-.051.053-.079c.03-.028.053-.063.053-.079 0-.017.019-.048.044-.07.024-.024.044-.052.044-.065 0-.012.024-.051.053-.081a.3.3 0 0 0 .052-.075.4.4 0 0 1 .053-.074c.03-.032.053-.07.053-.083 0-.014.012-.034.026-.046a.1.1 0 0 0 .027-.063v-.042h-1.232v.049a.14.14 0 0 1-.017.067 1.7 1.7 0 0 0-.178.368.1.1 0 0 1-.026.061.08.08 0 0 0-.027.051c0 .036-.076.114-.093.096-.007-.004-.013-.037-.013-.067 0-.032-.012-.067-.026-.08s-.027-.029-.027-.04c0-.017-.161-.362-.195-.417a.3.3 0 0 1-.026-.059c-.011-.027-.057-.029-.626-.029h-.614zM.761 8.442c-.004.015-.027.027-.052.027-.022 0-.046.012-.053.027-.005.014-.03.026-.054.026-.025 0-.044.007-.044.018 0 .009-.036.036-.079.063a.3.3 0 0 0-.116.113.3.3 0 0 1-.047.073c-.032.015-.093.159-.093.22 0 .039-.009.079-.02.089-.031.031.008.306.055.401.044.086.264.327.302.327.015 0 .039.012.051.026a.08.08 0 0 0 .052.026c.017 0 .041.013.053.027.013.014.032.027.042.027s.083.031.161.069a.8.8 0 0 0 .179.072c.021 0 .045.008.049.017.006.01.025.018.043.018.015 0 .052.022.081.052.029.028.061.053.078.053.013 0 .066.042.115.095.075.076.093.105.085.141a.2.2 0 0 0 .02.101c.035.071.035.111 0 .166a.15.15 0 0 0-.022.096c.007.045-.007.067-.098.156a1 1 0 0 1-.231.17.43.43 0 0 1-.248.062c-.09 0-.132-.007-.148-.027a.1.1 0 0 0-.053-.025c-.016 0-.045-.017-.063-.038a.3.3 0 0 0-.094-.067.2.2 0 0 1-.076-.06l-.032-.062a1 1 0 0 1-.095-.218c-.01-.044-.019-.049-.083-.049a.2.2 0 0 0-.112.028c-.025.016-.055.024-.069.019s-.044.005-.065.025c-.035.03-.037.041-.02.068a.2.2 0 0 1 .022.087c0 .028.012.06.026.072a.08.08 0 0 1 .027.053c0 .018.012.04.026.052.015.014.027.036.027.052 0 .038.23.266.267.266.015 0 .048.023.076.053.035.037.068.052.107.052.032 0 .064.007.069.019.007.01.119.017.273.017s.266-.007.274-.017c.005-.012.036-.019.068-.019s.069-.012.081-.026.034-.026.047-.026c.016 0 .055-.025.089-.053.031-.03.069-.053.081-.053.039 0 .144-.126.19-.224.023-.051.047-.093.055-.093s.014-.019.014-.044.012-.049.027-.055c.037-.015.037-.579 0-.595-.015-.006-.027-.028-.027-.053 0-.022-.012-.046-.027-.053-.014-.005-.026-.025-.026-.04 0-.018-.046-.078-.101-.131-.088-.084-.165-.13-.537-.313-.394-.198-.443-.225-.532-.319l-.098-.104v-.117c0-.086.007-.117.026-.124a.06.06 0 0 0 .027-.047c0-.047.126-.171.174-.171.019 0 .037-.008.037-.017 0-.049.333-.1.361-.054.005.008.025.017.042.017s.042.013.054.027c.013.013.036.027.05.027.037 0 .179.139.179.176 0 .014.019.036.037.049.034.021.043.019.085-.02a1 1 0 0 1 .131-.083c.081-.037.086-.042.075-.095-.012-.063-.282-.345-.329-.345-.016 0-.038-.012-.051-.026-.012-.015-.049-.027-.083-.027-.037 0-.063-.01-.069-.027-.016-.039-.526-.039-.543 0m11.099 0q-.009.028-.091.027c-.046 0-.097.011-.111.024a2 2 0 0 1-.196.1 1 1 0 0 0-.237.144c-.041.037-.085.067-.1.067-.032 0-.139.107-.139.143 0 .013-.024.049-.054.079a1.3 1.3 0 0 0-.152.25 2 2 0 0 1-.112.208c-.009.005-.017.06-.017.123 0 .085-.006.116-.026.124-.021.008-.026.052-.026.245 0 .192.005.236.026.244.02.007.026.039.026.124 0 .064.008.118.015.123.009.005.054.087.102.181.046.095.108.2.134.231a.2.2 0 0 1 .049.081c0 .03.218.24.251.24.013 0 .043.019.067.044.022.024.049.044.056.044.009 0 .042.019.074.044s.07.044.088.044c.016 0 .073.023.129.053a.5.5 0 0 0 .139.052c.02 0 .045.007.051.019.006.01.144.017.352.017s.345-.007.352-.017c.005-.012.049-.019.095-.019q.084 0 .108-.026a.08.08 0 0 1 .053-.026c.017 0 .04-.012.052-.027s.044-.026.071-.026a.1.1 0 0 0 .072-.028.4.4 0 0 1 .084-.06.5.5 0 0 0 .115-.086c.03-.03.066-.054.081-.054.034 0 .141-.107.141-.139 0-.012.036-.061.08-.107a.4.4 0 0 0 .079-.1c0-.009.032-.076.07-.148a.6.6 0 0 0 .071-.18c0-.025.008-.049.021-.053.011-.003.019-.042.019-.09-.001-.049.007-.089.023-.102.02-.016.025-.073.025-.252 0-.128-.007-.24-.015-.25-.012-.008-.022-.056-.029-.103-.005-.05-.017-.093-.027-.095s-.017-.024-.017-.047c0-.078-.153-.365-.247-.459a.4.4 0 0 1-.088-.12c0-.016-.026-.039-.056-.053a.5.5 0 0 1-.129-.097c-.063-.067-.356-.231-.408-.231-.012 0-.029-.012-.041-.026q-.024-.027-.109-.027-.088.001-.095-.027c-.009-.022-.062-.026-.324-.026-.263 0-.316.004-.325.026m.547.335a.3.3 0 0 0 .102.027.8.8 0 0 1 .211.08.9.9 0 0 1 .312.232c.086.088.169.19.19.237a.4.4 0 0 0 .057.095c.008.006.015.024.015.041s.012.042.027.055.026.051.026.097c0 .045.011.084.026.096.021.019.027.068.027.242 0 .178-.006.22-.027.227q-.025.01-.026.095c0 .048-.007.09-.015.097a.5.5 0 0 0-.072.123c-.029.064-.062.115-.071.115-.012 0-.029.021-.039.05-.025.057-.225.267-.257.267-.012 0-.041.017-.064.04a.4.4 0 0 1-.178.101c-.012 0-.031.013-.044.027s-.051.027-.095.027a.24.24 0 0 0-.109.025c-.049.037-.398.037-.43 0-.013-.013-.049-.025-.084-.025a.7.7 0 0 1-.226-.08 1 1 0 0 1-.314-.232 1.3 1.3 0 0 1-.19-.232 2 2 0 0 0-.079-.147.3.3 0 0 1-.041-.119.1.1 0 0 0-.026-.072c-.021-.017-.027-.073-.027-.29s.006-.274.027-.291c.014-.012.026-.048.026-.08 0-.031.013-.066.027-.079s.027-.033.027-.046c0-.014.018-.056.044-.095a.3.3 0 0 0 .044-.09c0-.01.064-.086.144-.169a.9.9 0 0 1 .288-.218c.076-.041.147-.08.157-.088.009-.009.053-.016.099-.016.051 0 .089-.011.104-.027.032-.037.363-.037.434 0m2.296-.335c-.012.015-.048.027-.078.027-.036 0-.063.011-.069.027-.006.014-.031.026-.055.026-.025 0-.044.007-.044.018 0 .009-.035.036-.08.063a.3.3 0 0 0-.114.113.2.2 0 0 1-.049.073c-.037.015-.092.163-.092.247 0 .055-.01.102-.026.12-.023.025-.023.034 0 .078a.3.3 0 0 1 .026.126c0 .043.017.11.039.152.041.085.203.261.237.261.013 0 .05.025.082.053.033.028.072.052.087.052s.036.013.048.027.032.027.044.027.059.019.104.044a.4.4 0 0 0 .117.044c.017 0 .07.019.116.044a.4.4 0 0 0 .106.044c.012 0 .042.024.065.052.025.031.057.053.076.053.04 0 .159.124.209.22.051.096.06.259.018.315a.2.2 0 0 0-.027.082c0 .067-.174.231-.326.308a.43.43 0 0 1-.237.062.4.4 0 0 1-.186-.036c-.079-.04-.343-.294-.343-.329a.2.2 0 0 0-.016-.055c-.01-.015-.02-.051-.028-.079-.009-.042-.017-.047-.085-.047-.039 0-.09.011-.107.026a.15.15 0 0 1-.076.026.14.14 0 0 0-.078.034c-.029.028-.031.034-.007.054.015.013.027.052.027.088q0 .066.027.078c.014.005.026.025.026.042 0 .02.012.044.027.056.013.014.025.036.025.052 0 .038.23.266.268.266.015 0 .037.012.05.026a.08.08 0 0 0 .053.027c.017 0 .041.012.053.026a.1.1 0 0 0 .054.026c.018 0 .037.007.042.019.008.01.119.017.274.017s.266-.007.273-.017c.005-.012.037-.019.068-.019.034 0 .069-.012.081-.026.013-.014.034-.026.048-.026.016 0 .055-.024.088-.053a.3.3 0 0 1 .077-.053c.027 0 .157-.126.157-.153 0-.012.025-.049.053-.081q.054-.062.053-.117c0-.033.011-.059.027-.065.019-.008.025-.04.025-.125 0-.098.007-.117.036-.123.029-.007.035-.024.035-.076 0-.051-.006-.068-.035-.075s-.036-.025-.036-.097q.002-.091-.025-.099c-.015-.006-.027-.028-.027-.053 0-.022-.012-.046-.026-.053-.014-.005-.027-.025-.027-.04 0-.049-.19-.222-.304-.278a.4.4 0 0 1-.114-.074c-.005-.012-.027-.024-.05-.024s-.048-.012-.053-.026c-.007-.016-.034-.027-.069-.027-.033 0-.063-.006-.069-.015a1.4 1.4 0 0 0-.209-.115c-.212-.105-.305-.183-.364-.301-.043-.081-.046-.173-.01-.202.015-.013.027-.046.027-.074 0-.039.019-.073.069-.122a.3.3 0 0 1 .085-.068c.01 0 .054-.02.099-.045.097-.051.277-.062.336-.018a.16.16 0 0 0 .08.027c.052 0 .199.139.22.207.008.024.028.049.05.056.042.015.08 0 .167-.074a.2.2 0 0 1 .081-.048c.032 0 .045-.039.034-.092-.013-.051-.285-.331-.324-.331a.08.08 0 0 1-.052-.026c-.012-.015-.049-.027-.082-.027-.037 0-.064-.01-.069-.027-.008-.02-.053-.026-.246-.026-.186 0-.237.006-.255.026M2.192 8.49a1 1 0 0 0 .014.296c.009.009.171.02.36.022l.344.005.008 1.329.009 1.331.155.005c.145.005.158.002.189-.036.028-.035.03-.043.006-.067-.02-.024-.025-.219-.02-1.295l.005-1.267.352-.005c.331-.004.352-.007.391-.043.053-.049.056-.196.007-.257l-.034-.039h-.889c-.696 0-.892.005-.897.021m2.242 1.115c0 .745.005 1.136.017 1.136.01 0 .017.033.017.071q0 .073.027.082a.05.05 0 0 1 .027.042c0 .017.012.041.025.053.015.012.027.033.027.047 0 .036.241.283.288.298a.2.2 0 0 1 .082.049c.067.058.15.098.199.098.024 0 .051.007.056.019.007.01.129.017.308.017.18 0 .302-.007.309-.017.005-.012.037-.019.071-.019.035 0 .061-.01.069-.026.005-.014.027-.026.052-.026.023 0 .046-.012.053-.027.005-.014.023-.026.039-.026a.2.2 0 0 0 .078-.04 1 1 0 0 1 .103-.069.3.3 0 0 0 .086-.087 1 1 0 0 1 .071-.103.2.2 0 0 0 .039-.078c0-.016.012-.034.026-.039.014-.007.027-.029.027-.053 0-.025.012-.047.025-.052.021-.009.027-.043.027-.138.002-.081.011-.138.027-.159.022-.029.026-.183.026-1.032 0-1.173.023-1.06-.222-1.053l-.157.005-.005 1.045c-.004.893-.007 1.051-.03 1.083a.2.2 0 0 0-.027.104c0 .035-.006.07-.016.075-.01.006-.019.027-.019.047 0 .045-.237.28-.281.28-.018 0-.039.007-.044.017-.005.009-.029.019-.05.019a.3.3 0 0 0-.089.025c-.069.037-.298.037-.328 0-.012-.013-.048-.025-.081-.025-.032 0-.063-.009-.069-.019a.4.4 0 0 0-.094-.052c-.095-.043-.197-.134-.197-.178a.07.07 0 0 0-.027-.051.1.1 0 0 1-.025-.069c0-.027-.009-.056-.018-.065q-.018-.021-.023-1.127L4.83 8.478l-.198-.005-.198-.006zM7.031 8.49c-.005.013-.006.689-.005 1.503l.005 1.48.505.005c.433.003.507 0 .526-.023q.021-.026.115-.026a.36.36 0 0 0 .174-.044.4.4 0 0 1 .123-.044c.021 0 .062-.024.09-.053s.063-.053.079-.053c.03 0 .441-.403.441-.433 0-.011.031-.078.07-.148a.6.6 0 0 0 .071-.168c0-.021.012-.049.026-.061.018-.016.027-.056.027-.133 0-.075.009-.116.026-.132.02-.016.026-.062.026-.184 0-.124-.006-.169-.026-.186-.017-.015-.026-.056-.026-.132 0-.075-.009-.116-.027-.132-.014-.012-.026-.042-.026-.068a.15.15 0 0 0-.027-.079.2.2 0 0 1-.027-.082.14.14 0 0 0-.043-.088c-.025-.023-.044-.051-.044-.061s-.028-.048-.063-.081a.4.4 0 0 1-.089-.117.26.26 0 0 0-.091-.1 1 1 0 0 1-.125-.097c-.034-.03-.071-.055-.083-.055-.01 0-.031-.012-.043-.026a.53.53 0 0 0-.255-.115c-.034 0-.065-.008-.07-.017-.006-.011-.05-.018-.096-.018-.054 0-.093-.009-.107-.026-.019-.023-.098-.027-.523-.027-.384 0-.502.005-.508.021m.864.332c.005.008.052.018.101.018.052 0 .115.012.144.025.026.014.06.027.072.027.037 0 .194.083.229.124.017.019.042.034.056.034.029 0 .2.175.2.205 0 .01.015.033.034.051a.8.8 0 0 1 .159.343c0 .037.012.076.027.088.021.019.026.068.026.239s-.005.22-.026.237c-.015.012-.027.051-.027.087 0 .069-.098.279-.16.347-.018.018-.033.042-.033.052 0 .03-.122.149-.152.149-.016 0-.06.031-.099.07a.66.66 0 0 1-.405.176c-.035 0-.072.013-.084.027-.02.022-.066.027-.272.022l-.248-.005-.006-1.168-.004-1.166h.229c.134 0 .232.007.239.018m1.92-.332a66 66 0 0 0-.005 1.503l.005 1.48h.387V8.478l-.189-.005c-.141-.004-.193.001-.198.017"/>
</svg>