<svg xmlns="http://www.w3.org/2000/svg" width="16" height="16" fill="currentColor" class="bi bi-hornet" viewBox="0 0 16 16">
  <path fill-rule="evenodd" d="m6.978.271-.187.027-.468.1-.469.1-.531.187-.531.187-.375.187-.375.188-.515.34-.516.341-.525.497-.527.498-.344.452-.344.45-.259.46-.26.461-.214.552-.213.552-.136.55-.135.549-.005.999-.005 1 .087.438.087.436.174.54.175.54.279.553.28.554.329.469.329.469.579.571.578.571.52.343.519.345.5.248.5.249.506.161.509.16.523.111.524.111.967-.001.969-.001.528-.113.527-.114.448-.146.448-.147.524-.249.524-.25.469-.309.468-.31.547-.512.547-.512.396-.528.396-.528.285-.544.284-.543.194-.594.194-.594.093-.53.094-.532V7.309l-.097-.554-.097-.555-.186-.557-.187-.557-.29-.563-.292-.563-.358-.473-.358-.473-.302-.319-.301-.32-.374-.313-.376-.314-.411-.256-.411-.258-.591-.279-.591-.281-.747-.195-.746-.196-1.032-.02-1.031-.02zM4.011 2.543v.062l.628.875.629.877h.096l.456-.156.456-.155.257.201.258.201.907.715.905.715.234.208.235.207h.187v-.138l-.387-.875-.387-.875-.128-.079-.129-.081-2.036-.881-2.037-.882h-.144zM4.823 4.6l-1.28.419-.017.091-.017.089 2.454.525 2.453.526.209.029.209.03-.022-.098-.021-.097-1.241-.973-1.239-.972-.104.006-.103.006zm2.935 1.773-.096.076-.42.451-.419.45.002.206.001.206.206.717.205.719.558.294.559.295h.155l.156-.001L9.75 8.44l1.085-1.346.03-.113.03-.113-.115-.035-.115-.035-1.273-.252-1.273-.253-.133.002-.133.002zm4.347.373-.024.077-.067.213-.069.212v.17h.181l.097-.14.098-.138v-.472h-.192zm-1.532.78-.439.547v.223l.16.642.162.643.052.084.053.085.284-.109.286-.109.241-.275.242-.274.134-.35.135-.353v-.431l-.352-.434-.35-.435h-.168zM6.225 9.289l-.253.129-.543.588-.543.589v.125l.109.032.109.031 1.608.174 1.605.171.028-.028.029-.028.07-.516.071-.517-.042-.068-.043-.07-.725-.345-.727-.344-.249-.026-.25-.027zM4.96 11.038l.02.123.781 1.031.78 1.031.103.002.102.002.788-.903.788-.904v-.178L7.9 11.2l-.421-.042-1.092-.121-1.091-.122H4.94zm2.366 1.638-.508.574.018.096.019.095.468.11.467.108.43.003.428.002.774-.103.773-.102v-.151l-1.119-.602-1.121-.603h-.12z"/>
</svg>