<svg xmlns="http://www.w3.org/2000/svg" width="16" height="16" fill="currentColor" class="bi bi-jff-filled" viewBox="0 0 16 16">
  <path fill-rule="evenodd" d="M0 8.056v8.055h16.04V0H0zm3.749-4.765-.153.064-.116.164-.115.165v6.807l-.125.25-.125.251-.342.169-.341.17-.303-.087-.303-.088-.24-.037-.238-.037-.165.088-.165.087-.079.175-.08.174v.342l.185.218.184.22.366.108.365.109h.817l.373-.121.374-.12.354-.32.356-.32.193-.364.192-.366.021-3.664.02-3.662-.163-.186-.164-.186-.215-.035-.215-.033zm2.486.188-.221.186v8.555l.162.145.161.147.166.039.167.041.211-.075.212-.073.106-.204.104-.203V8.45h2.07l.199-.172.199-.172v-.58l-.172-.182-.172-.184H7.3l.02-1.271.019-1.271 1.178-.019 1.179-.02.136-.123.137-.124.066-.171.066-.172-.08-.241-.08-.242-.205-.106-.206-.106H6.456zm4.946-.003-.225.189v8.446l.077.144.077.145.245.103.245.102.242-.101.242-.102.063-.096.062-.097.036-1.862.036-1.861 1.062-.036 1.062-.036.174-.201.172-.201v-.411l-.184-.219-.184-.218-1.052-.019-1.05-.021V4.618l1.253-.039 1.253-.041.016-.013.016-.014.116-.224.114-.223-.042-.232-.044-.232-.149-.136-.15-.135-1.629-.021-1.63-.022z"/>
</svg>