<svg xmlns="http://www.w3.org/2000/svg" width="16" height="16" fill="currentColor" class="bi bi-jff" viewBox="0 0 16 16">
  <path fill-rule="evenodd" d="m3.046 3.42-.194.209v3.784c0 4.335.017 4.211-.644 4.545-.349.177-.394.181-.754.081-.776-.22-.865-.218-1.129.028-.476.444-.245 1.136.46 1.385.441.157 1.468.16 1.901.007.498-.177 1.098-.725 1.361-1.247l.229-.453V3.635l-.222-.212c-.305-.292-.739-.293-1.008-.003m2.95.055-.218.179.02 4.809.02 4.811.287.167c.253.146.321.154.599.071.208-.062.347-.164.407-.297.062-.137.092-.851.092-2.215V8.986h1.15c1.06 0 1.169-.013 1.385-.173.194-.144.234-.23.234-.504a.87.87 0 0 0-.164-.539l-.164-.208H7.18l.051-.534c.027-.294.051-.911.051-1.373l.001-.838 1.312-.047c1.071-.037 1.341-.071 1.459-.177.33-.299.252-1.039-.128-1.213-.131-.059-.797-.089-1.955-.087-1.705.003-1.763.008-1.975.182m5.459-.001-.217.177v4.73c0 2.977.028 4.783.078 4.876.123.23.577.349.911.238.153-.05.309-.151.346-.224.037-.072.093-1.039.122-2.147.031-1.109.063-2.023.072-2.033.01-.01.533-.042 1.163-.071 1.108-.053 1.15-.061 1.32-.262a.77.77 0 0 0-.007-.983c-.18-.22-.19-.223-1.342-.27l-1.16-.046V4.816l.724-.051a24 24 0 0 1 1.383-.052h.658l.147-.295c.178-.359.116-.776-.146-.988-.154-.125-.366-.139-2.004-.137-1.778.003-1.836.008-2.048.181"/>
</svg>