<svg xmlns="http://www.w3.org/2000/svg" width="16" height="16" fill="currentColor" class="bi bi-manhunt" viewBox="0 0 16 16">
  <path fill-rule="evenodd" d="m1.67 2.381-.372.136-.203.143-.204.144-.267.291-.268.292-.151.324-.153.324-.02 4.536-.02 4.538h4.973l.02-.998.019-.996.489.61.49.61.362.244.363.245.301.104.3.103.415.046.415.046.421-.085.421-.086.332-.166.332-.165.313-.299.313-.3.332-.409.331-.409v1.905l.728.005.728.005 1.74.013 1.74.011.019-4.379.02-4.379-.114-.35-.115-.35-.213-.332-.214-.331-.343-.249-.343-.247-.413-.145-.414-.144-.579.033-.58.032-.383.173-.383.173-.272.236-.271.234-1.565 1.895-1.566 1.894-.079.087-.078.087-.638-.752-.638-.752-1.124-1.315-1.125-1.314-.228-.173-.229-.173-.351-.152-.349-.153-.64-.026-.641-.027zm.31.776-.202.064-.23.155-.23.156-.171.246-.171.247-.02 4.122-.019 4.12h3.125l.019-1.788L4.1 8.69l1.232 1.489 1.232 1.488.26.186.259.186.273.086.272.088.508-.028.51-.028.261-.126.261-.125.236-.226.236-.226 1.101-1.352 1.101-1.351.019 1.759.019 1.757h3.199l-.021-4.011-.02-4.011L14.905 4l-.132-.246-.152-.164-.152-.164-.284-.15-.283-.149-.569-.002-.567-.001-.343.167-.342.165-2.026 2.445L8.03 8.344h-.037L6.816 6.96 5.64 5.576l-.653-.771-.653-.77-.287-.301-.285-.302-.293-.147-.291-.148-.497-.022-.498-.022zm.132.592-.213.093-.162.173-.161.172-.07.239-.069.238v7.046l1.048-.019 1.047-.019.019-2.189.019-2.19.088.004.088.003 1.668 2.008 1.669 2.009.285.159.284.158.344.002.345.002.242-.115.243-.113.3-.331.301-.329 1.379-1.693 1.377-1.694h.191v4.344h2.131V4.591l-.16-.313-.16-.312-.283-.157-.284-.157-.291-.001-.291-.002-.298.158-.298.158-1.242 1.506-1.242 1.507-.903 1.102-.904 1.103-.132-.016-.13-.018-2.214-2.591L3.46 3.965l-.316-.158-.316-.158-.252.003-.251.003zm-.071.266-.142.08-.086.11-.088.111-.001 3.555-.003 3.556h1.561l.019-2.466.019-2.467L5.191 8.75l1.871 2.257.207.17.206.171.307.046.306.045.293-.077.291-.078.248-.261.247-.262 1.117-1.365L11.4 8.029l.612-.758.61-.759.019 2.458.019 2.457h1.561V4.34l-.208-.205-.207-.205h-.857l-.175.078-.176.079-2.286 2.754-2.286 2.754-.406-.468-.404-.467-1.928-2.254-1.927-2.253-.161-.112-.161-.111-.428.002-.428.001z"/>
</svg>