<svg xmlns="http://www.w3.org/2000/svg" width="16" height="16" fill="currentColor" class="bi bi-naked-sword" viewBox="0 0 16 16">
  <path d="m.071 6.389.011 1.707h.729l.011-1.032c.004-.705.022-1.029.047-1.029.055 0 .176.153.179.222 0 .033.026.081.055.106.029.026.055.073.055.106 0 .037.051.109.109.168.062.058.109.131.109.168 0 .032.026.08.055.105.029.026.055.073.055.106 0 .037.051.109.109.168.062.058.11.131.11.167 0 .033.025.08.054.106a.17.17 0 0 1 .055.106c0 .036.051.11.11.168.061.058.108.131.108.164s.041.095.085.142c.08.073.117.077.539.069l.453-.01.01-1.707.008-1.703h-.383c-.321 0-.383.011-.383.054a.09.09 0 0 1-.055.077c-.029.014-.055.044-.055.069s.026.055.055.07c.048.017.055.16.055.987 0 .672-.011.967-.04.967-.055 0-.175-.153-.179-.222 0-.029-.051-.102-.11-.161-.057-.058-.108-.131-.108-.168 0-.032-.026-.08-.055-.106a.16.16 0 0 1-.055-.105c0-.037-.047-.109-.109-.168-.059-.058-.11-.131-.11-.168a.16.16 0 0 0-.055-.105.17.17 0 0 1-.054-.106c0-.036-.048-.11-.11-.168-.061-.058-.109-.131-.109-.167a.17.17 0 0 0-.054-.106.16.16 0 0 1-.055-.106c0-.036-.048-.109-.11-.168-.058-.058-.109-.127-.109-.153 0-.036-.102-.047-.438-.047H.063zm4.587-1.652c0 .025-.025.069-.054.094-.029.026-.055.099-.055.165 0 .065-.025.138-.054.164a.16.16 0 0 0-.055.109.17.17 0 0 1-.055.109.17.17 0 0 0-.054.11.17.17 0 0 1-.055.109c-.03.026-.055.099-.055.164 0 .066-.026.139-.055.165a.16.16 0 0 0-.054.109.17.17 0 0 1-.055.109c-.029.026-.055.099-.055.164 0 .066-.025.139-.055.164a.17.17 0 0 0-.054.11.17.17 0 0 1-.055.109.17.17 0 0 0-.055.11.16.16 0 0 1-.055.109c-.029.026-.054.099-.054.164 0 .066-.026.139-.055.164a.17.17 0 0 0-.054.11.17.17 0 0 1-.055.109c-.03.025-.055.099-.055.164 0 .066-.026.139-.055.165a.16.16 0 0 0-.054.109.17.17 0 0 1-.055.109c-.11.092-.047.11.357.11.387 0 .42-.008.492-.084a.3.3 0 0 0 .081-.197c0-.062.022-.132.051-.157a.22.22 0 0 0 .066-.12c.01-.077.025-.08.627-.091.591-.008.62-.008.704.069.044.048.084.109.084.146 0 .033.022.08.051.106.029.021.058.102.066.174l.011.136.484.01c.471.011.54-.007.427-.102a.17.17 0 0 1-.055-.109.16.16 0 0 0-.054-.109c-.03-.026-.055-.099-.055-.165 0-.065-.026-.139-.055-.164a.17.17 0 0 1-.055-.109.17.17 0 0 0-.054-.11c-.029-.025-.055-.098-.055-.164 0-.065-.025-.138-.055-.164a.17.17 0 0 1-.055-.109.17.17 0 0 0-.054-.11.17.17 0 0 1-.054-.109.17.17 0 0 0-.055-.11c-.03-.025-.055-.098-.055-.164 0-.065-.026-.138-.055-.164a.17.17 0 0 1-.054-.109.17.17 0 0 0-.055-.109c-.03-.026-.055-.099-.055-.165 0-.065-.026-.138-.055-.164a.16.16 0 0 1-.054-.109.17.17 0 0 0-.055-.11c-.029-.025-.055-.098-.055-.163 0-.066-.025-.139-.055-.165a.17.17 0 0 1-.054-.109.17.17 0 0 0-.055-.11c-.029-.025-.055-.069-.055-.094 0-.04-.08-.051-.382-.051-.303 0-.384.011-.384.051m.438 1.057c0 .047.026.106.055.132.029.025.055.098.055.164 0 .065.025.138.055.163.028.026.054.1.054.165 0 .066.026.139.054.164a.14.14 0 0 1 .048.124c-.011.073-.033.076-.375.076h-.365l-.011-.131q-.012-.127.043-.179c.034-.025.059-.098.059-.164 0-.065.026-.138.055-.164a.17.17 0 0 0 .054-.109c0-.037.026-.084.055-.109a.2.2 0 0 0 .055-.132c0-.055.022-.087.055-.087.032 0 .054.032.054.087m1.867.595.011 1.707.354.01c.317.008.361.004.431-.065.087-.088.091-.132.018-.161-.044-.014-.055-.102-.055-.474 0-.393.008-.459.065-.492.059-.037.059-.044 0-.092-.091-.068-.08-.131.019-.131.095 0 .354.245.354.332 0 .03.098.149.219.27.12.121.219.241.219.274 0 .032.108.168.247.302l.248.245h.464c.372 0 .463-.011.463-.051 0-.029-.026-.059-.055-.073a.09.09 0 0 1-.055-.084c0-.037-.146-.216-.328-.394-.179-.179-.328-.354-.328-.383 0-.033-.124-.179-.274-.328-.149-.15-.274-.299-.274-.332a.17.17 0 0 0-.054-.106.17.17 0 0 1-.054-.106c0-.032.295-.354.656-.715.532-.532.656-.674.656-.754v-.102h-.492c-.394 0-.493.011-.493.051 0 .025-.025.069-.054.094-.029.026-.055.074-.055.106 0 .033-.146.208-.328.387-.179.178-.328.354-.328.383 0 .087-.274.335-.35.321-.063-.011-.07-.059-.08-.533-.008-.437 0-.522.047-.539.069-.03.069-.11 0-.139a.09.09 0 0 1-.055-.077c0-.043-.062-.054-.383-.054h-.383zm3.282 0 .012 1.707h2.261v-.62l-.748-.019-.748-.018V6.71l.694-.019.692-.018v-.62l-.692-.018-.694-.018v-.62l.748-.019.748-.018.011-.339.011-.335h-2.301zm2.517 0 .011 1.707.843.01c.718.008.849 0 .889-.047.03-.033.11-.055.219-.055.11 0 .19-.021.219-.055a.17.17 0 0 1 .106-.054c.076 0 .66-.584.66-.66 0-.033.026-.08.055-.106.04-.033.054-.116.054-.281 0-.204.011-.24.073-.255.062-.018.073-.051.073-.23 0-.178-.011-.212-.073-.229-.062-.015-.073-.052-.073-.201 0-.117-.018-.197-.054-.226-.029-.026-.055-.074-.055-.106 0-.076-.584-.66-.66-.66a.16.16 0 0 1-.106-.055c-.033-.04-.117-.055-.281-.055-.204 0-.241-.011-.255-.072-.018-.07-.051-.073-.835-.073h-.817zm1.415-.956c.025.029.099.055.164.055.066 0 .139.026.164.054.026.03.073.055.102.055.081 0 .336.255.336.332 0 .033.025.08.055.106.04.033.055.127.055.383 0 .255-.015.35-.055.383a.16.16 0 0 0-.055.102c0 .033-.084.146-.189.252-.15.153-.216.193-.307.193-.062 0-.135.026-.16.055-.037.047-.117.054-.398.047l-.35-.011-.011-.984c-.003-.54 0-1.004.011-1.029.026-.073.58-.066.638.007M.829 8.278c-.026.029-.098.055-.16.055-.095 0-.161.047-.361.247l-.245.248v.876l.194.19c.105.105.219.189.251.189a.16.16 0 0 1 .102.055c.037.044.157.055.654.055.535-.004.615-.011.688-.07.044-.04.08-.08.08-.095 0-.043-.159-.16-.222-.164a.16.16 0 0 1-.105-.055.18.18 0 0 0-.11-.054.17.17 0 0 1-.109-.055c-.026-.029-.099-.055-.165-.055-.065 0-.138-.025-.163-.055-.026-.028-.073-.054-.106-.054-.208 0-.306-.419-.139-.576.069-.066.128-.081.306-.081.153 0 .234.019.267.055.025.03.073.055.109.055s.084.026.11.055a.16.16 0 0 0 .105.054c.077 0 .441-.364.441-.441 0-.073-.149-.215-.225-.215-.034 0-.077-.026-.102-.055-.026-.029-.099-.054-.165-.054-.065 0-.138-.026-.164-.055-.032-.04-.127-.055-.382-.055-.256 0-.351.015-.384.055m7.112 0c-.026.029-.099.055-.164.055-.066 0-.139.025-.164.054-.026.029-.073.055-.106.055-.077 0-.551.474-.551.554a.17.17 0 0 1-.054.102.17.17 0 0 0-.055.11.17.17 0 0 1-.055.109c-.088.073-.062.416.029.43.036.008.095-.01.132-.043.04-.037.153-.059.35-.066l.291-.011.011-.128c.015-.142.234-.401.339-.401a.16.16 0 0 0 .106-.054c.062-.077.701-.08.766-.004a.22.22 0 0 0 .12.066c.044.007.084.043.092.083s.073.136.145.208c.143.15.325.187.409.085.026-.03.124-.055.23-.063.16-.011.189-.022.2-.087a.14.14 0 0 0-.047-.124.17.17 0 0 1-.055-.11.17.17 0 0 0-.055-.109.17.17 0 0 1-.054-.106c0-.076-.256-.331-.332-.331-.029 0-.102-.052-.16-.11-.074-.077-.139-.109-.223-.109-.062 0-.135-.026-.161-.055-.036-.044-.138-.055-.492-.055-.353 0-.455.011-.492.055m-5.69.106c0 .025.026.058.055.072.033.011.055.066.055.143 0 .069.026.146.055.171.032.029.054.109.054.219 0 .109.022.189.055.219s.055.109.055.219c0 .106.021.189.055.218.029.026.054.124.062.23l.01.19.234.011c.164.007.248-.004.292-.04a.3.3 0 0 1 .131-.07c.058-.011.076-.043.084-.197.007-.131-.004-.196-.048-.233-.036-.029-.054-.105-.054-.219 0-.109-.022-.19-.055-.219s-.055-.109-.055-.219c0-.105-.022-.189-.051-.218-.029-.022-.058-.102-.066-.175l-.01-.135-.427-.011c-.354-.007-.431 0-.431.044m1.886-.03a.5.5 0 0 0-.025.198c0 .109-.023.189-.055.218-.033.029-.055.109-.055.219 0 .109-.021.189-.055.219-.032.029-.054.109-.054.219 0 .112-.018.189-.059.218-.036.033-.051.096-.044.179l.012.131.233.011c.197.011.244 0 .317-.069.047-.044.088-.109.088-.139.004-.068.124-.222.178-.222.019 0 .04.069.048.154l.011.156h.62l.011-.186c.007-.131-.004-.197-.047-.233-.037-.03-.055-.106-.055-.219 0-.11-.022-.19-.055-.219s-.055-.11-.055-.219c0-.106-.022-.19-.051-.218a.23.23 0 0 1-.066-.121c-.011-.077-.032-.08-.415-.091a2.6 2.6 0 0 0-.427.014m1.915.062c-.059.062-.08.132-.08.252 0 .102-.023.182-.055.211-.036.034-.055.117-.055.274 0 .161-.018.241-.058.274-.037.032-.051.095-.044.178l.011.132H6.5l.011-.135c.007-.073.037-.154.066-.175.029-.03.051-.113.051-.219 0-.11.022-.19.055-.219.032-.029.054-.11.054-.219 0-.113.018-.19.055-.218a.15.15 0 0 0 .048-.125c-.012-.069-.037-.076-.358-.087-.328-.007-.354-.004-.43.076m4.201-.036c-.008.025-.011.27-.008.539l.012.489.179.011q.175.01.236-.04a.3.3 0 0 1 .132-.069c.055-.007.076-.047.091-.157l.018-.146.343-.011c.31-.011.35-.003.426.07a.33.33 0 0 1 .096.157c.014.094.145.12.211.04.033-.04.113-.055.296-.055.189 0 .251-.011.251-.051 0-.03-.026-.059-.055-.073-.032-.011-.054-.066-.054-.142 0-.095-.037-.157-.194-.31-.105-.106-.218-.19-.251-.19-.03 0-.077-.026-.102-.055-.062-.077-1.598-.084-1.627-.007m2.516 0c-.007.025-.01.219-.007.431l.011.378.186.011c.131.008.197-.003.233-.047.026-.029.099-.055.165-.055.065 0 .138-.025.164-.054.036-.044.135-.055.437-.055.303 0 .401.011.438.055.025.029.106.054.182.054.088 0 .146-.018.161-.054.015-.044.087-.055.331-.055.253 0 .31.011.31.055 0 .043-.061.054-.327.054-.325 0-.38.023-.274.11a.17.17 0 0 1 .055.109c0 .037.025.084.054.11a.17.17 0 0 1 .055.109.16.16 0 0 0 .055.109c.04.033.055.121.055.329s-.015.295-.055.328c-.03.025-.055.099-.055.16 0 .128-.124.277-.226.277-.033 0-.077.026-.102.055a.17.17 0 0 1-.11.055.16.16 0 0 0-.109.055c-.04.047-.124.054-.453.047l-.404-.011-.011-.868c-.003-.474-.022-.864-.04-.864s-.051.025-.077.055c-.029.036-.135.054-.339.062l-.299.01-.011 1.174-.007 1.179h.762c.471 0 .773-.015.788-.037.011-.021.102-.036.197-.036.113 0 .193-.019.222-.055.026-.029.098-.055.161-.055.083 0 .149-.032.222-.109.059-.062.131-.11.165-.11.072 0 .327-.259.327-.335 0-.029.026-.077.055-.102a.17.17 0 0 0 .055-.11.17.17 0 0 1 .055-.109c.036-.029.054-.109.054-.226 0-.15.011-.186.073-.201.062-.018.073-.051.073-.229s-.011-.212-.073-.23c-.062-.015-.073-.051-.073-.219 0-.146-.014-.204-.054-.222-.029-.011-.055-.051-.055-.088a.17.17 0 0 0-.055-.117.17.17 0 0 1-.055-.105c0-.077-.364-.441-.444-.441-.03 0-.077-.026-.102-.055-.026-.03-.099-.055-.165-.055s-.138-.026-.164-.055c-.062-.077-1.925-.084-1.955-.007m-.561.992c-.022.029-.124.055-.23.062-.164.011-.19.022-.208.102-.011.051-.051.095-.091.102a.4.4 0 0 0-.131.066c-.044.04-.139.051-.347.043-.27-.01-.284-.014-.306-.102-.022-.087-.03-.091-.328-.091h-.31l-.012 1.065-.006 1.069h.656v-.613c0-.602 0-.617.087-.697.106-.098.219-.087.234.023a.2.2 0 0 0 .065.12c.03.025.051.073.051.109s.026.084.055.109c.03.026.055.074.055.11s.026.084.055.109a.17.17 0 0 1 .054.11c0 .036.026.084.055.109a.17.17 0 0 1 .055.109c0 .037.025.085.055.11a.17.17 0 0 1 .054.109c0 .135.117.183.445.183.252 0 .321-.011.368-.066.059-.062.055-.073-.047-.171-.062-.059-.109-.131-.109-.168 0-.033-.026-.08-.055-.106a.17.17 0 0 1-.055-.109.17.17 0 0 0-.055-.11.17.17 0 0 1-.054-.109.17.17 0 0 0-.055-.11.17.17 0 0 1-.055-.109.16.16 0 0 0-.055-.109.18.18 0 0 1-.054-.117c0-.037-.026-.077-.054-.088-.085-.032-.066-.123.028-.123.052 0 .154-.074.274-.194.15-.153.19-.215.19-.309 0-.074.022-.128.054-.14q.117-.042-.025-.164-.155-.122-.248-.014m-2.929.295c-.044.044-.029.15.03.197a.17.17 0 0 1 .054.11.17.17 0 0 1-.054.109c-.034.029-.055.11-.055.219s-.022.19-.055.219a.17.17 0 0 0-.055.105c0 .077-.149.223-.226.223-.033 0-.076.025-.102.055s-.098.054-.164.054-.139.026-.164.055a.142.142 0 0 1-.219 0c-.026-.029-.098-.055-.16-.055-.091 0-.157-.04-.307-.193-.106-.105-.189-.219-.189-.252 0-.029-.026-.076-.055-.102-.033-.025-.055-.127-.062-.284l-.011-.244h-.73l-.01.35c-.008.28 0 .361.047.397a.17.17 0 0 1 .055.109c0 .037.025.084.055.11a.17.17 0 0 1 .054.106c0 .076.474.55.555.55.029 0 .076.026.102.055a.17.17 0 0 0 .113.055c.036 0 .076.015.087.036.029.047 1.101.047 1.131 0 .011-.018.076-.036.142-.036.069 0 .142-.026.168-.055a.16.16 0 0 1 .106-.055c.076 0 .441-.364.441-.444 0-.03.026-.077.054-.103a.17.17 0 0 0 .055-.109c0-.036.025-.084.055-.11s.055-.098.055-.164.025-.138.054-.164c.048-.036.055-.116.048-.397l-.011-.35-.405-.011c-.219-.004-.412.003-.427.014m-3.552.387a.4.4 0 0 0-.091.157c-.018.113-.182.098-.212-.018-.021-.088-.032-.092-.328-.092-.288 0-.31.007-.321.077a.15.15 0 0 0 .048.124c.036.029.054.105.054.219 0 .109.023.19.055.218.033.029.055.11.055.219 0 .106.022.19.055.219.029.026.054.124.062.23l.01.189.398.011c.369.008.405.004.481-.069.07-.065.088-.12.088-.255 0-.106.022-.186.055-.215.032-.03.055-.11.055-.219 0-.11.021-.189.054-.219s.054-.109.054-.219c0-.113.019-.189.055-.218a.15.15 0 0 0 .048-.125c-.011-.069-.04-.076-.303-.087-.266-.007-.303-.004-.372.073m-2.283.193c-.018.037-.102.055-.325.062-.273.011-.302.018-.313.088a.14.14 0 0 0 .048.124c.029.025.054.098.054.164s.026.138.055.164c.033.029.054.109.054.219 0 .106.022.189.051.218.03.022.059.102.066.176l.011.134h.839l.011-.134c.007-.074.037-.154.065-.176.029-.029.052-.112.052-.218 0-.11.022-.19.054-.219.029-.026.055-.098.055-.164s.025-.139.058-.164q.056-.051.044-.179l-.011-.131h-.62l-.011.098c-.018.143-.116.135-.116-.007 0-.117-.085-.153-.121-.055m-2.068.215c0 .026.026.059.055.073.037.015.055.073.055.197 0 .266-.091.336-.445.336-.201 0-.289-.015-.321-.055a.17.17 0 0 0-.11-.055c-.036 0-.109-.047-.157-.109a.5.5 0 0 0-.113-.11c-.006 0-.098.088-.2.19-.139.146-.186.223-.186.306 0 .121.124.27.226.27.033 0 .077.026.102.055a.18.18 0 0 0 .113.055c.037 0 .077.018.088.036.029.047 1.101.047 1.131 0 .01-.021.051-.036.087-.036.076 0 .331-.255.331-.335 0-.03.026-.077.055-.103a.16.16 0 0 0 .055-.109.17.17 0 0 1 .055-.11c.043-.036.054-.105.047-.288l-.01-.241-.427-.011c-.354-.007-.431 0-.431.044"/>
</svg>