<svg xmlns="http://www.w3.org/2000/svg" width="16" height="16" fill="currentColor" class="bi bi-nkp" viewBox="0 0 16 16">
  <path d="M.046 7.97v8.073h16.147V-.104H.046zm7.147-4.713c.035.042.046.542.046 1.976-.004 1.637.004 1.926.054 1.968.039.03.235.042.696.03l.638-.01.13-.15.132-.15.007-.831.012-.83h1.46l.012.922c.008.773 0 .954-.054 1.115-.073.22-.196.473-.269.561a.24.24 0 0 0 0 .3c.081.1.204.354.27.577.05.161.06.392.06 1.123v.918l-.737-.007-.742-.012-.012-.83-.007-.83-.131-.15-.13-.15-.639-.012c-.473-.012-.657 0-.7.035-.05.038-.057.192-.054.953.004.5.004.93 0 .957 0 .039-.161.046-.738.039l-.742-.012-.011-3.702c-.004-2.51.004-3.725.03-3.78.039-.068.089-.072.708-.072.534 0 .677.011.711.054M3.987 5.313c.338.108.438.158.68.339.362.277.515.488.727 1.01.042.112.054.5.054 2.115v1.98H3.987l-.02-1.849c-.022-2.064 0-1.915-.292-2.095-.111-.07-.18-.073-.792-.066l-.665.012-.019 2-.02 1.998-.737.012-.742.007v-2.74c0-1.512.011-2.757.027-2.769.011-.015.7-.027 1.526-.027 1.365 0 1.522.008 1.734.073m10.426-.011c.38.165.465.215.62.369.168.17.21.234.349.527.077.161.08.226.08 1.595-.003 1.284-.01 1.446-.072 1.63a1 1 0 0 1-.116.25c-.023.023-.042.058-.042.073 0 .02-.073.13-.161.246a2.2 2.2 0 0 1-.723.596c-.346.158-.404.165-1.269.188l-.865.02-.011 1.015c-.004.672-.024 1.034-.05 1.068-.035.039-.204.05-.727.05-.588 0-.688-.007-.707-.061-.031-.08-.031-7.57.003-7.6.012-.016.815-.028 1.784-.028 1.542 0 1.78.008 1.907.062"/>
  <path d="M12.233 6.836c-.042.107-.054 2.276-.015 2.38.02.053.12.061.711.061s.708-.008.796-.065c.246-.162.238-.116.227-1.338l-.008-1.115-.838-.012-.834-.007z"/>
</svg>