<svg xmlns="http://www.w3.org/2000/svg" width="16" height="16" fill="currentColor" class="bi bi-of" viewBox="0 0 16 16">
  <path fill-rule="evenodd" d="m4.678 2.576-.442.068-.406.119-.408.118-.412.208-.412.208-.407.303-.408.303-.395.465-.395.466-.323.668-.325.666-.115.572-.116.572.001.393v.393l.078.477.077.477.149.45.15.45.288.487.286.488.432.448.431.447.567.37.566.37.657.216.657.215.89-.002.89-.002.483-.128.481-.129.598-.292.596-.293.497-.454.495-.454.402-.61.402-.609.101-.085.102-.084.509-.089.509-.088.59-.295.589-.295.426-.419.427-.419.21-.362.211-.362.175-.482.175-.483-.031-.032-.032-.031-.768.085-.768.084-.408-.048-.408-.049-.173-.041-.174-.042.81-.27.808-.271.52-.308.52-.31.381-.342.38-.342.325-.497.324-.496.154-.371.153-.371.026-.185.026-.185-2.263.01-2.262.01-.544.116-.543.118-.396.182-.397.18-.333.308-.334.308-.359-.255-.357-.256-.371-.185-.371-.186-.495-.152-.494-.153-.618-.036-.618-.037zm.156 3.739-.286.102-.224.21-.223.209-.138.298-.137.296-.002.338-.002.337.188.378.188.376.307.213.306.212h1.137l.274-.185.273-.185.2-.287.2-.286.029-.461.03-.463-.15-.29-.15-.291-.21-.199-.211-.2-.275-.116-.276-.115-.281.003-.28.004z"/>
</svg>