<svg xmlns="http://www.w3.org/2000/svg" width="16" height="16" fill="currentColor" class="bi bi-oink" viewBox="0 0 16 16">
  <path d="M13.995 2.948c-1.9.105-1.988.117-2.772.297-.43.104-1.034.378-1.284.593-.1.08-.204.14-.227.127-.052-.034-1.023-.197-1.441-.244-.262-.034-.599.012-1.563.198-.268.046-.297.04-.54-.145-.146-.11-.291-.198-.326-.198-.04 0-.175-.058-.302-.122-.558-.302-1.57-.436-3.551-.482-1.296-.024-1.43 0-1.662.331-.18.25-.21.715-.058 1.005.11.227.325.866.627 1.854.297 1 .86 1.912 1.535 2.476.168.14.284.279.267.325-.058.151.087 1.313.203 1.639.07.18.157.424.204.546s.128.29.186.378l.337.505c.441.675.959 1.122 1.842 1.598 1.302.704 2.923.831 4.515.36.482-.145 1.284-.534 1.244-.604-.018-.023-.006-.04.023-.034.035.011.198-.088.366-.216q1.77-1.326 1.953-3.864l.034-.494.297-.308c.32-.331.842-1.046.848-1.15 0-.03.053-.163.11-.291.1-.21.42-1.232.588-1.912.04-.163.093-.32.116-.349.099-.133.29-.802.29-.993 0-.29-.15-.581-.371-.715-.221-.14-.57-.163-1.488-.11m1.063.784c.018.029-.046.227-.14.453-.092.221-.168.465-.168.54a.6.6 0 0 1-.052.233c-.087.151-.227.651-.267.942-.023.145-.07.325-.117.406-.162.32-.32.686-.32.75 0 .076-.301.482-.61.814-.22.238-.493.325-.493.156 0-.04-.04-.11-.087-.15-.047-.041-.088-.111-.088-.158s-.08-.261-.18-.47c-.337-.72-.407-.994-.366-1.377.023-.192.076-.384.122-.425a.3.3 0 0 0 .076-.191c0-.059.023-.11.058-.11.029 0 .081-.053.116-.117.047-.093.047-.116-.017-.116-.047 0-.18.14-.29.302-.175.256-.216.378-.25.726-.036.378-.018.477.156 1.011.105.32.227.599.267.616s.076.076.076.134.035.134.081.169c.128.11.233.883.186 1.476-.04.592-.145 1.069-.325 1.47-.064.14-.145.314-.174.383-.157.355-.553.855-.86 1.093a13 13 0 0 0-.43.354c-.094.093-.32.221-.5.285-.18.07-.343.145-.36.169-.053.07-.576.186-1.297.284-.633.088-.732.088-1.307 0-1.174-.186-1.534-.313-2.19-.796-.408-.302-1.053-.953-1.105-1.115-.023-.059-.064-.11-.093-.11s-.052-.036-.052-.082a.28.28 0 0 0-.076-.163.6.6 0 0 1-.116-.22 7 7 0 0 0-.192-.582c-.145-.4-.163-.505-.157-1.278 0-.785.012-.872.157-1.25.436-1.098.46-1.191.43-1.714-.029-.43-.052-.529-.209-.761-.337-.494-.546-.558-.25-.07.262.424.314.738.21 1.244-.053.232-.117.459-.158.5a.4.4 0 0 0-.075.18c-.006.052-.081.25-.163.435-.087.186-.157.372-.157.419 0 .22-.337.046-.773-.401C2.146 7.23 1.542 5.842 1.39 5a3 3 0 0 0-.18-.581c-.174-.401-.232-.605-.174-.64.052-.034 2.36.07 3.109.14.459.046 1.052.198 1.133.29.017.018.134.088.262.152.127.064.342.203.476.302.28.215.349.226.686.099.436-.157 1.389-.221 2.063-.14.337.04.639.093.668.116a.8.8 0 0 0 .262.07c.162.023.244 0 .412-.134.11-.087.273-.191.36-.232s.157-.093.157-.122c0-.023.047-.047.105-.047.052 0 .18-.052.285-.11.099-.064.267-.128.377-.145a6 6 0 0 0 .367-.07 24 24 0 0 1 2.033-.145c.227 0 .512-.024.64-.047.308-.064.598-.075.627-.023"/>
  <path d="M3.331 4.796c.018.03.047.059.064.059.012 0 .023-.03.023-.059 0-.034-.029-.058-.063-.058-.03 0-.041.024-.024.058"/>
</svg>