<svg xmlns="http://www.w3.org/2000/svg" width="16" height="16" fill="currentColor" class="bi bi-pornhub-filled" viewBox="0 0 16 16">
  <path d="M.093.334C.06.351.059.498.059 2.972c0 1.612.007 2.623.017 2.63s.245.012.522.012c.396 0 .507-.004.518-.025.01-.013.017-.454.017-.98s.008-.96.015-.966c.008-.004.295-.013.638-.02.976-.018 1.246-.06 1.572-.253.366-.213.607-.536.71-.941.056-.232.063-.664.014-.89C3.945.909 3.515.479 2.915.372c-.2-.036-.882-.059-1.848-.057-.605 0-.954.006-.974.02m2.172.902c.437.051.697.27.748.632a1 1 0 0 1-.07.41c-.09.206-.297.354-.569.403-.168.03-1.101.06-1.19.037l-.05-.011v-.733c0-.402.005-.738.013-.743.018-.021.939-.015 1.118.005m4.214.472a1.9 1.9 0 0 0-.683.192 1.4 1.4 0 0 0-.415.275 1.7 1.7 0 0 0-.418.56 1.96 1.96 0 0 0-.215.952c.004.504.119.907.347 1.235.124.18.19.247.352.372.615.466 1.548.541 2.233.18.134-.07.505-.355.505-.388a1 1 0 0 1 .1-.13 2 2 0 0 0 .311-.59c.087-.29.089-.307.089-.67s-.008-.42-.087-.685c-.171-.574-.698-1.075-1.291-1.237a3.2 3.2 0 0 0-.64-.081c-.02 0-.105.007-.188.015m.428.837c.307.066.531.27.665.603.04.102.085.389.085.549a2 2 0 0 1-.085.547.9.9 0 0 1-.908.626.76.76 0 0 1-.408-.134c-.22-.145-.335-.31-.422-.605-.025-.09-.032-.185-.032-.434 0-.296.004-.334.05-.483.11-.352.36-.598.68-.667a.7.7 0 0 1 .375-.002m4.22-.837a.78.78 0 0 0-.462.247c-.065.066-.144.16-.18.209q-.08.116-.096.085c-.002-.002-.007-.106-.015-.23l-.011-.226-.445-.006c-.36-.004-.449 0-.468.02-.015.021-.019.521-.017 1.91l.006 1.884h1l.01-.98c.016-1.233.038-1.443.19-1.725.067-.127.084-.146.214-.217.175-.098.447-.085.643.032.104.06.119.045.206-.202l.137-.394c.034-.092.06-.183.06-.202 0-.075-.309-.194-.546-.211a1 1 0 0 0-.226.006m3.243 0a1.7 1.7 0 0 0-.525.173 2 2 0 0 0-.418.336c-.093.111-.111.077-.119-.227l-.004-.197-.456-.006-.458-.004-.01.042c-.005.024-.007.882-.005 1.91l.005 1.866h1l.01-1.122c.01-1.2.018-1.297.11-1.527a.76.76 0 0 1 .37-.392c.126-.064.141-.066.34-.068.182-.002.216.004.292.042a.56.56 0 0 1 .239.226c.102.173.106.211.117 1.578l.011 1.263h1l.005-1.338c.004-1.137 0-1.367-.024-1.528-.068-.432-.211-.667-.519-.846a1.45 1.45 0 0 0-.575-.181 1.2 1.2 0 0 0-.386 0M1.277 6.659c-.02.014-.042.022-.05.018s-.071.02-.143.057-.14.066-.149.066c-.032 0-.386.365-.386.4 0 .016-.008.035-.017.04a1.4 1.4 0 0 0-.14.304c-.03.087-.032.376-.032 3.653.002 3.1.006 3.56.029 3.578a.1.1 0 0 1 .028.07c0 .041.034.124.096.232.01.015.028.053.043.085.04.085.312.341.408.386.08.038.11.053.184.095a.6.6 0 0 0 .138.054c.089.028 13.397.03 13.414.002.005-.011.035-.019.066-.019s.066-.013.083-.028c.015-.015.035-.028.047-.028s.054-.021.096-.047.085-.048.1-.048a1 1 0 0 0 .186-.166 1.1 1.1 0 0 0 .24-.318.8.8 0 0 0 .077-.202c0-.024.013-.055.028-.068.025-.02.029-.443.029-3.6 0-3.116-.004-3.582-.029-3.614a.2.2 0 0 1-.028-.088c0-.029-.007-.051-.017-.051s-.024-.02-.03-.044c-.04-.13-.117-.243-.27-.394a1.2 1.2 0 0 0-.522-.32c-.09-.03-.42-.032-6.769-.032-5.771 0-6.68.003-6.71.026m.29.724a.04.04 0 0 1-.017.028c-.024.016-.08-.007-.066-.028s.083-.022.083 0m12.961 0c.013.02-.026.038-.058.025q-.023-.008-.025-.025c0-.022.07-.022.083 0m.332.296c0 .03-.03.036-.047.008-.015-.025.007-.06.03-.047.01.007.017.024.017.04m-13.715.133c-.021.02-.036-.011-.021-.045.015-.032.015-.032.023 0 .005.019.003.04-.002.045m13.76-.01c-.017.027-.043-.003-.032-.033q.01-.034.026-.006c.008.013.01.032.006.04M2.63 8.2l.052.023-.002.928c0 .761.004.93.025.93.047 0 .123-.048.157-.099q.035-.053.088-.053c.028 0 .051-.009.051-.022 0-.038.06-.09.104-.09.024 0 .049-.014.054-.03.01-.023.027-.03.076-.02.056.012.064.008.075-.036.01-.037.023-.049.057-.043a.12.12 0 0 0 .077-.023c.019-.016.081-.028.162-.03a.5.5 0 0 0 .196-.037c.063-.034.07-.034.129-.004a.6.6 0 0 0 .186.043.6.6 0 0 1 .16.027c.02.009.07.032.116.049.043.018.079.041.079.052s.02.012.047.006c.066-.017.147.038.13.087-.01.032-.006.034.026.013.034-.02.051-.01.163.102a.8.8 0 0 0 .145.126c.011 0 .013.038.005.094-.011.087-.01.095.027.095.05 0 .12.088.105.135a.08.08 0 0 0 .021.072c.02.025.034.077.038.17a.5.5 0 0 0 .03.164c.019.022.024.318.02 1.414l-.005 1.384-.545.004c-.354.002-.547-.004-.547-.015l-.003-1.326c-.004-.922-.012-1.31-.027-1.32-.028-.017-.049-.21-.024-.21.011 0 .017-.012.013-.024a.05.05 0 0 0-.038-.024c-.036 0-.185-.147-.185-.183q.002-.028-.058-.019c-.055.008-.059.006-.045-.034.013-.041.011-.043-.05-.028a1.4 1.4 0 0 1-.397 0q-.071-.014-.072.007c0 .012.013.021.028.021s.029.008.029.02c0 .024-.138.024-.164-.003-.014-.013-.034.004-.068.062-.057.097-.176.212-.234.23-.023.008-.058.044-.08.08-.043.073-.048.101-.02.101.011 0 .019-.016.019-.037s.01-.038.019-.038c.026 0 .024.062-.004.09-.011.012-.023.063-.023.114a.3.3 0 0 1-.03.126c-.024.03-.028.202-.034 1.22l-.004 1.186h-.543l-.54.002-.006-2.695-.004-2.694.06-.032c.053-.025.134-.03.496-.03.298 0 .45.007.487.022m9.23-.001c.033.033.027.066-.016.077-.038.01-.038.022-.034.958.006.875.008.95.038.956.036.007.185-.125.185-.163 0-.01.007-.022.017-.022.007 0 .037-.034.066-.074s.066-.079.083-.085.047-.02.067-.033c.029-.02.038-.02.044-.002.011.032.062.032.062 0 0-.046.117-.13.162-.12q.045.013.062-.02c.014-.026.047-.034.16-.036.104-.002.153-.011.178-.034.043-.037.077-.037.117-.002.019.017.083.03.173.034a.5.5 0 0 1 .193.038.2.2 0 0 0 .088.032c.055 0 .168.072.168.106 0 .03.04.036.07.005s.156.038.156.083c0 .029.01.034.042.027q.04-.012.083.03.075.072.017.07c-.015 0-.029-.01-.029-.02q-.002-.016-.032-.018c-.026 0-.026.004.004.038.038.041.077.049.089.015.01-.025.166.122.166.154 0 .01-.014.02-.03.02q-.025.002-.016.02.01.022.032 0c.03-.03.051-.025.051.015 0 .019.02.05.044.066.028.023.034.034.019.042-.038.017-.029.052.018.073.023.011.057.047.074.083s.041.074.05.083a.1.1 0 0 1 .022.055c0 .017.017.041.04.054q.038.02.03.059a.4.4 0 0 0 .018.132c.027.079.028.122.012.275-.02.177-.02.185.022.223.04.035.044.056.044.235.001.23-.004.255-.055.268-.034.01-.036.02-.025.111.008.055.02.11.029.12a.5.5 0 0 1-.023.244.4.4 0 0 0-.025.102c-.003.045-.017.089-.026.094s-.023.046-.028.085c-.006.042-.023.081-.04.09s-.03.029-.03.042-.03.055-.066.092c-.038.04-.058.07-.047.07.01 0 .019.015.019.034q0 .036-.087.077c-.08.04-.083.046-.05.07s.031.029-.005.055a1.2 1.2 0 0 0-.196.192c-.049.057-.092.093-.107.087-.038-.015-.032-.038.013-.049.023-.006.034-.019.026-.03-.022-.038-.043-.02-.084.064-.036.073-.046.083-.07.062-.023-.019-.034-.017-.057.013a.07.07 0 0 1-.071.032c-.038-.005-.048.002-.048.032q0 .04-.05.051a.3.3 0 0 0-.072.027c-.01.007-.051.019-.089.026s-.071.023-.077.036c-.011.036-.596.038-.611.002-.006-.015-.034-.027-.062-.027s-.074-.017-.1-.037-.055-.038-.064-.036c-.044.007-.062-.006-.062-.042 0-.034-.01-.037-.05-.03-.037.008-.052 0-.06-.028-.005-.028-.02-.036-.055-.028-.035.005-.05-.002-.064-.038-.015-.041-.018-.043-.047-.017-.026.028-.034.026-.075-.011-.025-.025-.045-.051-.045-.063 0-.026-.172-.179-.202-.179-.019 0-.025.047-.025.202 0 .113-.007.211-.015.223s-.198.018-.503.018h-.49l.003-2.703.006-2.706.05-.023c.074-.032.97-.035 1.002-.003M7.256 9.74c.032.064.034 2.129.001 2.408-.018.173-.018.196.01.228a.3.3 0 0 1 .045.098c.032.168.238.375.37.377a.3.3 0 0 1 .088.028c.063.036.16.036.213 0 .044-.028.174-.028.22 0q.021.014.016-.02-.007-.037.038-.042c.024-.004.049-.019.054-.034s.03-.026.055-.026c.051 0 .12-.053.12-.089 0-.013.014-.024.03-.024s.027-.02.027-.05c0-.026.025-.08.055-.118.045-.057.057-.093.062-.183.004-.06.012-.108.017-.102s.025-.002.04-.015c.028-.023.03-.147.002-.268-.01-.043-.012-.043-.025-.01-.026.072-.04-.058-.015-.144.017-.057.027-.377.034-1.071l.01-.99H9.76l.01.056c.02.085.02 3.824.003 3.852-.021.03-1.003.044-1.005.014 0-.012 0-.1.002-.198.002-.129-.006-.19-.025-.215-.026-.036-.03-.036-.102.02a.4.4 0 0 0-.1.114c-.049.094-.098.135-.135.116-.029-.015-.038-.009-.053.032-.015.04-.027.046-.042.03-.034-.033-.066-.026-.077.014q-.007.04-.049.026c-.032-.007-.045 0-.053.03-.005.023-.03.046-.06.051a.3.3 0 0 0-.07.029c-.028.022-.132.022-.249 0-.102-.02-.162-.012-.143.018.006.01.047.017.094.017.045 0 .083.008.083.017 0 .027-.153.042-.388.038-.196-.006-.22-.01-.23-.04-.008-.028-.021-.033-.062-.024s-.063.002-.097-.032c-.022-.023-.058-.04-.075-.038q-.036.006-.053-.043c-.015-.038-.028-.047-.056-.038q-.04.012-.05-.019c-.007-.019-.026-.028-.048-.022-.04.011-.114-.047-.106-.085q.006-.022-.055-.017c-.036.002-.062-.004-.062-.015s.013-.02.028-.02q.075-.001-.058-.086c-.072-.045-.083-.062-.074-.098.008-.034.002-.043-.026-.043-.045 0-.058-.034-.034-.09.023-.05.002-.084-.026-.042-.015.024-.02.024-.036 0-.025-.038-.023-.062.007-.123.027-.05.023-.103-.007-.103-.023 0-.038.052-.027.084.008.015.002.029-.009.029s-.02-.032-.02-.074-.008-.08-.02-.087c-.028-.017-.022-.064.01-.096q.028-.028.028-.152c0-.108-.004-.123-.032-.115-.032.009-.034-.063-.028-1.313.004-.905.013-1.33.026-1.344.015-.02.13-.025.522-.02l.5.005zm4.678.3c.022.013.022.022.001.056-.041.064-.08.044-.06-.032.011-.045.02-.049.059-.024M1.152 14.57c0 .048-.005.055-.019.034-.024-.037-.024-.094 0-.094.012 0 .02.028.02.06m13.75-.01q-.01.033-.026.005c-.017-.028-.004-.06.02-.045.01.005.012.024.006.04"/>
  <path d="M1.614 8.293c-.005.013-.007 1.207-.005 2.653.003 2.083.01 2.63.03 2.638.017.005.022-.534.022-2.653 0-2.512-.003-2.751-.047-2.638m1.26 1.736c-.04.038-.066.074-.059.081s.046-.018.081-.058c.087-.092.072-.107-.022-.023m2.053.125q.008.02.02.022c.023-.001.018-.028-.005-.037-.013-.004-.02.004-.015.015m-1.482.222q-.042.044.066.044.078 0 .07-.023c-.01-.024-.115-.041-.136-.02m-.537.261c-.025.025-.034.046-.023.046.032 0 .102-.07.083-.081-.01-.006-.036.009-.06.035m1.204.223c0 .026.01.053.02.058.01.008.018-.013.018-.045s-.007-.058-.019-.058c-.01 0-.019.02-.019.045m.068.343c-.02.053-.013 2.36.008 2.374.013.007.019-.396.019-1.196 0-.665-.004-1.208-.008-1.208s-.013.013-.019.03m.979 1.177c0 .658.002.927.004.597.003-.328.003-.867 0-1.197-.002-.328-.004-.058-.004.6m7.457-1.988c0 .023.02.027.094.023.12-.008.115-.042-.003-.047-.068-.002-.09.004-.09.024m-.172.047q-.031.021-.002.03c.054.023.018.046-.053.035-.07-.012-.076-.01-.076.028 0 .034-.007.04-.041.032-.055-.015-.16.09-.16.162 0 .058-.036.107-.076.107q-.028.001-.017.03c.006.018-.005.052-.026.078s-.038.07-.038.094q0 .048-.04.057c-.031.01-.037.02-.026.06a.6.6 0 0 1 .013.189c-.003.071-.007.079-.032.058-.017-.013-.036-.019-.043-.011-.019.019-.02.435-.002.466.011.018.02.018.042 0 .024-.02.03-.008.035.083a.5.5 0 0 1-.007.131c-.01.014.002.046.024.074.023.03.04.077.04.117q0 .066.036.085c.02.01.036.037.036.064s.009.047.02.047q.02.002.01.043c-.012.048.015.078.105.125a.45.45 0 0 1 .153.194c.013.038.042.043.06.015s.112-.023.172.01c.075.04.334.04.373 0 .03-.033.153-.038.172-.01.019.032.047.02.066-.026.02-.057.128-.181.158-.181.034-.002.106-.07.106-.1a.04.04 0 0 0-.023-.038c-.019-.006-.019-.015-.002-.043.066-.102.12-.238.117-.304-.002-.102.021-.196.051-.207.038-.013.038-.462 0-.494-.026-.023-.05-.132-.056-.251a.2.2 0 0 0-.025-.094.3.3 0 0 1-.034-.096c-.007-.038-.02-.07-.03-.07-.011 0-.015-.023-.013-.053.004-.04-.004-.053-.036-.057-.042-.005-.062-.06-.025-.06.036 0 .02-.032-.073-.126q-.092-.096-.111-.078c-.025.025-.06.004-.06-.034 0-.024-.016-.026-.076-.016q-.12.02-.042-.042c.029-.023.025-.024-.043-.015-.175.026-.371.026-.422 0q-.052-.025-.08-.008m2.095.536q.001.046.03.047.031 0 .02-.03c-.006-.017-.012-.038-.012-.047s-.008-.017-.019-.017-.019.02-.019.047m0 1.337c0 .026.008.05.017.058.023.013.047-.058.03-.085-.02-.034-.047-.019-.047.027"/>
  <path d="M13.003 12.852c-.008.011-.006.03.005.041s.023.012.032-.003c.008-.012.006-.03-.005-.042s-.023-.011-.032.004m-.34.075c-.013.021-.01.021.108.023.043.002.083-.008.086-.019.01-.028-.177-.032-.194-.004m-.895.16c0 .036.045.055.09.038.03-.01.03-.013-.004-.04-.049-.033-.086-.033-.086.003m1.018.575c-.05.01-.059.015-.034.026.041.019.156.006.153-.017-.006-.024-.036-.026-.12-.01m.312.02c.015.024.16.024.198 0q.032-.02-.09-.02c-.076 0-.116.008-.108.02m-5.692-.928a.024.024 0 0 0 .009.032c.028.019.047-.006.023-.03q-.021-.019-.032-.002m1.374.324c-.007.013-.004.032.008.044.013.013.02.101.02.233 0 .134.008.213.02.213.028 0 .016-.494-.014-.503-.011-.004-.026.002-.034.013m-1.527.583c-.072.013-.074.015-.027.028.065.019.16.008.155-.017-.004-.024-.034-.026-.128-.011"/>
</svg>