<svg xmlns="http://www.w3.org/2000/svg" width="16" height="16" fill="currentColor" class="bi bi-pornhub" viewBox="0 0 16 16">
  <path fill-rule="evenodd" d="M.07 2.939v2.688H1.2V3.649l.459-.001.459-.001.463-.046.462-.045.197-.088.197-.089.186-.149.184-.15.112-.164.112-.164.071-.199.072-.2V1.93l.001-.424-.1-.266-.099-.266L3.787.76 3.599.546 3.33.413 3.06.282 1.565.266.07.251zm1.13-1.01v.743l.626-.021.626-.021.186-.092.186-.09.107-.16.106-.161v-.395l-.106-.161-.107-.159-.172-.085-.172-.084-.639-.029-.641-.029zm5.073-.254-.18.042-.248.118-.248.117-.218.215-.218.214-.14.282-.141.283-.057.268-.055.27.027.379.026.379.1.27.102.271.151.196.151.197.197.151.196.151.273.104.272.102.403.024.404.025.26-.076.261-.075.213-.12.214-.12.214-.227.213-.229.102-.2.103-.202.066-.217.066-.218V3.67l.001-.381-.075-.256-.077-.255-.114-.197-.115-.196-.202-.196-.203-.196-.205-.117-.206-.117-.285-.067-.284-.067-.283.004-.282.004zm4.686.055-.194.105-.143.184-.143.182v-.484H9.49V5.63l.53-.013.529-.013.024-1.202.024-1.201.101-.22.102-.221.143-.074.143-.074h.243l.172.072.171.071.039-.037.038-.039.141-.416.14-.416-.024-.039-.025-.041-.242-.072-.242-.072h-.344zm3.241-.031-.212.077-.143.096-.141.096-.128.119-.13.119v-.489h-.989v3.91h1.024l.021-1.236.02-1.237.097-.216.098-.216.179-.112.18-.11.25-.003.248-.002.149.149.149.149.037.227.038.228.003 1.19.003 1.189h1.036V2.675l-.066-.222-.068-.222-.128-.168-.128-.168-.262-.12-.261-.12-.333-.016-.332-.017zm-7.694.888-.181.065-.118.11-.118.11-.096.188-.097.188-.022.31-.023.309.077.265.077.263.216.19.215.19.207.031.208.03.13-.032.13-.033.154-.094.153-.094.129-.22.129-.22v-.942l-.083-.152-.083-.151-.105-.101-.106-.102-.188-.087-.188-.088-.118.001-.118.002zM1.2 6.714l-.212.096-.181.174-.183.173-.111.236-.112.235v7.112l.096.212.096.211.174.183.174.182.236.112.235.112H14.74l.236-.112.236-.112.174-.182.174-.183.096-.211.096-.212V7.628l-.096-.211-.096-.213-.174-.182-.174-.181-.236-.113-.236-.111H8.076l-6.664.001zm.114.816-.161.159v6.989l.161.161.159.16H14.68l.159-.16.161-.161V7.689l-.161-.159-.159-.16H1.473zm.368 3.43.013 2.697h.989l.024-1.295.023-1.295.105-.196.104-.195.155-.094.154-.094.193-.031.192-.032.197.079.198.08.081.147.081.148.024 1.388.024 1.39h.988v-3.062l-.124-.264-.123-.263-.162-.124-.163-.124-.208-.074-.208-.075-.29-.001-.29-.003-.229.076-.228.075-.247.189-.247.187V8.265H1.671zm9.232 0 .012 2.697h.941l.016-.25.013-.251.193.173.191.174.253.115.252.116.339-.001h.339l.295-.146.296-.145.168-.197.168-.197.115-.242.114-.243.048-.207.047-.206.002-.501.001-.502-.093-.301-.093-.302-.14-.212-.141-.213-.212-.152-.211-.151-.202-.072-.202-.071-.286-.004-.285-.005-.239.079-.238.078-.19.164-.191.163h-.056V8.265h-1.036zm-4.627.237v1.477l.073.247.074.247.162.18.162.18.239.103.238.102h.704l.254-.117.254-.116.212-.196.213-.196.014.274.015.275.459.013.459.014V9.721l-.506.014-.506.013-.024 1.319-.023 1.318-.082.149-.082.149-.124.098-.125.099-.187.05-.186.05-.149-.032-.149-.033-.087-.06-.086-.061-.078-.11-.078-.111-.024-1.412-.024-1.413-.506-.013-.506-.014zm6.218-.691-.163.07-.09.081-.088.079-.1.19-.1.188-.001.494-.001.495.064.18.064.181.147.168.148.168.152.063.152.064h.337l.134-.069.133-.068.122-.146.122-.145.072-.242.072-.241-.001-.311-.002-.309-.048-.212-.048-.211-.119-.181-.118-.18-.197-.09-.197-.089-.141.001-.141.001z"/>
</svg>