<svg xmlns="http://www.w3.org/2000/svg" width="16" height="16" fill="currentColor" class="bi bi-recon" viewBox="0 0 16 16">
  <path d="M3.13.13C2.037.277 1.215.782.612 1.682c-.11.168-.203.327-.203.356s-.03.114-.07.193a3 3 0 0 0-.163.436c-.084.277-.089.613-.089 5.368 0 4.764.005 5.09.09 5.368.049.163.118.361.158.445.034.08.079.183.094.223.103.247.435.688.707.945.307.292.614.5.955.638.148.06.327.129.396.158.405.164 1.138.188 5.492.188s5.086-.024 5.491-.188c.07-.03.248-.099.396-.158a3 3 0 0 0 .955-.638c.272-.257.604-.698.708-.945.015-.04.06-.144.094-.223a5 5 0 0 0 .158-.47c.084-.302.09-.623.09-5.368 0-4.73-.006-5.066-.09-5.343a3 3 0 0 0-.163-.436c-.04-.079-.07-.163-.07-.193s-.094-.188-.202-.356C14.722.758 13.92.278 12.753.12 12.263.055 3.605.065 3.13.13m7.372.86c.633.139 1.306.386 1.707.629.96.579 1.806 1.47 2.26 2.384.288.574.426.975.555 1.623.114.564.114 4.26 0 4.82-.262 1.29-.797 2.285-1.697 3.146-.831.796-1.662 1.232-2.825 1.49-.534.113-4.532.118-5.037.004-1.261-.292-2.053-.722-2.904-1.578a7 7 0 0 1-.678-.772c-.292-.42-.732-1.291-.732-1.46a.8.8 0 0 0-.07-.232c-.192-.45-.227-.945-.227-3.008s.035-2.558.228-3.008a.8.8 0 0 0 .069-.233c0-.168.44-1.039.732-1.46.124-.178.43-.524.678-.771.841-.846 1.633-1.282 2.87-1.574.232-.054.786-.069 2.498-.074C9.8.911 10.185.921 10.502.99"/>
  <path d="M6.37 1.831c-1.038.12-1.716.352-2.453.842-.366.242-.95.806-1.163 1.123-.08.113-.158.217-.173.232-.035.03-.347.638-.455.89-.104.238-.213.649-.277 1.08-.07.464-.075 3.695 0 4.175.138.965.51 1.766 1.192 2.593.193.227 1.014.86 1.33 1.019.466.227.713.336.787.336.03 0 .159.03.287.07.426.123 1.208.178 2.628.178 1.32 0 1.984-.045 2.454-.159.455-.108.578-.143.658-.183a7 7 0 0 1 .331-.153c.915-.416 1.964-1.49 2.32-2.375.05-.124.11-.257.13-.297.019-.044.088-.267.153-.495.113-.41.118-.46.118-2.622-.005-2.157-.005-2.211-.118-2.622a7 7 0 0 0-.154-.495c-.02-.04-.109-.232-.203-.42q-.238-.506-.425-.708c-.035-.034-.064-.084-.064-.104 0-.094-.797-.84-1.138-1.068-1.089-.728-1.747-.866-4.156-.856-.802.005-1.524.014-1.608.02M9.29 5.26c.015.025.099.064.183.084.42.09.984.619 1.232 1.158.203.435.242.707.242 1.603 0 .653-.02.955-.079 1.158-.228.816-.727 1.385-1.455 1.657-.188.07-.415.084-1.395.084-1.232 0-1.207.005-1.712-.242-.272-.134-.638-.485-.811-.787-.312-.544-.332-.663-.332-1.865s.02-1.321.332-1.865c.158-.272.613-.733.727-.733.03 0 .08-.024.114-.059.03-.03.163-.094.292-.138.198-.07.445-.09 1.435-.094.687 0 1.207.014 1.227.04"/>
  <path d="M7.212 6.784c-.455.237-.57.49-.564 1.276 0 .703.089.945.415 1.173.193.134.213.134.92.139.723 0 .723 0 .92-.144.372-.267.411-.386.411-1.197-.004-.698-.004-.718-.138-.91a1.1 1.1 0 0 0-.356-.307c-.198-.1-.297-.114-.841-.11-.465 0-.653.02-.767.08"/>
</svg>