<svg xmlns="http://www.w3.org/2000/svg" width="16" height="16" fill="currentColor" class="bi bi-scruff" viewBox="0 0 16 16">
  <path fill-rule="evenodd" d="M6.443.152C3.128.419 1.266 2 1.266 4.552c0 2.359 1.616 4.165 4.65 5.197q1.054.358.454-.199c-.23-.212-.287-.678-.123-1.021.104-.218.105-.255.008-.351-.257-.259.089-.818.436-.709.255.081.4 1.034.256 1.658-.036.154-.025.271.033.34.047.057.075.113.06.121l-.171.096c-.319.176-.206.282.62.576.441.157.857.309.922.337.077.031.172-.002.267-.098.175-.175.219-.183.219-.043 0 .064.042.089.107.064.067-.026.106 0 .106.072 0 .064.037.116.083.116s.024.064-.05.144c-.128.143-.128.147.027.188.126.033.141.059.073.141a.6.6 0 0 0-.098.295 7 7 0 0 1-.066.488c-.054.314.073.441.335.341.124-.048.227.073.157.185-.032.05-.078.047-.147-.01-.107-.089-.107.071-.003.521l.086.388c.032.156.054.172.113.09.06-.085.065-.08.033.021a.5.5 0 0 0 .025.285c.035.087.065.119.068.071.009-.161.221-.093.292.093.089.236.087.244-.033.244-.143 0-.22.148-.112.214.109.067.032.214-.111.214a.103.103 0 0 0-.102.106c0 .153-.082.132-.273-.07-.1-.107-.143-.209-.11-.264.132-.215-.065-1.064-.347-1.483a2.2 2.2 0 0 1-.201-.412c-.068-.193-.106-.222-.234-.179-.083.028-.33.049-.548.046-.507-.008-.664.163-.437.472.132.18.298.88.334 1.412.008.128.036.253.062.278.07.069.056.364-.019.411-.036.022-.122-.017-.19-.085-.089-.089-.134-.1-.155-.036-.043.132-.159.107-.162-.036-.002-.125-.228-.445-.314-.445-.186 0-.516-.339-.498-.511.013-.117-.019-.205-.084-.23-.063-.024-.084-.077-.053-.127.067-.108.042-.542-.039-.686-.039-.068-.012-.192.071-.339l.13-.234-.402-.116c-1.067-.31-1.868-1.023-1.868-1.662 0-.373.045-.364-1.853-.364-1.747 0-1.956.027-1.791.234.039.048.044.148.012.229-.08.197-.081.658-.003.707.036.022.08 0 .097-.049.018-.05.053-.07.076-.048.025.022-.011.103-.079.178-.207.23-.116 1.908.106 1.932q.155.015.122-.075c-.05-.129.293-.432.429-.379.159.061.22.262.102.336-.074.047-.053.065.079.071.381.015.5.047.636.169q.211.192.05.448c-.073.119-.189.114-.189-.009 0-.214-1.042-.223-1.276-.012-.196.176-.224 1.488-.034 1.561.161.063 3.496.052 3.403-.011-.103-.068-.102-.526.001-.493.042.014.082.129.089.257.014.289.035.308.261.251.16-.04.21-.129.372-.662.103-.338.199-.627.213-.642s.169.121.346.301c1.327 1.367 3.655 1.902 5.775 1.329 1.035-.281 1.295-.409 1.254-.619-.027-.146-.014-.173.063-.128.085.052.085.042.003-.059-.084-.103-.082-.121.008-.121.128 0 .285.171.218.237-.136.138.211.019.495-.169.768-.51 1.429-1.425 1.622-2.246.185-.781.042-2.452-.239-2.791a.46.46 0 0 1-.087-.221c-.056-.752-2.563-2.829-3.375-2.795-.186.006-.216-.005-.115-.046.129-.053.128-.06-.032-.102-.094-.023-.217-.005-.276.042-.082.067-.095.068-.055 0q.053-.086-.145.018c-.18.093-.202.092-.225-.018-.014-.067.008-.133.05-.147.223-.075-.1-.243-.935-.488-1.958-.571-2.632-1.114-2.284-1.845.272-.572 1.283-.661 2.793-.243 1.16.322 1.932 1.031 1.932 1.775v.216h3.631l-.019-2.469-.019-2.467-.25-.068-.248-.067.207-.058c.115-.034.235-.043.266-.023.034.021.06.002.06-.043 0-.086-3.841-.087-3.983-.001-.041.026-.169.314-.285.639-.255.722-.236.704-.42.407C10.245.736 8.261.006 6.443.152m2.089.709c.275.055.292.166.028.178q-.197.008-.065.041c.102.027.119.074.079.224-.029.104-.05.242-.048.307.003.064-.056.133-.132.153-.102.026-.137-.002-.137-.106 0-.082-.038-.129-.089-.111-.049.018-.079.085-.068.149.011.065-.013.116-.054.116-.04 0-.074-.061-.074-.137s-.029-.156-.064-.178c-.079-.049-.166.161-.107.257.027.043-.041.057-.173.036-.13-.021-.23-.001-.245.047-.021.061-.055.06-.135-.005-.059-.049-.126-.07-.148-.047-.11.108-1.055.079-1.11-.035-.049-.102-.056-.259-.014-.31a.7.7 0 0 0 .04-.15c.038-.199.099-.226.197-.09.057.076.137.105.213.076.16-.061.158-.175-.001-.176a.5.5 0 0 1-.232-.071c-.074-.049-.032-.056.143-.022.137.026.287.098.336.159.047.063.087.084.089.046.001-.036.043-.011.093.057.1.138.336.093.336-.064 0-.09.307-.104.395-.016.073.073.536-.11.501-.2-.065-.17.058-.205.446-.128m.657.316c.309.22.257.564-.085.564-.036 0-.065-.052-.065-.116 0-.097-.024-.092-.132.035-.174.2-.197.194-.249-.064-.033-.166-.006-.257.116-.387.196-.209.168-.208.415-.032m.516-.052c.023-.024.091-.003.151.047.087.072.108.071.108-.004 0-.074.02-.077.085-.01a.35.35 0 0 0 .214.086c.071 0 .128.035.128.078 0 .044-.049.061-.109.037-.07-.027-.136.019-.187.13-.115.255-.496.237-.47-.021.014-.128-.027-.204-.14-.263-.089-.044-.14-.101-.115-.125.023-.025.1-.015.168.021s.143.047.167.024m-4.081.121c0 .079.046.162.102.183.228.089.033.49-.254.521-.109.012-.123-.235-.028-.461.059-.145.072-.245.03-.245-.04 0-.052-.032-.027-.072.075-.121.177-.078.177.074M3.739 3.735c.058.095-.026.354-.117.354-.038 0-.048-.034-.02-.079.026-.043.008-.103-.042-.133-.049-.031-.067-.092-.04-.135.061-.099.161-.101.219-.007m10.068.213c0 .039-.072.07-.16.069-.13 0-.14-.014-.054-.069.138-.089.214-.089.214 0m-1.249.351c.024.036.004.089-.042.117-.058.036-.045.079.043.143.116.085.113.092-.043.083a.54.54 0 0 1-.252-.072c-.096-.072-.042-.288.056-.226.035.022.063.005.063-.037 0-.093.119-.098.175-.008m1.648.057c.112.149.126.303.027.303-.038 0-.07-.049-.07-.108a.18.18 0 0 0-.107-.15c-.059-.023-.088-.07-.067-.105.058-.094.111-.079.217.06m1.057.806c-.024.036-.111.065-.197.064-.152-.002-.152-.006-.021-.104.139-.106.29-.077.218.04m-7.423.771c-.133.083-.007.151.306.162.217.009.239.025.164.118-.072.091-.071.099.012.049.077-.046.089-.03.053.064a.8.8 0 0 0-.047.232c0 .065-.04.093-.102.069-.057-.022-.116-.001-.134.046-.018.048-.066.004-.107-.093-.042-.097-.077-.137-.08-.089-.006.128-.147.11-.147-.019a.55.55 0 0 0-.082-.239c-.104-.167-.032-.364.134-.363.098 0 .105.014.03.063m-.011 3.385c.071.087.067.116-.026.15-.063.025-.098.073-.075.109.022.035.005.062-.036.062-.107 0-.094-.211.013-.218.071-.004.071-.012 0-.041-.101-.042-.12-.167-.026-.167.033 0 .101.047.15.105m3.183.37c-.027.136.005.224.11.31.168.135.126.378-.052.31-.121-.048-.153.08-.037.151.182.113-.034.16-.253.054-.243-.115-.322-.267-.165-.319.058-.02.052-.071-.016-.181-.085-.136-.076-.174.074-.335.229-.243.386-.239.339.01m-3.079.028c-.022.036-.007.066.035.066s.075.071.075.157c0 .205-.115.088-.183-.186-.036-.147-.028-.191.032-.154.045.028.063.081.041.117m-2.693 3.22c.004.106-.016.19-.045.19-.106 0-.212-.198-.168-.314.067-.175.204-.094.213.124m9.064.093c0 .131-.037.168-.171.168-.172 0-.182-.057-.07-.417.048-.154.241.045.241.249M2.279 14.081c0 .016.019.08.044.143q.041.11-.072.112c-.062 0-.114.032-.114.071s-.047.071-.107.071c-.111 0-.136-.124-.062-.314.036-.096.311-.169.311-.083m.513.685c.75.148.767.155.448.214-.157.029-.296.025-.308-.012-.013-.034-.103-.062-.2-.062a.8.8 0 0 1-.31-.071c-.175-.094-.356-.018-.356.149 0 .097-.051.135-.183.135-.303 0-.208-.307.113-.364.383-.069.394-.069.796.011m1.125.211c0 .168-.046.178-.183.042-.078-.078-.081-.11-.013-.138.161-.065.196-.049.196.096"/>
</svg>