<svg xmlns="http://www.w3.org/2000/svg" width="16" height="16" fill="currentColor" class="bi bi-sean-cody" viewBox="0 0 16 16">
  <path fill-rule="evenodd" d="M14.531 2.494c-.15.017-.837.122-.936.144a.7.7 0 0 0-.292.129c-.051.04-.057.04-.129.021-.232-.066-.161-.071-1.305.101l-.879.131-.004.164a.6.6 0 0 1-.016.159c-.39-.205-.635-.225-1.346-.113a289 289 0 0 1-2.058.317l-.036.007-.003.436-.005.434-.053-.083c-.272-.423-.796-.63-1.418-.558-1.516.177-2.012.36-2.354.873l-.067.101v-.315c0-.299-.001-.313-.031-.313-.032 0-.334.044-1.416.208-1.251.188-1.434.242-1.694.504-.283.286-.366.581-.366 1.302.001.794.1 1.107.444 1.404l.07.061-.262.037-.262.037v.57c.002.752.028.928.176 1.142l.05.074-.047.099c-.2.423-.254 1.699-.092 2.147.16.438.532.67 1.013.63.772-.062 1.269-.187 1.424-.356.028-.03.046-.038.065-.028.209.11.436.112 1.102.01.697-.108.863-.164 1.071-.362l.078-.074.126.061c.27.131.702.132 1.053.002a.6.6 0 0 1 .255-.037c.104.001.293-.019.684-.078.297-.044.551-.08.564-.08s.043.041.069.091c.095.19.283.318.514.357.116.018.141.015.814-.092l.695-.11-.006-.438-.006-.44.101-.34.101-.339h.102c.28 0 1.705-.232 1.825-.297.068-.037.082-.038.19-.025.242.031.876-.073 1.084-.178.076-.039.08-.039.189-.016.141.028.077.036 1.359-.157.58-.087 1.064-.158 1.075-.158.026 0 .029-1.502.003-1.663a.77.77 0 0 0-.206-.406 1 1 0 0 1-.081-.079c0-.002.119-.021.265-.043l.263-.037v-.539c0-.61.014-.557-.145-.557h-.093l-.005-1.323c-.006-1.472 0-1.391-.118-1.632-.181-.371-.57-.544-1.093-.487m.449.51a.35.35 0 0 1 .233.234c.025.077.028.211.037 1.546.009 1.675 0 1.569.144 1.611.039.012.08.026.091.028.024.009.029.184.005.184-.008 0-.329.047-.712.103-.926.138-.97.137-1.062-.048l-.04-.079-.009-1.167c-.008-1.262-.004-1.216-.097-1.263-.12-.063-.217.012-.24.185-.024.169-.009 2.146.016 2.224q.036.11.161.13l.064.011v.096c0 .053-.007.095-.015.095s-.329.047-.712.104c-.874.13-.917.131-1.018.011-.072-.086-.075-.137-.088-1.737-.013-1.633-.009-1.566-.095-1.604a.4.4 0 0 0-.092-.028l-.058-.009v-.185l.069-.01.713-.105c.354-.053.678-.097.719-.097.226 0 .321.113.323.383l.001.121.133-.267c.185-.365.137-.337.752-.429.463-.068.646-.076.777-.038m-4.492.661c.209.04.398.179.484.355.099.201.095.142.105 1.556.011 1.506.001 1.428.18 1.459l.069.012.005.09c.004.084.001.093-.032.1-.139.031-1.37.205-1.459.207-.223.002-.307-.092-.325-.362l-.011-.163-.102.22c-.179.381-.241.421-.794.499-.781.112-1.06-.222-1.007-1.208.052-.959.238-1.147 1.294-1.311.58-.089.617-.104.617-.245 0-.181-.067-.192-.632-.106-.711.106-.787.086-.838-.232-.024-.143-.022-.567.003-.567.016 0 1.948-.286 2.091-.308.08-.014.27-.011.352.004m-3.889.616c.475.112.691.55.63 1.283-.035.412-.112.529-.394.601-.077.019-1.356.217-1.406.217-.025 0-.001.357.028.411.08.154.282.184.756.11.573-.089.726-.153.782-.33.01-.03.023-.035.132-.053l.052-.008v.411c-.002.888-.053.936-1.213 1.114-1.319.201-1.444.207-1.687.085-.357-.181-.44-.448-.44-1.428-.001-1.498.186-1.938.928-2.188.445-.149 1.568-.287 1.832-.225M3.132 5.1c-.005.421-.008.431-.09.52-.054.058-.138.08-.483.131-.474.069-.575.111-.575.242 0 .138.024.154.631.414.764.329.86.48.834 1.308-.033 1.046-.16 1.187-1.209 1.346-1.721.258-1.63.291-1.63-.595l-.001-.354.084-.012c.07-.009.086-.007.1.017.083.143.109.147.525.086.663-.096.778-.142.778-.316 0-.166-.024-.184-.512-.369-.88-.335-.948-.421-.97-1.223C.59 5.4.741 5.119 1.32 4.984a42 42 0 0 1 1.772-.278l.046-.002zm2.366.141c-.078.042-.125.501-.049.481.015-.005.09-.017.167-.026l.14-.02v-.167c0-.264-.092-.358-.258-.268m3.838.501c-.154.03-.175.077-.175.364 0 .384.047.446.301.395l.05-.011v-.763l-.06.002a1 1 0 0 0-.116.013m5.866 1.788c.054.044.062.131.063.67 0 .513.005.549.066.549.008 0 .015.013.015.03 0 .036-.001.036-.303.081-.38.058-.353.094-.353-.456 0-.438-.006-.486-.063-.486-.058 0-.064.049-.064.452 0 .407.007.464.063.478.036.01.045.057.013.069-.071.025-.547.084-.581.07-.064-.024-.071-.075-.071-.503 0-.441-.001-.455-.057-.455-.064 0-.07.04-.07.446 0 .396.008.462.063.476.045.012.041.066-.003.076a8 8 0 0 1-.521.073c-.106 0-.106-.003-.112-.65l-.005-.583-.039-.018c-.031-.013-.058-.075-.033-.075l.268-.041c.34-.052.38-.042.382.091.001.052.002.051.049-.038.061-.12.084-.132.302-.164.254-.034.31-.02.346.094l.016.047.033-.079c.05-.114.075-.131.238-.156.209-.033.315-.033.358.002m-2.242.349c.095.07.107.124.113.501.011.718-.037.78-.676.873-.511.074-.569.03-.581-.453-.017-.729.043-.825.573-.905.145-.022.282-.043.304-.048.087-.016.223 0 .267.032m-1.338.262c0 .141-.028.232-.075.245a2 2 0 0 1-.138.028c-.161.027-.171.045-.171.306 0 .199.001.206.04.246.066.066.287.031.326-.051.049-.11.081-.05.081.152 0 .287-.01.296-.435.36-.529.079-.585.038-.599-.436-.023-.754.03-.836.612-.928.401-.065.359-.074.359.078m-4.524-.044c.102.052.097-.004.107 1.357.008 1.329.008 1.332.09 1.352.079.021.085.124.008.137a15 15 0 0 1-.88.123c-.13 0-.201-.081-.205-.232 0-.042-.007-.034-.057.063-.105.208-.147.236-.433.283-.625.102-.728-.093-.691-1.309.023-.705.098-.869.449-.972.067-.021.659-.118.715-.119.018 0 .021-.036.015-.194-.007-.211-.027-.254-.118-.254-.043 0-.059-.104-.018-.119.143-.05.962-.144 1.018-.116m5.319.141c-.039.022-.042.59-.005.621.083.068.111-.04.103-.378-.007-.24-.025-.286-.098-.243m-2.574.056c.075.075.061.136-.353 1.462-.43 1.373-.419 1.325-.281 1.344.032.005.041.016.044.065.006.072.061.057-.521.143-.699.102-.694.108-.485-.541l.109-.339-.464-.834c-.441-.791-.47-.837-.526-.861-.049-.02-.096-.129-.055-.129l.426-.063c.636-.097.568-.129.81.368.095.192.177.351.183.351.014 0 .163-.539.171-.624q.012-.127-.086-.128c-.034 0-.038-.007-.038-.062v-.062l.132-.018.419-.065c.383-.06.461-.061.515-.007m-5.339.813c.188.08.239.209.26.664.046.961-.063 1.411-.375 1.559-.143.067-.759.181-1.217.224-.479.046-.626-.288-.567-1.283.052-.904.122-.974 1.114-1.121l.479-.073a.8.8 0 0 1 .306.03m5.918.082c.034.033.046.339.015.349a3 3 0 0 1-.234.04c-.305.047-.323.034-.323-.221v-.14l.22-.033c.229-.034.283-.033.322.005m-4.277.186c-.127.025-.125.017-.13.564-.006.535-.002.552.098.552.099 0 .127-.26.103-.984l-.005-.145zm-3.89.246c0 .363-.013.381-.311.429-.313.05-.333.078-.342.472-.011.491.042.571.346.528.188-.026.254-.056.292-.127q.039-.082.123-.081c.016 0 .021.073.021.312 0 .525-.008.53-.812.647-.611.089-.723.077-.843-.096-.167-.241-.167-1.522 0-1.863.112-.23.234-.282.912-.383.21-.032.415-.063.455-.071a1 1 0 0 1 .116-.014l.043-.002zm1.366.141c-.039.029-.056.959-.019 1.032.029.057.126.065.162.013.033-.045.039-.949.007-1.009-.033-.064-.093-.078-.15-.036"/>
</svg>