<svg xmlns="http://www.w3.org/2000/svg" width="16" height="16" fill="currentColor" class="bi bi-sniffies" viewBox="0 0 16 16">
  <path fill-rule="evenodd" d="M12.946 1.539a2.191 2.191 0 0 0 1.019 4.248c1.754-.324 2.447-2.374 1.239-3.666-.553-.591-1.495-.834-2.258-.582m-2.774 4.293a5.2 5.2 0 0 0-1.622.764c-.597.448-1.555 1.438-2.115 2.186-.633.845-1.053 1.267-1.476 1.481-.584.295-1.206.142-1.494-.368-.303-.54-.194-1.421.314-2.54.144-.316.275-.606.292-.646.023-.056-.324-.071-1.636-.071H.769l-.109.255c-.34.793-.485 1.57-.485 2.604 0 .748.02.956.128 1.333.495 1.72 1.833 2.824 3.644 3.006 2.017.201 3.424-.6 5.408-3.082.73-.916 1.034-1.215 1.388-1.375.431-.196 1.014-.113 1.342.192.586.547.509 1.616-.222 3.104a8 8 0 0 0-.284.613c0 .022.771.04 1.714.04h1.714l.109-.214c.191-.377.456-1.293.527-1.82.087-.654.037-1.633-.114-2.226a6 6 0 0 0-.388-1.001c-.228-.458-.354-.626-.815-1.089-.637-.636-1.182-.954-1.954-1.139-.615-.148-1.615-.151-2.2-.007"/>
</svg>