<svg xmlns="http://www.w3.org/2000/svg" width="16" height="16" fill="currentColor" class="bi bi-tim" viewBox="0 0 16 16">
  <path d="M7.566 1.89a2 2 0 0 1-.28.035c-.13 0-.498.099-.667.172l-.123.053a2 2 0 0 0-.122.067c-.46.284-.614.462-.79.922-.041.112-.119.308-.168.435-.087.224-.087.245-.08 1.066.007.93.028 1.024.224 1.062.14.028.147.07.028.207-.137.155-.137.242 0 .45.193.29.253.304.674.178.2-.063.206-.063.298.007.056.042.126.158.175.295.046.122.116.308.158.406.06.158.066.204.031.313q-.037.128-.007.192c.046.085.176.046.176-.052 0-.126.042-.235.084-.221.02.007.045.098.056.203.014.162.028.19.095.2q.22.031.22-.217c0-.169.025-.214.092-.158.028.025.038.074.028.123a.5.5 0 0 0 0 .172c.017.07.045.087.126.087.123 0 .175-.08.175-.26q.001-.125.05-.126c.052 0 .105.158.073.21-.038.06.053.176.137.176.109 0 .154-.06.168-.228.01-.122.021-.14.109-.15.084-.011.095 0 .095.087 0 .15.07.228.193.214.105-.01.105-.01.108-.249.004-.21.014-.249.102-.34a1 1 0 0 0 .21-.316c.014-.028.039-.077.056-.105s.046-.088.067-.13a.31.31 0 0 1 .358-.154c.06.021.193.039.294.039.172 0 .193-.01.28-.127a.78.78 0 0 0 .13-.515c-.01-.046-.073-.112-.154-.158-.147-.084-.178-.147-.073-.147.13 0 .224-.165.347-.596.063-.225.045-.653-.042-1.017-.032-.127-.067-.285-.084-.351-.088-.386-.498-1.01-.874-1.322-.235-.197-.578-.368-.813-.407-.295-.042-.982-.06-1.14-.025m-.508 2.743a.7.7 0 0 1 .284.137c.087.084.101.119.101.29 0 .211-.042.31-.214.488-.13.137-.452.34-.54.34-.042 0-.14-.056-.22-.126-.186-.158-.267-.403-.246-.757.01-.225.024-.256.116-.33.084-.067.147-.084.322-.084.12 0 .298.017.397.042m2.121 0a.8.8 0 0 1 .28.15l.117.11-.018.297c-.035.467-.112.593-.379.593-.287 0-.656-.27-.827-.603-.095-.186-.085-.267.052-.39.193-.171.491-.234.775-.157M8.12 5.825c.183.365.218.55.123.649-.063.06-.063.06-.295-.112-.031-.021-.066-.004-.119.063-.088.112-.13.116-.245.028-.099-.077-.102-.063.108-.663.151-.435.197-.431.428.035"/>
  <path d="M.163 3.647c-.035.056.021.625.077.786.025.077.05.161.05.186s.08.207.175.403c.178.365.192.39.36.649.053.084.096.158.096.165 0 .031.29.449.536.768.298.389.94 1.045 1.589 1.623.312.28.406.358.855.698.204.151.376.284.386.295.077.084 1.143.747 1.578.982.088.045.253.137.368.2s.235.122.263.136c.207.085.807.386.807.404 0 .014-.084.031-.182.042-.102.007-.28.049-.397.094a4 4 0 0 1-.315.106c-.056.017-.193.063-.298.105s-.239.088-.298.102c-.169.045-.484.203-.586.301-.084.077-.098.12-.098.28 0 .106.014.197.031.208.035.02.52-.123 1.109-.33.357-.123.645-.22.736-.245.06-.018.193-.064.298-.106s.239-.087.291-.105c.218-.067.267-.19.095-.228-.056-.014-.105-.038-.105-.056 0-.049.13-.035.189.021.028.028.074.053.102.053.031 0 .101.024.161.052l.217.106c.06.029.13.052.158.052s.077.018.112.035c.074.046.618.242.765.277.063.018.13.042.154.056s.091.039.155.056c.06.014.22.067.354.116.137.05.27.091.301.091s.102.025.162.053c.056.028.179.063.266.074.155.02.162.017.186-.074.039-.158-.056-.407-.186-.477a3.7 3.7 0 0 0-.66-.263c-.115-.035-.241-.084-.28-.109s-.108-.045-.157-.045-.12-.025-.155-.053a.3.3 0 0 0-.137-.053.4.4 0 0 1-.157-.049 2 2 0 0 0-.435-.15c-.053-.01-.116-.039-.137-.067s-.084-.05-.137-.05-.115-.024-.14-.052-.08-.052-.123-.052-.098-.025-.122-.053-.078-.053-.12-.053a.3.3 0 0 1-.14-.052.3.3 0 0 0-.13-.053c-.031 0-.077-.024-.101-.052s-.074-.053-.11-.053a.2.2 0 0 1-.108-.046.35.35 0 0 0-.144-.073c-.052-.01-.087-.039-.077-.056.032-.053.109-.042.158.017.025.028.08.053.123.053s.098.024.122.052.07.053.102.053c.035 0 .091.025.13.053a.3.3 0 0 0 .158.052c.052 0 .112.025.137.053s.073.052.108.052.123.025.197.057c.322.143.533.22.676.249.05.01.12.042.158.066a.26.26 0 0 0 .13.05c.032 0 .112.02.175.048.169.07.344.13.484.165.067.014.277.07.47.12.39.101.48.09.691-.085l.12-.101-.158-.07a6 6 0 0 0-.527-.183 17 17 0 0 1-.49-.158c-.242-.084-.369-.13-.48-.161-.155-.046-.148-.102.01-.102.168 0 .634-.252 1.75-.947.21-.13.494-.336.519-.375.014-.024.045-.045.066-.045.035 0 .225-.137.453-.334.066-.056.2-.168.294-.245.091-.077.19-.158.21-.182.025-.025.169-.151.32-.281.677-.586 1.494-1.494 1.827-2.027.273-.435.501-.835.575-1 .021-.049.056-.115.074-.154.105-.2.235-.8.238-1.083 0-.242-.088-.221-.28.066-.088.13-.183.267-.21.312-.148.218-.923 1.144-1.176 1.407-1.038 1.066-1.294 1.304-2.04 1.897-.411.326-1.41 1.041-1.554 1.108-.084.042-.2.112-.25.154-.112.088-1.458.782-1.89.972-.322.144-.336.158-.238.249a.5.5 0 0 0 .182.101c.074.018.092.036.063.064s-.063.02-.126-.021c-.049-.032-.119-.057-.154-.057s-.077-.014-.095-.031a2 2 0 0 0-.263-.126c-.393-.162-.743-.33-1.424-.684-.266-.14-.533-.28-.592-.309-.056-.031-.155-.091-.214-.137s-.12-.08-.133-.08-.067-.028-.12-.067l-.357-.235c-.323-.207-.828-.564-.947-.673A.4.4 0 0 0 4 7.607c-.018 0-.302-.235-.635-.523a19.5 19.5 0 0 1-1.81-1.792c-.14-.165-.29-.337-.333-.386C1.075 4.745.29 3.676.29 3.644c0-.05-.094-.046-.126.003m4.114 4.636c.035.057.308.27.347.27.014 0 .049.025.08.053.07.067.632.474.65.474.01 0 .115.066.238.147.33.22.354.235.445.273.046.021.133.074.193.116.133.095.224.15.33.196.066.032.108.11.06.11-.022 0-.313-.152-.334-.173-.01-.014-.091-.056-.182-.101s-.176-.095-.186-.116c-.014-.018-.053-.032-.091-.032s-.077-.02-.088-.049-.046-.06-.077-.07c-.133-.049-.744-.445-.744-.484 0-.014-.017-.028-.038-.028s-.105-.056-.186-.126c-.396-.347-.512-.452-.512-.477 0-.046.063-.032.095.017m7.462.123c-.077.074-.21.186-.298.253s-.172.14-.186.165-.045.045-.066.045a.6.6 0 0 0-.169.105c-.073.056-.143.106-.154.106s-.123.07-.252.157a1.7 1.7 0 0 1-.256.158c-.018 0-.05.025-.074.053s-.07.052-.105.052-.07.025-.084.053a.09.09 0 0 1-.074.053.2.2 0 0 0-.109.052c-.063.06-.154.07-.154.018 0-.021.035-.053.08-.07a1.6 1.6 0 0 0 .34-.214c.067-.05.148-.102.176-.113.07-.031.182-.105.544-.357.168-.116.33-.228.36-.246.032-.02.096-.07.145-.115a.7.7 0 0 1 .157-.099.4.4 0 0 0 .14-.105c.043-.045.099-.084.127-.084.032 0-.007.056-.088.133M9.716 9.753c-.01.024-.046.052-.08.06s-.089.031-.117.06a.16.16 0 0 1-.101.048c-.07 0-.039-.084.042-.101a.26.26 0 0 0 .116-.06c.06-.06.157-.063.14-.007m-2.907.2q.048.03.007.052c-.046.028-.11-.003-.11-.052 0-.039.04-.039.103 0m2.475.038c-.01.018-.045.035-.073.035s-.05-.017-.05-.035c0-.02.032-.035.074-.035.039 0 .06.014.05.035m-2.259.088c-.003.053-.084.042-.102-.01-.01-.032.007-.046.042-.036.035.004.06.025.06.046m2.1-.021c0 .018-.03.046-.07.056-.087.028-.09.109-.006.154.056.035.052.035-.011.039-.112 0-.382-.091-.396-.133-.007-.028.031-.042.105-.042a.5.5 0 0 0 .203-.053c.102-.06.176-.067.176-.021m-1.582.971c.007.007.007.025-.007.035-.032.036-.2-.017-.2-.06 0-.034.168-.013.207.025"/>
  <path d="M9.607 6.733c-.137.081-.375.586-.375.797 0 .045-.028.192-.06.33-.042.182-.084.262-.161.329-.13.109-.161.105-.203-.021-.078-.21-.348-.095-.348.147 0 .074-.017.098-.07.098-.049 0-.07-.024-.07-.08 0-.2-.035-.239-.19-.228-.143.01-.143.01-.16.168-.022.203-.085.19-.106-.025-.017-.16-.024-.168-.133-.178-.15-.014-.225.049-.214.182.021.245-.126.245-.154 0-.021-.203-.063-.25-.19-.203-.063.02-.101.066-.122.147-.039.14-.11.144-.235.014-.07-.07-.11-.168-.158-.393-.162-.789-.34-1.112-.561-1.013q-.179.083-.077.326c.056.133.112.498.147.94l.02.273.176.147c.41.348.477.407.628.565l.161.165h.75c.737 0 .758-.004.867-.08.126-.096.217-.208.298-.362a.33.33 0 0 1 .154-.147c.221-.084.295-.207.376-.604.031-.164.08-.378.108-.473.07-.252.098-.428.102-.649.004-.168-.007-.193-.067-.2a.23.23 0 0 0-.133.028M3.18 10.195c-.172.056-.365.298-.365.452 0 .13.077.326.162.431.08.095.108.106.298.106.178 0 .214-.01.263-.088.108-.165.214-.102.427.256.064.102.113.214.113.249s.024.084.052.109c.063.052.07.22.01.203-.024-.01-.052-.052-.055-.098-.014-.091-.291-.386-.365-.386-.028 0-.088.039-.13.084l-.08.085-.123-.085c-.168-.112-.333-.112-.446.007l-.084.095-.094-.077c-.123-.095-.302-.095-.386-.004-.077.088-.253.092-.344.007-.049-.042-.126-.06-.284-.06-.256 0-.4.085-.498.288-.161.344-.063.775.235.99.126.094.179.108.368.108.2 0 .232-.01.39-.133.09-.074.189-.162.217-.193.042-.053.14-.06.79-.063.406-.004.778-.014.827-.028.08-.021.087-.042.098-.242.01-.228.06-.288.098-.123.01.056.042.161.067.238s.07.235.105.351c.165.565.224.694.4.842.119.098.417.19.564.168.369-.049.474-.161.474-.494 0-.207-.007-.232-.116-.327-.147-.133-.266-.13-.396.008-.088.094-.112.101-.158.063-.13-.106-.263-.502-.267-.782-.003-.204.067-.46.137-.516.084-.074.046-.13-.133-.193-.196-.07-.263-.14-.466-.494-.169-.291-.446-.586-.628-.67-.158-.074-.554-.123-.677-.084m9.156.014a.6.6 0 0 0-.231.084c-.028.028-.07.049-.088.049-.06 0-.305.28-.46.523-.206.33-.37.53-.43.53-.07.003-.21.122-.21.181 0 .025.024.078.052.113.038.052.052.168.052.445 0 .39-.045.561-.207.765l-.066.087-.095-.112c-.105-.123-.21-.144-.365-.063-.122.067-.178.193-.178.41 0 .26.066.358.284.428.301.098.494.063.757-.147.179-.144.221-.225.361-.705.042-.144.092-.298.11-.344s.03-.126.03-.182.025-.123.053-.154c.028-.029.053-.099.053-.155s.024-.123.052-.147.053-.07.053-.105c0-.032.039-.13.088-.214.045-.084.101-.186.119-.225s.08-.126.137-.193l.105-.122.12.112c.1.098.143.116.294.116s.193-.018.277-.106c.108-.112.154-.308.123-.54-.036-.27-.362-.406-.79-.33m-6.347.46c-.172.056-.372.123-.438.147s-.239.081-.38.123-.287.105-.325.137c-.07.056-.07.056.014.137.133.122.308.15.617.09.263-.048.505-.111.74-.192.347-.12.41-.137.48-.137.074 0 .151-.09.151-.172 0-.02-.028-.038-.066-.038-.036 0-.085-.025-.11-.053s-.073-.052-.111-.052c-.035 0-.074-.025-.085-.053-.028-.074-.119-.06-.487.063"/>
  <path d="M12.718 11.443a.4.4 0 0 0-.134.088c-.038.06-.14.045-.203-.028-.077-.091-.193-.063-.316.077-.056.056-.098.116-.098.133 0 .014-.02.05-.045.074-.056.06-.13.344-.13.498 0 .182.109.203.957.193.39-.007.73 0 .754.017a.12.12 0 0 1 .042.084c0 .036.067.113.148.176.133.101.168.112.406.112s.27-.01.397-.109a.73.73 0 0 0 .29-.61q.005-.606-.522-.67c-.182-.02-.207-.017-.35.088-.183.133-.207.133-.256.021-.035-.077-.064-.088-.232-.088-.123 0-.203.018-.231.053-.063.074-.13.067-.158-.021-.018-.053-.154-.147-.204-.137-.003.004-.056.025-.115.05"/>
</svg>